<mxfile host="app.diagrams.net" modified="2024-01-23T22:43:23.331Z" agent="Mozilla/5.0 (Windows NT 10.0; Win64; x64) AppleWebKit/537.36 (KHTML, like Gecko) Chrome/120.0.0.0 Safari/537.36" etag="4_UJB7vZ0UlzSgYQbulJ" version="22.1.21" type="github">
  <diagram name="Page-1" id="e3a06f82-3646-2815-327d-82caf3d4e204">
    <mxGraphModel dx="1908" dy="1134" grid="1" gridSize="10" guides="1" tooltips="1" connect="1" arrows="1" fold="1" page="1" pageScale="1.5" pageWidth="3300" pageHeight="2339" background="none" math="0" shadow="0">
      <root>
        <mxCell id="0" style=";html=1;" />
        <mxCell id="1" style=";html=1;" parent="0" />
        <mxCell id="3U3AbJrNhwpyRPHoVkgr-95" style="edgeStyle=none;rounded=0;orthogonalLoop=1;jettySize=auto;html=1;exitX=0.5;exitY=0;exitDx=0;exitDy=0;exitPerimeter=0;endArrow=none;endFill=0;" parent="1" target="3U3AbJrNhwpyRPHoVkgr-90" edge="1">
          <mxGeometry relative="1" as="geometry">
            <mxPoint x="2530" y="950" as="sourcePoint" />
          </mxGeometry>
        </mxCell>
        <mxCell id="ZFgZAANVJCpxepYmrR5U-31" style="edgeStyle=none;rounded=0;orthogonalLoop=1;jettySize=auto;html=1;exitX=0.5;exitY=0;exitDx=0;exitDy=0;exitPerimeter=0;endArrow=none;endFill=0;" parent="1" edge="1">
          <mxGeometry relative="1" as="geometry">
            <mxPoint x="2440" y="1109" as="sourcePoint" />
            <mxPoint x="2440" y="980" as="targetPoint" />
          </mxGeometry>
        </mxCell>
        <mxCell id="ZFgZAANVJCpxepYmrR5U-32" style="edgeStyle=none;rounded=0;orthogonalLoop=1;jettySize=auto;html=1;exitX=0.5;exitY=0;exitDx=0;exitDy=0;exitPerimeter=0;endArrow=none;endFill=0;" parent="1" edge="1">
          <mxGeometry relative="1" as="geometry">
            <mxPoint x="2460" y="1109" as="sourcePoint" />
            <mxPoint x="2460" y="980" as="targetPoint" />
          </mxGeometry>
        </mxCell>
        <mxCell id="ZFgZAANVJCpxepYmrR5U-33" style="edgeStyle=none;rounded=0;orthogonalLoop=1;jettySize=auto;html=1;exitX=0.5;exitY=0;exitDx=0;exitDy=0;exitPerimeter=0;endArrow=none;endFill=0;" parent="1" edge="1">
          <mxGeometry relative="1" as="geometry">
            <mxPoint x="2620" y="1109" as="sourcePoint" />
            <mxPoint x="2620" y="980" as="targetPoint" />
          </mxGeometry>
        </mxCell>
        <mxCell id="ZFgZAANVJCpxepYmrR5U-34" style="edgeStyle=none;rounded=0;orthogonalLoop=1;jettySize=auto;html=1;exitX=0.5;exitY=0;exitDx=0;exitDy=0;exitPerimeter=0;endArrow=none;endFill=0;" parent="1" edge="1">
          <mxGeometry relative="1" as="geometry">
            <mxPoint x="2602.83" y="1109" as="sourcePoint" />
            <mxPoint x="2602.83" y="980" as="targetPoint" />
          </mxGeometry>
        </mxCell>
        <mxCell id="ZFgZAANVJCpxepYmrR5U-35" style="edgeStyle=none;rounded=0;orthogonalLoop=1;jettySize=auto;html=1;exitX=0.5;exitY=0;exitDx=0;exitDy=0;exitPerimeter=0;endArrow=none;endFill=0;" parent="1" edge="1">
          <mxGeometry relative="1" as="geometry">
            <mxPoint x="2529.67" y="1109" as="sourcePoint" />
            <mxPoint x="2529.67" y="980" as="targetPoint" />
          </mxGeometry>
        </mxCell>
        <mxCell id="3U3AbJrNhwpyRPHoVkgr-90" value="&lt;h4&gt;&lt;font color=&quot;#490303&quot; style=&quot;font-size: 19px;&quot;&gt;@ internet&lt;/font&gt;&lt;/h4&gt;" style="html=1;outlineConnect=0;fillColor=#CCCCCC;strokeColor=#6881B3;gradientColor=none;gradientDirection=north;strokeWidth=2;shape=mxgraph.networks.cloud;fontColor=#ffffff;verticalAlign=bottom;" parent="1" vertex="1">
          <mxGeometry x="2250" y="510.5" width="560" height="310" as="geometry" />
        </mxCell>
        <mxCell id="3U3AbJrNhwpyRPHoVkgr-92" value="&lt;b&gt;&lt;i&gt;WWW&lt;/i&gt;&lt;br&gt;&lt;/b&gt;" style="dashed=0;outlineConnect=0;html=1;align=center;labelPosition=center;verticalLabelPosition=bottom;verticalAlign=top;shape=mxgraph.weblogos.apache" parent="1" vertex="1">
          <mxGeometry x="2809.64" y="1510" width="42.6" height="64.12" as="geometry" />
        </mxCell>
        <mxCell id="3U3AbJrNhwpyRPHoVkgr-97" value="" style="group" parent="1" vertex="1" connectable="0">
          <mxGeometry x="2200" y="1490.26" width="529.5" height="300" as="geometry" />
        </mxCell>
        <mxCell id="3U3AbJrNhwpyRPHoVkgr-62" value="" style="fontColor=#0066CC;verticalAlign=top;verticalLabelPosition=bottom;labelPosition=center;align=center;html=1;outlineConnect=0;fillColor=#CCCCCC;strokeColor=#6881B3;gradientColor=none;gradientDirection=north;strokeWidth=2;shape=mxgraph.networks.pc;" parent="3U3AbJrNhwpyRPHoVkgr-97" vertex="1">
          <mxGeometry x="-50" y="4.64" width="70" height="47.2275" as="geometry" />
        </mxCell>
        <mxCell id="3U3AbJrNhwpyRPHoVkgr-63" value="" style="fontColor=#0066CC;verticalAlign=top;verticalLabelPosition=bottom;labelPosition=center;align=center;html=1;outlineConnect=0;fillColor=#CCCCCC;strokeColor=#6881B3;gradientColor=none;gradientDirection=north;strokeWidth=2;shape=mxgraph.networks.pc;" parent="3U3AbJrNhwpyRPHoVkgr-97" vertex="1">
          <mxGeometry x="-50" y="78.85464285714286" width="70" height="47.2275" as="geometry" />
        </mxCell>
        <mxCell id="3U3AbJrNhwpyRPHoVkgr-64" value="" style="fontColor=#0066CC;verticalAlign=top;verticalLabelPosition=bottom;labelPosition=center;align=center;html=1;outlineConnect=0;fillColor=#CCCCCC;strokeColor=#6881B3;gradientColor=none;gradientDirection=north;strokeWidth=2;shape=mxgraph.networks.pc;" parent="3U3AbJrNhwpyRPHoVkgr-97" vertex="1">
          <mxGeometry x="-50" y="146.3225" width="70" height="47.2275" as="geometry" />
        </mxCell>
        <mxCell id="ZFgZAANVJCpxepYmrR5U-22" value="&lt;span style=&quot;font-family: Helvetica; font-size: 20px; font-style: normal; font-variant-ligatures: normal; font-variant-caps: normal; font-weight: 700; letter-spacing: normal; orphans: 2; text-align: left; text-indent: 0px; text-transform: none; widows: 2; word-spacing: 0px; -webkit-text-stroke-width: 0px; background-color: rgb(251, 251, 251); text-decoration-thickness: initial; text-decoration-style: initial; text-decoration-color: initial; float: none; display: inline !important;&quot;&gt;LAN INTERNA&lt;/span&gt;&lt;br style=&quot;border-color: var(--border-color); font-family: Helvetica; font-size: 20px; font-style: normal; font-variant-ligatures: normal; font-variant-caps: normal; font-weight: 700; letter-spacing: normal; orphans: 2; text-align: left; text-indent: 0px; text-transform: none; widows: 2; word-spacing: 0px; -webkit-text-stroke-width: 0px; background-color: rgb(251, 251, 251); text-decoration-thickness: initial; text-decoration-style: initial; text-decoration-color: initial;&quot;&gt;&lt;span style=&quot;font-family: Helvetica; font-size: 20px; font-style: normal; font-variant-ligatures: normal; font-variant-caps: normal; font-weight: 700; letter-spacing: normal; orphans: 2; text-align: left; text-indent: 0px; text-transform: none; widows: 2; word-spacing: 0px; -webkit-text-stroke-width: 0px; background-color: rgb(251, 251, 251); text-decoration-thickness: initial; text-decoration-style: initial; text-decoration-color: initial; float: none; display: inline !important;&quot;&gt;&amp;nbsp; VLAN 20&lt;/span&gt;" style="text;whiteSpace=wrap;html=1;fontColor=#7a59d4;" parent="3U3AbJrNhwpyRPHoVkgr-97" vertex="1">
          <mxGeometry x="-100" y="224.64" width="170" height="70" as="geometry" />
        </mxCell>
        <mxCell id="ZFgZAANVJCpxepYmrR5U-23" value="&lt;span style=&quot;font-family: Helvetica; font-size: 20px; font-style: normal; font-variant-ligatures: normal; font-variant-caps: normal; font-weight: 700; letter-spacing: normal; orphans: 2; text-align: left; text-indent: 0px; text-transform: none; widows: 2; word-spacing: 0px; -webkit-text-stroke-width: 0px; background-color: rgb(251, 251, 251); text-decoration-thickness: initial; text-decoration-style: initial; text-decoration-color: initial; float: none; display: inline !important;&quot;&gt;LAN ADMON&lt;/span&gt;&lt;br style=&quot;border-color: var(--border-color); font-family: Helvetica; font-size: 20px; font-style: normal; font-variant-ligatures: normal; font-variant-caps: normal; font-weight: 700; letter-spacing: normal; orphans: 2; text-align: left; text-indent: 0px; text-transform: none; widows: 2; word-spacing: 0px; -webkit-text-stroke-width: 0px; background-color: rgb(251, 251, 251); text-decoration-thickness: initial; text-decoration-style: initial; text-decoration-color: initial;&quot;&gt;&lt;span style=&quot;font-family: Helvetica; font-size: 20px; font-style: normal; font-variant-ligatures: normal; font-variant-caps: normal; font-weight: 700; letter-spacing: normal; orphans: 2; text-align: left; text-indent: 0px; text-transform: none; widows: 2; word-spacing: 0px; -webkit-text-stroke-width: 0px; background-color: rgb(251, 251, 251); text-decoration-thickness: initial; text-decoration-style: initial; text-decoration-color: initial; float: none; display: inline !important;&quot;&gt;&amp;nbsp; VLAN 222&lt;/span&gt;" style="text;whiteSpace=wrap;html=1;fontColor=#7a59d4;" parent="3U3AbJrNhwpyRPHoVkgr-97" vertex="1">
          <mxGeometry x="90" y="224.64" width="160" height="70" as="geometry" />
        </mxCell>
        <mxCell id="ZFgZAANVJCpxepYmrR5U-7" value="" style="shape=mxgraph.cisco.computers_and_peripherals.pc;html=1;pointerEvents=1;dashed=0;fillColor=#036897;strokeColor=#ffffff;strokeWidth=2;verticalLabelPosition=bottom;verticalAlign=top;align=center;outlineConnect=0;" parent="3U3AbJrNhwpyRPHoVkgr-97" vertex="1">
          <mxGeometry x="130" y="13.199999999999973" width="78" height="70" as="geometry" />
        </mxCell>
        <mxCell id="ZFgZAANVJCpxepYmrR5U-8" value="" style="shape=mxgraph.cisco.computers_and_peripherals.pc;html=1;pointerEvents=1;dashed=0;fillColor=#036897;strokeColor=#ffffff;strokeWidth=2;verticalLabelPosition=bottom;verticalAlign=top;align=center;outlineConnect=0;" parent="3U3AbJrNhwpyRPHoVkgr-97" vertex="1">
          <mxGeometry x="130" y="94.64000000000003" width="78" height="70" as="geometry" />
        </mxCell>
        <mxCell id="3U3AbJrNhwpyRPHoVkgr-42" value="" style="shape=mxgraph.cisco.people.androgenous_person;sketch=0;html=1;pointerEvents=1;dashed=0;fillColor=#036897;strokeColor=#ffffff;strokeWidth=2;verticalLabelPosition=bottom;verticalAlign=top;align=center;outlineConnect=0;" parent="3U3AbJrNhwpyRPHoVkgr-97" vertex="1">
          <mxGeometry x="450" y="109.00000000000001" width="69" height="82" as="geometry" />
        </mxCell>
        <mxCell id="ZFgZAANVJCpxepYmrR5U-25" value="&lt;b style=&quot;border-color: var(--border-color); font-family: Helvetica; font-size: 20px; font-style: normal; font-variant-ligatures: normal; font-variant-caps: normal; letter-spacing: normal; orphans: 2; text-align: center; text-indent: 0px; text-transform: none; widows: 2; word-spacing: 0px; -webkit-text-stroke-width: 0px; text-decoration-thickness: initial; text-decoration-style: initial; text-decoration-color: initial;&quot;&gt;SOC VLAN 77&lt;/b&gt;" style="text;whiteSpace=wrap;html=1;fontColor=#7a59d4;" parent="3U3AbJrNhwpyRPHoVkgr-97" vertex="1">
          <mxGeometry x="439.5" y="220" width="90" height="50" as="geometry" />
        </mxCell>
        <mxCell id="ZFgZAANVJCpxepYmrR5U-26" value="" style="shape=mxgraph.cisco.people.androgenous_person;sketch=0;html=1;pointerEvents=1;dashed=0;fillColor=#036897;strokeColor=#ffffff;strokeWidth=2;verticalLabelPosition=bottom;verticalAlign=top;align=center;outlineConnect=0;" parent="3U3AbJrNhwpyRPHoVkgr-97" vertex="1">
          <mxGeometry x="450" y="9.279999999999973" width="69" height="82" as="geometry" />
        </mxCell>
        <mxCell id="3U3AbJrNhwpyRPHoVkgr-109" value="" style="sketch=0;pointerEvents=1;shadow=0;dashed=0;html=1;strokeColor=none;fillColor=#005F4B;labelPosition=center;verticalLabelPosition=bottom;verticalAlign=top;align=center;outlineConnect=0;shape=mxgraph.veeam2.nas;movable=1;resizable=1;rotatable=1;deletable=1;editable=1;locked=0;connectable=1;" parent="1" vertex="1">
          <mxGeometry x="2804.94" y="1627.56" width="52" height="56" as="geometry" />
        </mxCell>
        <mxCell id="3U3AbJrNhwpyRPHoVkgr-87" value="" style="image;aspect=fixed;html=1;points=[];align=center;fontSize=12;image=img/lib/azure2/identity/Azure_Active_Directory.svg;" parent="1" vertex="1">
          <mxGeometry x="2290" y="709.91" width="77.66" height="71" as="geometry" />
        </mxCell>
        <mxCell id="hyf-oC7VlJ3lGErXNbn9-4" value="" style="shape=image;verticalLabelPosition=bottom;labelBackgroundColor=default;verticalAlign=top;aspect=fixed;imageAspect=0;image=data:image/svg+xml,PHN2ZyB4bWxucz0iaHR0cDovL3d3dy53My5vcmcvMjAwMC9zdmciIHZpZXdCb3g9IjAgMCAxNTAgMTUwIiBpZD0iYSI+PGRlZnM+PHN0eWxlPi5ie2ZpbGw6IzIzNmJmNTt9LmN7ZmlsbDpub25lO308L3N0eWxlPjwvZGVmcz48cGF0aCBkPSJNMCwwSDE1MFYxNTBIMFYwWiIgY2xhc3M9ImMiLz48cGF0aCBkPSJNMTQ4LjcxLDc1LjA1YzIuMzgsMTQuNjgtMTAuMzUsMjIuOTMtMjMuMjcsMjMuODktOC4yMiwxNi45LTM3LjIsMjguMy02Mi4yNiwxNi4wMS0xMC42NywxLjYyLTE2LjYzLTEuMDctMjEuMTctNi4xOSw5LjE0LTExLjgxLDM2Ljk1LTMzLjA3LDcwLjkxLTIyLjA4LDE4LjE1LDUuODUsMjIuODYtNy45MiwxOC4yOS0xMy4wOC0xNy4xMS0xOS40My01NS43NS0xLjk0LTU3LjEyLS40OCwxNS4xNy0yMy4yMyw2OS40NS0yOS43NCw3NC42MywxLjkyWiIgY2xhc3M9ImIiLz48cGF0aCBkPSJNOTYuNjksNDguMzdjLjA5LDAtMTIuMzUtNC40My0yOS43MSwzLjA4LS43MS0uMjUtMS4zOS0uNTUtMi4wNi0uODksMTYuNzItMTEuMSwzMS4zNi0xNS44MSw0My45LTEzLjk4LTcuNi04LjcyLTQ0LjA1LTE1LjE0LTY0LjkzLDUuOEMxOC4wOCwzNy4yOSwuMDEsNTkuMTcsMS4wNCw3OS4xNGMxLjAzLDE5Ljk4LDIyLjg0LDMyLjQ1LDM1LjI2LDI5LjA1LC4zLS4wNCwuNTktLjA0LC44OSwwLDIuNzgtMTMuMiwxMy45OC00My45Miw1OS41LTU5Ljgxdi0uMDJaIiBjbGFzcz0iYiIvPjwvc3ZnPg==;" parent="1" vertex="1">
          <mxGeometry x="2690.0000000000005" y="705.41" width="80" height="80" as="geometry" />
        </mxCell>
        <mxCell id="ZFgZAANVJCpxepYmrR5U-12" value="" style="image;points=[];aspect=fixed;html=1;align=center;shadow=0;dashed=0;image=img/lib/allied_telesis/computer_and_terminals/Laptop.svg;" parent="1" vertex="1">
          <mxGeometry x="2624.94" y="570.5" width="42" height="42.599999999999994" as="geometry" />
        </mxCell>
        <mxCell id="ZFgZAANVJCpxepYmrR5U-13" value="" style="image;html=1;image=img/lib/clip_art/computers/Laptop_128x128.png" parent="1" vertex="1">
          <mxGeometry x="2573.92" y="540.5" width="50" height="58.7" as="geometry" />
        </mxCell>
        <mxCell id="ZFgZAANVJCpxepYmrR5U-14" value="" style="verticalLabelPosition=bottom;sketch=0;aspect=fixed;html=1;verticalAlign=top;strokeColor=none;align=center;outlineConnect=0;shape=mxgraph.citrix.laptop_2;" parent="1" vertex="1">
          <mxGeometry x="2510" y="575.8100000000001" width="50" height="37.29" as="geometry" />
        </mxCell>
        <mxCell id="ZFgZAANVJCpxepYmrR5U-16" value="&lt;span style=&quot;color: rgb(0, 0, 0); font-family: Helvetica; font-size: 20px; font-style: normal; font-variant-ligatures: normal; font-variant-caps: normal; font-weight: 700; letter-spacing: normal; orphans: 2; text-align: left; text-indent: 0px; text-transform: none; widows: 2; word-spacing: 0px; -webkit-text-stroke-width: 0px; text-decoration-thickness: initial; text-decoration-style: initial; text-decoration-color: initial; float: none; display: inline !important;&quot;&gt;TT&lt;/span&gt;&lt;br style=&quot;border-color: var(--border-color); color: rgb(0, 0, 0); font-family: Helvetica; font-size: 20px; font-style: normal; font-variant-ligatures: normal; font-variant-caps: normal; font-weight: 700; letter-spacing: normal; orphans: 2; text-align: left; text-indent: 0px; text-transform: none; widows: 2; word-spacing: 0px; -webkit-text-stroke-width: 0px; text-decoration-thickness: initial; text-decoration-style: initial; text-decoration-color: initial;&quot;&gt;&lt;span style=&quot;color: rgb(0, 0, 0); font-family: Helvetica; font-size: 20px; font-style: normal; font-variant-ligatures: normal; font-variant-caps: normal; font-weight: 700; letter-spacing: normal; orphans: 2; text-align: left; text-indent: 0px; text-transform: none; widows: 2; word-spacing: 0px; -webkit-text-stroke-width: 0px; text-decoration-thickness: initial; text-decoration-style: initial; text-decoration-color: initial; float: none; display: inline !important;&quot;&gt;VLAN 22&lt;/span&gt;" style="text;whiteSpace=wrap;html=1;labelBackgroundColor=#cccccc;" parent="1" vertex="1">
          <mxGeometry x="2555.88" y="613.1" width="104.12" height="60" as="geometry" />
        </mxCell>
        <mxCell id="ZFgZAANVJCpxepYmrR5U-27" value="&lt;span style=&quot;font-family: Helvetica; font-size: 20px; font-style: normal; font-variant-ligatures: normal; font-variant-caps: normal; font-weight: 700; letter-spacing: normal; orphans: 2; text-align: left; text-indent: 0px; text-transform: none; widows: 2; word-spacing: 0px; -webkit-text-stroke-width: 0px; background-color: rgb(251, 251, 251); text-decoration-thickness: initial; text-decoration-style: initial; text-decoration-color: initial; float: none; display: inline !important;&quot;&gt;DMZ VLAN 235&lt;/span&gt;" style="text;whiteSpace=wrap;html=1;fontColor=#7a59d4;" parent="1" vertex="1">
          <mxGeometry x="2800" y="1710.26" width="100" height="50" as="geometry" />
        </mxCell>
        <mxCell id="3U3AbJrNhwpyRPHoVkgr-85" value="" style="shape=image;verticalLabelPosition=bottom;labelBackgroundColor=default;verticalAlign=top;aspect=fixed;imageAspect=0;image=data:image/svg+xml,PHN2ZyB4bWxuczp4bGluaz0iaHR0cDovL3d3dy53My5vcmcvMTk5OS94bGluayIgeG1sbnM9Imh0dHA6Ly93d3cudzMub3JnLzIwMDAvc3ZnIiB4bWw6c3BhY2U9InByZXNlcnZlIiBzdHlsZT0iZW5hYmxlLWJhY2tncm91bmQ6bmV3IDAgMCAxOTUgMTYzOyIgdmlld0JveD0iMCAwIDE5NSAxNjMiIHk9IjBweCIgeD0iMHB4IiBpZD0iTGF5ZXJfMl8xXyIgdmVyc2lvbj0iMS4xIj4mI3hhOzxzdHlsZSB0eXBlPSJ0ZXh0L2NzcyI+JiN4YTsJLnN0MHtmaWxsOiNGN0E4QUE7fSYjeGE7CS5zdDF7ZmlsbDojRjZBN0FBO30mI3hhOwkuc3Qye2ZpbGw6I0ZBQzZDNTt9JiN4YTsJLnN0M3tmaWxsOiNGQ0REREI7fSYjeGE7CS5zdDR7ZmlsbDojRjU5Mjk4O30mI3hhOwkuc3Q1e2ZpbGw6IzIzMUYyMDt9JiN4YTs8L3N0eWxlPiYjeGE7PGc+JiN4YTsJPGc+JiN4YTsJCTxwYXRoIGQ9Ik0xODQuNCw1My41Yy0yLjQtMy45LTkuMy01LjctMTQuNy00LjdjLTE5LjgsNC42LTQ2LjUtMS43LTUzLjctNS45Yy0wLjUsMCwxLjEtMy45LDAuMS01LjQmIzEwOyYjOTsmIzk7JiM5O2MxLjUtMSwyLTEuNiwzLjktMS4xYzMuNCwxLjUsNy42LDAuOSwxMSwwLjRjLTItMy45LTQtMTEuNS03LTE1LjljLTIuOSwyLjQtNy40LDQuMy0xMC4zLDYuM2MtNS40LTE0LjYtMjMuNy0xNy4yLTM4LjUtOC44JiMxMDsmIzk7JiM5OyYjOTtjLTAuNCwwLjItMC44LDAuMi0wLjgsMC4ycy00LTguNC01LjctMTIuM2MtNS4zLDMuMS05LjksNy40LTExLjksNy40Yy00LDAtOC44LDAtMTIuNy0wLjVjMCw2LjgsMi42LDE0LjcsMi45LDIwLjYmIzEwOyYjOTsmIzk7JiM5O2MtNS45LDUuOS0xMS43LDExLjctMTUuNiwxOS4xYy00LjMtMS05LjEtMS43LTEzLjYsMC4yYy0yLjgsMS4yLTYuMSw0LjctNSw4LjZjMC42LDIuMiwzLjQsNC41LDguOCw1LjkmIzEwOyYjOTsmIzk7JiM5O0MxMS4yLDc3LjYsNS45LDk4LjcsMTUuNCwxMDZjLTIuNCwyLjQtNS4zLDQuNy02LjIsNy45Yy0xLjEsNC4yLDEuMyw1LjcsNC4yLDYuM2M1LjQsMSw5LjMtMS43LDEzLjMtNC4xYzguNCw1LDE0LjEsNC42LDIzLjksNS4xJiMxMDsmIzk7JiM5OyYjOTtjMSwwLDMuMywyLjksMy4zLDIuOXMtNi42LTAuNy0xMCwwLjNjLTQuNiwxLjQtOC42LDUuNy01LjQsOS40YzQuNyw1LjYsMTMuOCw3LjYsMjIsNS42YzUsNS4zLDIuNywxNC01LjcsMTcuNSYjMTA7JiM5OyYjOTsmIzk7YzcuMy0wLjUsMTUuOC01LjQsMTYuNy0xNS41YzAuMi0xLjktMC45LTUtMi40LTYuNWMtMS0xLTIuMy0yLjQtMi4zLTIuNHM0LjEtNy44LTQuNC0xMi4yYzMuNC0wLjcsOS44LTMuNCw5LjgtMy40czIuNiwzLDQuOSwzLjQmIzEwOyYjOTsmIzk7JiM5O2MyLjUsMC40LDUuNC0xLDYuNC0zLjRjMS40LTMuNi0yLjktNi40LTIuOS02LjRsMy40LTUuNGMwLDAsMywyLjgsNC4zLDVjNC4yLDcsNSwxNCw4LjksMjAuOWMyLDMuNCw1LjQsNi4yLDguOCw3LjcmIzEwOyYjOTsmIzk7JiM5O2MyLjksMSw2LjEsMS4yLDkuNCwwLjZjNS41LTEsOS45LTIuOCwxMy00LjdjMjEuOC0xMywzNy4xLTMwLDUwLjQtNTQuMUMxODIuMSw3NCwxODkuMyw2MS4zLDE4NC40LDUzLjV6IE0xMjIuNCwyNC40JiMxMDsmIzk7JiM5OyYjOTtjMCwwLDEuMywyLjMsMiwzLjljMSwyLjQsMi45LDcuMSwyLjksNy4xbC0zLjktMC43bC0zLjctMi42YzAsMC0wLjUsMS45LTIuNiwzLjVjLTEtMi45LDEuMS00LjMtMS44LTcuNSYjMTA7JiM5OyYjOTsmIzk7QzExNy42LDI2LjYsMTIyLjQsMjQuNCwxMjIuNCwyNC40eiBNNjguNiwxNDEuNGMwLjksNS4yLTMuNywxMC41LTYuOSwxMi41YzIuOC00LjMsNS41LTYuMiwyLjMtMTUuMWMtMS4zLTMuNS00LjQtNi03LjYtOC4xJiMxMDsmIzk7JiM5OyYjOTtjLTEtMC43LTIuMy0xLjEtMy44LTEuNWMtMS42LTAuNC0zLjQsMC44LTQuOSwyLjNjMCwwLDQuNiwyLjMsOC42LDNjMi4zLDMtMi4zLDMuMS0yLjMsMy4xYy0wLjUsMC41LTEzLjItMS4zLTEyLjQtNy41JiMxMDsmIzk7JiM5OyYjOTtjMC4zLTIuNCw1LjEtNi45LDE0LjctMy4yQzYxLjcsMTI5LDY3LjgsMTM2LjUsNjguNiwxNDEuNHogTTYzLjIsMTIzLjFjMi40LDEuMSwyLjQsMy45LDIuNCw2LjRjMCwwLjUtMC41LDAuNS0xLDEmIzEwOyYjOTsmIzk7JiM5O2MtMS41LTIuNy00LTQtNi40LTUuOWMtMC41LTAuNC0wLjgtMC42LTAuMy0xLjFDNTkuNSwxMjIsNjEuNSwxMjIuMiw2My4yLDEyMy4xeiBNODEuMSwxMTQuN2MtMC45LDMuNC00LjEsMi44LTQuNCwxLjEmIzEwOyYjOTsmIzk7JiM5O2MtMC4zLTEuNSwxLjYtMiwyLjItMi43Qzc5LjQsMTEzLjQsODEuMiwxMTQuMiw4MS4xLDExNC43eiBNOTkuNiwxMjMuN2MtNS4zLTE1LjgtMTkuOS0zMC4zLTI3LTM0LjVjLTAuNC0wLjItMS4zLDEuMS0xLjMsMS4xJiMxMDsmIzk7JiM5OyYjOTtzNi40LDYsNy40LDEwLjRjMSwzLjktMS4yLDguMS0zLjcsMTFjLTkuOCw5LjMtMjMsNy41LTM1LjYsNi42Yy0zLjktMC4zLTkuNy0yLjktNi43LTguOGMtNC40LDMuNC0xMS4yLDkuOC0xNi4yLDcuOCYjMTA7JiM5OyYjOTsmIzk7Yy0xLTAuNC0yLjQtMi44LTEuNC01LjFjMS44LTMuOCw3LjgtOS43LDEzLTEyLjNjMC4zLTAuNS0wLjQtMS41LTIuMy0wLjZjLTIsMC45LTUuOSw0LjctNy41LDMuOWMtOC45LTQuNC0zLjItMjAuOC0wLjMtMjYuMiYjMTA7JiM5OyYjOTsmIzk7YzMuNi02LjcsOC4zLTcuOSwxMy4yLTkuNGMtNS44LTEtMTAuMy0xLjYtMTMuMi00LjZjLTEuNS0yLTAuOC0zLjUsMC43LTUuNGMxLjUtMS41LDMuMS0yLjUsNS4yLTMuMWMyLTAuNiwzLjctMC4zLDUuNiwwLjEmIzEwOyYjOTsmIzk7JiM5O2M0LjgsMSw1LjEsMy41LDcuNSwzYy0wLjUtMS4xLTMtMy40LTIuNS00LjRjMi40LTQuOSw2LjItMTAuMiwxMS42LTE0LjZjMC43LTAuNiwxLjItMC43LDIuMi0wLjdjMS41LDAuNSwwLjksMiwxLjgsMy40JiMxMDsmIzk7JiM5OyYjOTtjMS41LDIuNSw1LjUsMi40LDcuOSwwLjVjNC45LTMuOSw2LjUtMTEuMiw4LjUtMTcuMWMwLTAuNSwxLjYtMy42LTEuMS0yLjdjLTEuMyw1LjQtMy40LDkuOC02LjQsMTQuN2MtMS41LDItMy4yLDMuNy01LjYsMi44JiMxMDsmIzk7JiM5OyYjOTtjLTAuNS0wLjUtMS41LTAuOC0xLjctMi4zYy0xLTctMi40LTIwLjEtMi40LTIwLjFzNi44LDAuOSw5LjQsMC4zYzEuNS0wLjMsNC45LTQuNCw4LjMtNS44YzIuNCwzLjQsNC43LDYuNyw2LjgsMTAmIzEwOyYjOTsmIzk7JiM5O2M5LjgtNC40LDIxLjMtNy45LDMxLTAuNmMzLjQsMi45LDcuMSw2LjYsOC4yLDkuOWMwLjksMi41LDEuNCw4LjYsMC44LDEzLjJjOC4zLDQuNCwxNi41LDYuOSwyNS44LDguN2M0LjEsMC44LDcuMywxLjIsMTEuMywxLjUmIzEwOyYjOTsmIzk7JiM5O2MyLDAuMiw2LjcsMC44LDE2LTAuOGMtMTkuMSwzLjktMzQuNSwxNi4yLTQ3LjQsMzEuMWMtNi40LDcuMy0xNy44LDI1LjItMTkuMywzMS43Qzk5LjYsMTE5LDk5LjUsMTIwLjQsOTkuNiwxMjMuN3ogTTE3Ny42LDc1LjImIzEwOyYjOTsmIzk7JiM5O2MtMy4yLDkuNC0xMS40LDIxLjgtMTkuOSwzMWMtNy45LDguNi0zMC4zLDI5LjItNDYuMSwyOC4zYy03LjQtMC40LTEwLjMtOC03LjYtMTYuNWM1LTE2LjEsMjcuMy00OC44LDU1LjYtNjAuNSYjMTA7JiM5OyYjOTsmIzk7YzUuOS0yLjQsMTYuMi0zLjUsMTguNi0wLjRDMTgxLjQsNjEuNiwxNzkuNiw2OS4zLDE3Ny42LDc1LjJ6IiBjbGFzcz0ic3QwIi8+JiN4YTsJPC9nPiYjeGE7CTxnPiYjeGE7CQk8Zz4mI3hhOwkJCTxwYXRoIGQ9Ik0xODQuNCw1My41Yy0yLjQtMy45LTkuMy01LjctMTQuNy00LjdjLTE5LjgsNC42LTQ2LjUtMS43LTUzLjctNS45Yy0wLjUsMCwxLjEtMy45LDAuMS01LjQmIzEwOyYjOTsmIzk7JiM5OyYjOTtjMS41LTEsMi0xLjYsMy45LTEuMWMzLjQsMS41LDcuNiwwLjksMTEsMC40Yy0yLTMuOS00LTExLjUtNy0xNS45Yy0yLjksMi40LTcuNCw0LjMtMTAuMyw2LjNjLTUuNC0xNC42LTIzLjctMTcuMi0zOC41LTguOCYjMTA7JiM5OyYjOTsmIzk7JiM5O2MtMC40LDAuMi0wLjgsMC4yLTAuOCwwLjJzLTQtOC40LTUuNy0xMi4zYy01LjMsMy4xLTkuOSw3LjQtMTEuOSw3LjRjLTQsMC04LjgsMC0xMi43LTAuNWMwLDYuOCwyLjYsMTQuNywyLjksMjAuNiYjMTA7JiM5OyYjOTsmIzk7JiM5O2MtNS45LDUuOS0xMS43LDExLjctMTUuNiwxOS4xYy00LjMtMS05LjEtMS43LTEzLjYsMC4yYy0yLjgsMS4yLTYuMSw0LjctNSw4LjZjMC42LDIuMiwzLjQsNC41LDguOCw1LjkmIzEwOyYjOTsmIzk7JiM5OyYjOTtDMTEuMiw3Ny42LDUuOSw5OC43LDE1LjQsMTA2Yy0yLjQsMi40LTUuMyw0LjctNi4yLDcuOWMtMS4xLDQuMiwxLjMsNS43LDQuMiw2LjNjNS40LDEsOS4zLTEuNywxMy4zLTQuMSYjMTA7JiM5OyYjOTsmIzk7JiM5O2M4LjQsNSwxNC4xLDQuNiwyMy45LDUuMWMxLDAsMy4zLDIuOSwzLjMsMi45cy02LjYtMC43LTEwLDAuM2MtNC42LDEuNC04LjYsNS43LTUuNCw5LjRjNC43LDUuNiwxMy44LDcuNiwyMiw1LjYmIzEwOyYjOTsmIzk7JiM5OyYjOTtjNSw1LjMsMi43LDE0LTUuNywxNy41YzcuMy0wLjUsMTUuOC01LjQsMTYuNy0xNS41YzAuMi0xLjktMC45LTUtMi40LTYuNWMtMS0xLTIuMy0yLjQtMi4zLTIuNHM0LjEtNy44LTQuNC0xMi4yJiMxMDsmIzk7JiM5OyYjOTsmIzk7YzMuNC0wLjcsOS44LTMuNCw5LjgtMy40czIuNiwzLDQuOSwzLjRjMi41LDAuNCw1LjQtMSw2LjQtMy40YzEuNC0zLjYtMi45LTYuNC0yLjktNi40bDMuNC01LjRjMCwwLDMsMi44LDQuMyw1JiMxMDsmIzk7JiM5OyYjOTsmIzk7YzQuMiw3LDUsMTQsOC45LDIwLjljMiwzLjQsNS40LDYuMiw4LjgsNy43YzIuOSwxLDYuMSwxLjIsOS40LDAuNmM1LjUtMSw5LjktMi44LDEzLTQuN2MyMS44LTEzLDM3LjEtMzAsNTAuNC01NC4xJiMxMDsmIzk7JiM5OyYjOTsmIzk7QzE4Mi4xLDc0LDE4OS4zLDYxLjMsMTg0LjQsNTMuNXogTTEyMi40LDI0LjRjMCwwLDEuMywyLjMsMiwzLjljMSwyLjQsMi45LDcuMSwyLjksNy4xbC0zLjktMC43bC0zLjctMi42YzAsMC0wLjUsMS45LTIuNiwzLjUmIzEwOyYjOTsmIzk7JiM5OyYjOTtjLTEtMi45LDEuMS00LjMtMS44LTcuNUMxMTcuNiwyNi42LDEyMi40LDI0LjQsMTIyLjQsMjQuNHogTTY4LjYsMTQxLjRjMC45LDUuMi0zLjcsMTAuNS02LjksMTIuNWMyLjgtNC4zLDUuNS02LjIsMi4zLTE1LjEmIzEwOyYjOTsmIzk7JiM5OyYjOTtjLTEuMy0zLjUtNC40LTYtNy42LTguMWMtMS0wLjctMi4zLTEuMS0zLjgtMS41Yy0xLjYtMC40LTMuNCwwLjgtNC45LDIuM2MwLDAsNC42LDIuMyw4LjYsM2MyLjMsMy0yLjMsMy4xLTIuMywzLjEmIzEwOyYjOTsmIzk7JiM5OyYjOTtjLTAuNSwwLjUtMTMuMi0xLjMtMTIuNC03LjVjMC4zLTIuNCw1LjEtNi45LDE0LjctMy4yQzYxLjcsMTI5LDY3LjgsMTM2LjUsNjguNiwxNDEuNHogTTYzLjIsMTIzLjFjMi40LDEuMSwyLjQsMy45LDIuNCw2LjQmIzEwOyYjOTsmIzk7JiM5OyYjOTtjMCwwLjUtMC41LDAuNS0xLDFjLTEuNS0yLjctNC00LTYuNC01LjljLTAuNS0wLjQtMC44LTAuNi0wLjMtMS4xQzU5LjUsMTIyLDYxLjUsMTIyLjIsNjMuMiwxMjMuMXogTTgxLjEsMTE0LjcmIzEwOyYjOTsmIzk7JiM5OyYjOTtjLTAuOSwzLjQtNC4xLDIuOC00LjQsMS4xYy0wLjMtMS41LDEuNi0yLDIuMi0yLjdDNzkuNCwxMTMuNCw4MS4yLDExNC4yLDgxLjEsMTE0Ljd6IE05OS42LDEyMy43Yy01LjMtMTUuOC0xOS45LTMwLjMtMjctMzQuNSYjMTA7JiM5OyYjOTsmIzk7JiM5O2MtMC40LTAuMi0xLjMsMS4xLTEuMywxLjFzNi40LDYsNy40LDEwLjRjMSwzLjktMS4yLDguMS0zLjcsMTFjLTkuOCw5LjMtMjMsNy41LTM1LjYsNi42Yy0zLjktMC4zLTkuNy0yLjktNi43LTguOCYjMTA7JiM5OyYjOTsmIzk7JiM5O2MtNC40LDMuNC0xMS4yLDkuOC0xNi4yLDcuOGMtMS0wLjQtMi40LTIuOC0xLjQtNS4xYzEuOC0zLjgsNy44LTkuNywxMy0xMi4zYzAuMy0wLjUtMC40LTEuNS0yLjMtMC42Yy0yLDAuOS01LjksNC43LTcuNSwzLjkmIzEwOyYjOTsmIzk7JiM5OyYjOTtjLTguOS00LjQtMy4yLTIwLjgtMC4zLTI2LjJjMy42LTYuNyw4LjMtNy45LDEzLjItOS40Yy01LjgtMS0xMC4zLTEuNi0xMy4yLTQuNmMtMS41LTItMC44LTMuNSwwLjctNS40YzEuNS0xLjUsMy4xLTIuNSw1LjItMy4xJiMxMDsmIzk7JiM5OyYjOTsmIzk7YzItMC42LDMuNy0wLjMsNS42LDAuMWM0LjgsMSw1LjEsMy41LDcuNSwzYy0wLjUtMS4xLTMtMy40LTIuNS00LjRjMi40LTQuOSw2LjItMTAuMiwxMS42LTE0LjZjMC43LTAuNiwxLjItMC43LDIuMi0wLjcmIzEwOyYjOTsmIzk7JiM5OyYjOTtjMS41LDAuNSwwLjksMiwxLjgsMy40YzEuNSwyLjUsNS41LDIuNCw3LjksMC41YzQuOS0zLjksNi41LTExLjIsOC41LTE3LjFjMC0wLjUsMS42LTMuNi0xLjEtMi43Yy0xLjMsNS40LTMuNCw5LjgtNi40LDE0LjcmIzEwOyYjOTsmIzk7JiM5OyYjOTtjLTEuNSwyLTMuMiwzLjctNS42LDIuOGMtMC41LTAuNS0xLjUtMC44LTEuNy0yLjNjLTEtNy0yLjQtMjAuMS0yLjQtMjAuMXM2LjgsMC45LDkuNCwwLjNjMS41LTAuMyw0LjktNC40LDguMy01LjgmIzEwOyYjOTsmIzk7JiM5OyYjOTtjMi40LDMuNCw0LjcsNi43LDYuOCwxMGM5LjgtNC40LDIxLjMtNy45LDMxLTAuNmMzLjQsMi45LDcuMSw2LjYsOC4yLDkuOWMwLjksMi41LDEuNCw4LjYsMC44LDEzLjJjOC4zLDQuNCwxNi41LDYuOSwyNS44LDguNyYjMTA7JiM5OyYjOTsmIzk7JiM5O2M0LjEsMC44LDcuMywxLjIsMTEuMywxLjVjMiwwLjIsNi43LDAuOCwxNi0wLjhjLTE5LjEsMy45LTM0LjUsMTYuMi00Ny40LDMxLjFjLTYuNCw3LjMtMTcuOCwyNS4yLTE5LjMsMzEuNyYjMTA7JiM5OyYjOTsmIzk7JiM5O0M5OS42LDExOSw5OS41LDEyMC40LDk5LjYsMTIzLjd6IE0xNzcuNiw3NS4yYy0zLjIsOS40LTExLjQsMjEuOC0xOS45LDMxYy03LjksOC42LTMwLjMsMjkuMi00Ni4xLDI4LjMmIzEwOyYjOTsmIzk7JiM5OyYjOTtjLTcuNC0wLjQtMTAuMy04LTcuNi0xNi41YzUtMTYuMSwyNy4zLTQ4LjgsNTUuNi02MC41YzUuOS0yLjQsMTYuMi0zLjUsMTguNi0wLjRDMTgxLjQsNjEuNiwxNzkuNiw2OS4zLDE3Ny42LDc1LjJ6IiBjbGFzcz0ic3QwIi8+JiN4YTsJCTwvZz4mI3hhOwkJPHBhdGggZD0iTTE4NC40LDUzLjVjLTIuNC0zLjktOS4zLTUuNy0xNC43LTQuN2MtMTkuOCw0LjYtNDYuNS0xLjctNTMuNy01LjljLTAuNSwwLDEuMS0zLjksMC4xLTUuNCYjMTA7JiM5OyYjOTsmIzk7YzEuNS0xLDItMS42LDMuOS0xLjFjMy40LDEuNSw3LjYsMC45LDExLDAuNGMtMi0zLjktNC0xMS41LTctMTUuOWMtMi45LDIuNC03LjQsNC4zLTEwLjMsNi4zYy01LjQtMTQuNi0yMy43LTE3LjItMzguNS04LjgmIzEwOyYjOTsmIzk7JiM5O2MtMC40LDAuMi0wLjgsMC4yLTAuOCwwLjJzLTQtOC40LTUuNy0xMi4zYy01LjMsMy4xLTkuOSw3LjQtMTEuOSw3LjRjLTQsMC04LjgsMC0xMi43LTAuNWMwLDYuOCwyLjYsMTQuNywyLjksMjAuNiYjMTA7JiM5OyYjOTsmIzk7Yy01LjksNS45LTExLjcsMTEuNy0xNS42LDE5LjFjLTQuMy0xLTkuMS0xLjctMTMuNiwwLjJjLTIuOCwxLjItNi4xLDQuNy01LDguNmMwLjYsMi4yLDMuNCw0LjUsOC44LDUuOSYjMTA7JiM5OyYjOTsmIzk7QzExLjIsNzcuNiw1LjksOTguNywxNS40LDEwNmMtMi40LDIuNC01LjMsNC43LTYuMiw3LjljLTEuMSw0LjIsMS4zLDUuNyw0LjIsNi4zYzUuNCwxLDkuMy0xLjcsMTMuMy00LjFjOC40LDUsMTQuMSw0LjYsMjMuOSw1LjEmIzEwOyYjOTsmIzk7JiM5O2MxLDAsMy4zLDIuOSwzLjMsMi45cy02LjYtMC43LTEwLDAuM2MtNC42LDEuNC04LjYsNS43LTUuNCw5LjRjNC43LDUuNiwxMy44LDcuNiwyMiw1LjZjNSw1LjMsMi43LDE0LTUuNywxNy41JiMxMDsmIzk7JiM5OyYjOTtjNy4zLTAuNSwxNS44LTUuNCwxNi43LTE1LjVjMC4yLTEuOS0wLjktNS0yLjQtNi41Yy0xLTEtMi4zLTIuNC0yLjMtMi40czQuMS03LjgtNC40LTEyLjJjMy40LTAuNyw5LjgtMy40LDkuOC0zLjRzMi42LDMsNC45LDMuNCYjMTA7JiM5OyYjOTsmIzk7YzIuNSwwLjQsNS40LTEsNi40LTMuNGMxLjQtMy42LTIuOS02LjQtMi45LTYuNGwzLjQtNS40YzAsMCwzLDIuOCw0LjMsNWM0LjIsNyw1LDE0LDguOSwyMC45YzIsMy40LDUuNCw2LjIsOC44LDcuNyYjMTA7JiM5OyYjOTsmIzk7YzIuOSwxLDYuMSwxLjIsOS40LDAuNmM1LjUtMSw5LjktMi44LDEzLTQuN2MyMS44LTEzLDM3LjEtMzAsNTAuNC01NC4xQzE4Mi4xLDc0LDE4OS4zLDYxLjMsMTg0LjQsNTMuNXogTTE3Ny42LDc1LjImIzEwOyYjOTsmIzk7JiM5O2MtMy4yLDkuNC0xMS40LDIxLjgtMTkuOSwzMWMtNy45LDguNi0zMC4zLDI5LjItNDYuMSwyOC4zYy03LjQtMC40LTEwLjMtOC03LjYtMTYuNWM1LTE2LjEsMjcuMy00OC44LDU1LjYtNjAuNSYjMTA7JiM5OyYjOTsmIzk7YzUuOS0yLjQsMTYuMi0zLjUsMTguNi0wLjRDMTgxLjQsNjEuNiwxNzkuNiw2OS4zLDE3Ny42LDc1LjJ6IiBjbGFzcz0ic3QxIi8+JiN4YTsJCTxwYXRoIGQ9Ik0xMDUuNCwxMzQuNmM3LjQsOC4xLDMyLjYtMy4xLDUyLjItMjYuM2MxOS40LTIzLDI4LjktNDYuOSwyMy4zLTUzLjZjLTQuOS01LjktMzQuOCwxLjktNTYuMiwyNi40JiMxMDsmIzk7JiM5OyYjOTtDMTA0LjksMTA0LjEsOTUuNywxMjQsMTA1LjQsMTM0LjZ6IiBjbGFzcz0ic3QyIi8+JiN4YTsJCTxnPiYjeGE7CQkJPHBhdGggZD0iTTg3LjcsMzZjLTEuMS0yLjktMS44LTguNCwwLjYtOS40YzEuNy0wLjIsMi44LDAuMywzLjctMC42YzAuOC0wLjksMS4yLTIuNSwzLjEtMy4zJiMxMDsmIzk7JiM5OyYjOTsmIzk7YzUuOS0yLjUsMTIuNywxLDE1LjEsNi40YzIuNCw1LjQsMi40LDEzLTMsMTUuNEMxMDAuMyw0Ny42LDkwLjYsNDMuNCw4Ny43LDM2eiIgY2xhc3M9InN0MyIvPiYjeGE7CQkJPHBhdGggZD0iTTE3MS4zLDYwLjJjMC0xLjUtMC44LTMuMiwxLjEtNC4yYzIuNC0wLjUsNS4xLDAuNyw1LjksMi41YzYuMywxMi45LTkuOSwzNC45LTIwLDQ3JiMxMDsmIzk7JiM5OyYjOTsmIzk7Yy04LjksMTAuNy0yMS43LDIwLjYtMzUuNCwyN2MtNS40LDItMTIuNiw0LjUtMTctMC40YzIuOS01LjQsMTAuMy0xLjgsMTUuMS0zLjljMS45LTAuOCw4LjQtNS45LDEyLjItOS41JiMxMDsmIzk7JiM5OyYjOTsmIzk7Yy0xLDIsMTUuOC0xMC45LDIzLjEtMjEuMmM1LjQtNi44LDEwLjMtMTMuNCwxMy44LTIwLjdjMS0yLDMuNy0xLjIsNC42LTMuMmMwLTAuNSwxLjEtMS42LDAuMS0xLjZjLTIuNCwwLTMuNSwxLjUtNS41LDIuNyYjMTA7JiM5OyYjOTsmIzk7JiM5O2MwLTIsMi4zLTMuMywzLjctNS45Yy0wLjUsMC41LTEuMS0xLjUsMC4xLTRDMTczLDYyLjgsMTcxLjMsNjMuMiwxNzEuMyw2MC4yeiIgY2xhc3M9InN0MyIvPiYjeGE7CQkJPHBhdGggZD0iTTE0Ny42LDc0LjNjLTExLjcsMTAuMS0yMi42LDI0LjktMzAuMSwzOS4yYy0zLjMsNi40LTMuMywxMy41LTMuMywxMy4xYy0zLjktNi40LDEtMTcuMSwzLjItMjAuNiYjMTA7JiM5OyYjOTsmIzk7JiM5O2MxMS42LTE4LjMsMjguMy00MS41LDQ4LjctNDIuMkMxNTkuOCw2NS4yLDE1Mi40LDcwLjIsMTQ3LjYsNzQuM3oiIGNsYXNzPSJzdDMiLz4mI3hhOwkJPC9nPiYjeGE7CQk8cGF0aCBkPSJNMzQuNSwxMDZjNC45LTQuOSwxMC4zLTMuMiwxMS41LTIuMmMxLjIsMSwzLjUsNi4yLDUuNCw2LjljMS45LDAuNyw3LjgsMy43LDE0LjYsMC43YzYuOC0zLjEsOS40LTYsOS42LTkuNCYjMTA7JiM5OyYjOTsmIzk7YzAuMS0zLjUsMS4yLTMuMi0yLjktNi44Yy00LjItMy42LTQuNC0yLjktNi43LTQuN2MtMi4yLTEuOC0yLjQtMy45LTAuNy02LjJjMS43LTIuNCw2LjItMS44LDkuNywwLjNjMy41LDIuMSwxMCw3LjEsMTAuOCw3LjgmIzEwOyYjOTsmIzk7JiM5O2MwLjgsMC43LDkuNyw4LjIsMTIuMiw4LjJzMy4xLDAuMyw1LjUtMS40czEuOC0wLjcsNS0yLjljMy4yLTIuMiw0LjYtMy4zLDQuNi0zLjNsLTYuNSwxMi45bC01LjEsMTMuOWwtMS43LDUuOGwtNS44LTguMyYjMTA7JiM5OyYjOTsmIzk7bC0yLjgtNi43bC01LTQuMmwtMy4yLTMuMmwtMi44LDMuMWwtNC4zLDcuMUw1OC41LDEyMGwtMTIuMS0wLjNsLTEwLjUtMWwtNS43LTQuNyIgY2xhc3M9InN0NCIvPiYjeGE7CQk8cGF0aCBkPSJNNDAuOSw3MC42YzEuNCw2LjUtMTQsNi40LTEyLjMsMTUuOWMwLjYsMy43LDMuMywxLjcsNC43LDMuNWMxLjUsMS44LDEuOCwzLjcsMC45LDUuNCYjMTA7JiM5OyYjOTsmIzk7Yy0wLjgsMS43LTIuMiwzLTMuMywzLjNjLTIsMC41LTEuNy0wLjQtMy4zLDAuM2MtMS43LDAuNy0yLjUsMS43LTIuNSwxLjdsLTQuNywzLjFsLTIuMSwxLjVsLTQuMy0zLjJsLTIuMS01LjFsMC44LTEwbDIuMi03LjYmIzEwOyYjOTsmIzk7JiM5O2w0LTYuOWwzLjktMy43bDUuMy0wLjdjMCwwLDIuMy0wLjQsNS40LTAuNEMzOC4xLDY3LjUsNDAuNCw2OC40LDQwLjksNzAuNnoiIGNsYXNzPSJzdDQiLz4mI3hhOwkJPHBhdGggZD0iTTM1LjEsNTUuN2wxMS4zLDEwLjVjMCwwLDEuOCwxLjksMy44LDIuMnM0LDAuOCw1LjctMi45YzEuNy0zLjcsMS40LTUuOSwxLjUtNy43cy0wLjEtNS4yLDAuMi03LjYmIzEwOyYjOTsmIzk7JiM5O2MwLjItMi40LDEuMy00LjUsMi43LTUuNmMxLjQtMS4xLDEuNi0yLjUsNC42LTQuNWMyLjktMiwzLjctMi44LDQuOS00LjNjMS4xLTEuNSwxLjQtNS44LDEuMi02LjhzMC4xLTQuNi0wLjItNS42JiMxMDsmIzk7JiM5OyYjOTtjLTAuMy0xLTAuNy0yLjUtMS42LTIuN2MtMC45LTAuMi0xLjEsMC0xLjUsMS4xYy0wLjQsMS4xLTEuNiwzLjItMS42LDMuMkw2NSwyNi43bC0yLDMuNWwtMS45LDMuOWwtMC43LDEuNkw1Ny43LDM5bC0yLjQsMS41JiMxMDsmIzk7JiM5OyYjOTtsLTIuNSwwLjVsLTIuNy00LjJsLTIuNC0wLjZsLTIuNCwxbC01LjYsNi4zbC02LjQsOC4ybDAuMywyLjQiIGNsYXNzPSJzdDQiLz4mI3hhOwkJPGc+JiN4YTsJCQk8cGF0aCBkPSJNNjQuNSwxMDMuN2MxLjktMC4yLDMuNC0yLjksNC4zLTQuMUM2Ny4xLDk4LjQsNjMuNSwxMDEuMiw2NC41LDEwMy43eiIgY2xhc3M9InN0NSIvPiYjeGE7CQkJPHBhdGggZD0iTTE1MS43LDkwLjhjLTcuNiw5LjktMTkuNCwyNC40LTE5LjEsMzMuM2MxLjctNy41LDEwLTkuMywyMS43LTI0LjhjNi4yLTguMSw4LjQtOS42LDE2LjQtMjMuNyYjMTA7JiM5OyYjOTsmIzk7JiM5O2MwLjMtMC40LDUuMy0yLDQuMS0zLjVDMTY1LjEsNzUuNiwxNTUuOCw4NS42LDE1MS43LDkwLjh6IiBjbGFzcz0ic3Q1Ii8+JiN4YTsJCQk8cGF0aCBkPSJNMTg0LjQsNTMuNWMtMi40LTMuOS05LjMtNS43LTE0LjctNC43Yy0xOS44LDQuNi00Ni41LTEuNy01My43LTUuOWMtMC41LDAsMS4xLTMuOSwwLjEtNS40JiMxMDsmIzk7JiM5OyYjOTsmIzk7YzEuNS0xLDItMS42LDMuOS0xLjFjMy40LDEuNSw3LjYsMC45LDExLDAuNGMtMi0zLjktNC0xMS41LTctMTUuOWMtMi45LDIuNC03LjQsNC4zLTEwLjMsNi4zYy01LjQtMTQuNi0yMy43LTE3LjItMzguNS04LjgmIzEwOyYjOTsmIzk7JiM5OyYjOTtjLTAuNCwwLjItMC44LDAuMi0wLjgsMC4ycy00LTguNC01LjctMTIuM2MtNS4zLDMuMS05LjksNy40LTExLjksNy40Yy00LDAtOC44LDAtMTIuNy0wLjVjMCw2LjgsMi42LDE0LjcsMi45LDIwLjYmIzEwOyYjOTsmIzk7JiM5OyYjOTtjLTUuOSw1LjktMTEuNywxMS43LTE1LjYsMTkuMWMtNC4zLTEtOS4xLTEuNy0xMy42LDAuMmMtMi44LDEuMi02LjEsNC43LTUsOC42YzAuNiwyLjIsMy40LDQuNSw4LjgsNS45JiMxMDsmIzk7JiM5OyYjOTsmIzk7QzExLjIsNzcuNiw1LjksOTguNywxNS40LDEwNmMtMi40LDIuNC01LjMsNC43LTYuMiw3LjljLTEuMSw0LjIsMS4zLDUuNyw0LjIsNi4zYzUuNCwxLDkuMy0xLjcsMTMuMy00LjEmIzEwOyYjOTsmIzk7JiM5OyYjOTtjOC40LDUsMTQuMSw0LjYsMjMuOSw1LjFjMSwwLDMuMywyLjksMy4zLDIuOXMtNi42LTAuNy0xMCwwLjNjLTQuNiwxLjQtOC42LDUuNy01LjQsOS40YzQuNyw1LjYsMTMuOCw3LjYsMjIsNS42JiMxMDsmIzk7JiM5OyYjOTsmIzk7YzUsNS4zLDIuNywxNC01LjcsMTcuNWM3LjMtMC41LDE1LjgtNS40LDE2LjctMTUuNWMwLjItMS45LTAuOS01LTIuNC02LjVjLTEtMS0yLjMtMi40LTIuMy0yLjRzNC4xLTcuOC00LjQtMTIuMiYjMTA7JiM5OyYjOTsmIzk7JiM5O2MzLjQtMC43LDkuOC0zLjQsOS44LTMuNHMyLjYsMyw0LjksMy40YzIuNSwwLjQsNS40LTEsNi40LTMuNGMxLjQtMy42LTIuOS02LjQtMi45LTYuNGwzLjQtNS40YzAsMCwzLDIuOCw0LjMsNSYjMTA7JiM5OyYjOTsmIzk7JiM5O2M0LjIsNyw1LDE0LDguOSwyMC45YzIsMy40LDUuNCw2LjIsOC44LDcuN2MyLjksMSw2LjEsMS4yLDkuNCwwLjZjNS41LTEsOS45LTIuOCwxMy00LjdjMjEuOC0xMywzNy4xLTMwLDUwLjQtNTQuMSYjMTA7JiM5OyYjOTsmIzk7JiM5O0MxODIuMSw3NCwxODkuMyw2MS4zLDE4NC40LDUzLjV6IE0xMjIuNCwyNC40YzAsMCwxLjMsMi4zLDIsMy45YzEsMi40LDIuOSw3LjEsMi45LDcuMWwtMy45LTAuN2wtMy43LTIuNmMwLDAtMC41LDEuOS0yLjYsMy41JiMxMDsmIzk7JiM5OyYjOTsmIzk7Yy0xLTIuOSwxLjEtNC4zLTEuOC03LjVDMTE3LjYsMjYuNiwxMjIuNCwyNC40LDEyMi40LDI0LjR6IE02OC42LDE0MS40YzAuOSw1LjItMy43LDEwLjUtNi45LDEyLjVjMi44LTQuMyw1LjUtNi4yLDIuMy0xNS4xJiMxMDsmIzk7JiM5OyYjOTsmIzk7Yy0xLjMtMy41LTQuNC02LTcuNi04LjFjLTEtMC43LTIuMy0xLjEtMy44LTEuNWMtMS42LTAuNC0zLjQsMC44LTQuOSwyLjNjMCwwLDQuNiwyLjMsOC42LDNjMi4zLDMtMi4zLDMuMS0yLjMsMy4xJiMxMDsmIzk7JiM5OyYjOTsmIzk7Yy0wLjUsMC41LTEzLjItMS4zLTEyLjQtNy41YzAuMy0yLjQsNS4xLTYuOSwxNC43LTMuMkM2MS43LDEyOSw2Ny44LDEzNi41LDY4LjYsMTQxLjR6IE02My4yLDEyMy4xYzIuNCwxLjEsMi40LDMuOSwyLjQsNi40JiMxMDsmIzk7JiM5OyYjOTsmIzk7YzAsMC41LTAuNSwwLjUtMSwxYy0xLjUtMi43LTQtNC02LjQtNS45Yy0wLjUtMC40LTAuOC0wLjYtMC4zLTEuMUM1OS41LDEyMiw2MS41LDEyMi4yLDYzLjIsMTIzLjF6IE04MS4xLDExNC43JiMxMDsmIzk7JiM5OyYjOTsmIzk7Yy0wLjksMy40LTQuMSwyLjgtNC40LDEuMWMtMC4zLTEuNSwxLjYtMiwyLjItMi43Qzc5LjQsMTEzLjQsODEuMiwxMTQuMiw4MS4xLDExNC43eiBNOTkuNiwxMjMuN2MtNS4zLTE1LjgtMTkuOS0zMC4zLTI3LTM0LjUmIzEwOyYjOTsmIzk7JiM5OyYjOTtjLTAuNC0wLjItMS4zLDEuMS0xLjMsMS4xczYuNCw2LDcuNCwxMC40YzEsMy45LTEuMiw4LjEtMy43LDExYy05LjgsOS4zLTIzLDcuNS0zNS42LDYuNmMtMy45LTAuMy05LjctMi45LTYuNy04LjgmIzEwOyYjOTsmIzk7JiM5OyYjOTtjLTQuNCwzLjQtMTEuMiw5LjgtMTYuMiw3LjhjLTEtMC40LTIuNC0yLjgtMS40LTUuMWMxLjgtMy44LDcuOC05LjcsMTMtMTIuM2MwLjMtMC41LTAuNC0xLjUtMi4zLTAuNmMtMiwwLjktNS45LDQuNy03LjUsMy45JiMxMDsmIzk7JiM5OyYjOTsmIzk7Yy04LjktNC40LTMuMi0yMC44LTAuMy0yNi4yYzMuNi02LjcsOC4zLTcuOSwxMy4yLTkuNGMtNS44LTEtMTAuMy0xLjYtMTMuMi00LjZjLTEuNS0yLTAuOC0zLjUsMC43LTUuNGMxLjUtMS41LDMuMS0yLjUsNS4yLTMuMSYjMTA7JiM5OyYjOTsmIzk7JiM5O2MyLTAuNiwzLjctMC4zLDUuNiwwLjFjNC44LDEsNS4xLDMuNSw3LjUsM2MtMC41LTEuMS0zLTMuNC0yLjUtNC40YzIuNC00LjksNi4yLTEwLjIsMTEuNi0xNC42YzAuNy0wLjYsMS4yLTAuNywyLjItMC43JiMxMDsmIzk7JiM5OyYjOTsmIzk7YzEuNSwwLjUsMC45LDIsMS44LDMuNGMxLjUsMi41LDUuNSwyLjQsNy45LDAuNWM0LjktMy45LDYuNS0xMS4yLDguNS0xNy4xYzAtMC41LDEuNi0zLjYtMS4xLTIuN2MtMS4zLDUuNC0zLjQsOS44LTYuNCwxNC43JiMxMDsmIzk7JiM5OyYjOTsmIzk7Yy0xLjUsMi0zLjIsMy43LTUuNiwyLjhjLTAuNS0wLjUtMS41LTAuOC0xLjctMi4zYy0xLTctMi40LTIwLjEtMi40LTIwLjFzNi44LDAuOSw5LjQsMC4zYzEuNS0wLjMsNC45LTQuNCw4LjMtNS44JiMxMDsmIzk7JiM5OyYjOTsmIzk7YzIuNCwzLjQsNC43LDYuNyw2LjgsMTBjOS44LTQuNCwyMS4zLTcuOSwzMS0wLjZjMy40LDIuOSw3LjEsNi42LDguMiw5LjljMC45LDIuNSwxLjQsOC42LDAuOCwxMy4yYzguMyw0LjQsMTYuNSw2LjksMjUuOCw4LjcmIzEwOyYjOTsmIzk7JiM5OyYjOTtjNC4xLDAuOCw3LjMsMS4yLDExLjMsMS41YzIsMC4yLDYuNywwLjgsMTYtMC44Yy0xOS4xLDMuOS0zNC41LDE2LjItNDcuNCwzMS4xYy02LjQsNy4zLTE3LjgsMjUuMi0xOS4zLDMxLjcmIzEwOyYjOTsmIzk7JiM5OyYjOTtDOTkuNiwxMTksOTkuNSwxMjAuNCw5OS42LDEyMy43eiBNMTc3LjYsNzUuMmMtMy4yLDkuNC0xMS40LDIxLjgtMTkuOSwzMWMtNy45LDguNi0zMC4zLDI5LjItNDYuMSwyOC4zJiMxMDsmIzk7JiM5OyYjOTsmIzk7Yy03LjQtMC40LTEwLjMtOC03LjYtMTYuNWM1LTE2LjEsMjcuMy00OC44LDU1LjYtNjAuNWM1LjktMi40LDE2LjItMy41LDE4LjYtMC40QzE4MS40LDYxLjYsMTc5LjYsNjkuMywxNzcuNiw3NS4yeiIgY2xhc3M9InN0NSIvPiYjeGE7CQkJPHBhdGggZD0iTTE1Ni4xLDc0LjdjMS4zLTIuNSwyLjgtMy41LDMuMy01LjVjMC41LTMuNCw2LjUtMS4yLDYuOC01LjdjLTEwLjIsMS42LTIzLjEsMTMuOS0zMS42LDI0LjQmIzEwOyYjOTsmIzk7JiM5OyYjOTtjLTguOCwxMC44LTIxLjMsMjYuNC0yMC4xLDM3LjhjMi05LjQsNS41LTUuNSwxOS44LTIyLjlDMTQyLjEsOTMuNCwxNTAuMSw4NS44LDE1Ni4xLDc0Ljd6IiBjbGFzcz0ic3Q1Ii8+JiN4YTsJCQk8cGF0aCBkPSJNMTA4LjEsMzMuNmMtMS42LTEuNy0yLjgsMi40LTMuNywxLjdjLTMuMS0yLjMsMS43LTEwLjQtNC4zLTExLjRjLTQuOS0wLjktOC41LDQuNy0xMS43LDcuOSYjMTA7JiM5OyYjOTsmIzk7JiM5O2MxLjUsNC44LDcuMS04LjYsMTEtNC43YzEuNiwxLjYsMS41LDUsMi4zLDYuOWMtMi44LTEtNS45LDMuMy00LjcsNi45YzAuNCwxLjEsMS43LDEuOSwyLjMsMS4zYzEuMS0wLjctMC42LTEuMy0wLjctMS42JiMxMDsmIzk7JiM5OyYjOTsmIzk7Yy0wLjctMi4zLDAuNS00LDEuMy00LjdjMS4zLTEuMSwxLjEsMC43LDAuNiwyLjNjLTAuMywxLTEuMSwxLjYtMC45LDIuM2MxLjgsMS41LDMuMS00LjYsMy4xLTQuNlMxMDYuNiwzNy41LDEwOC4xLDMzLjZ6IiBjbGFzcz0ic3Q1Ii8+JiN4YTsJCQk8cGF0aCBkPSJNMTA4LjcsMzcuMWMtMC41LDAuNS0xLjIsMC44LTEuNCwxLjhjLTAuMiwxLjEtMS4yLDIuNS0wLjcsMy42YzIuMSwxLjEsNC4zLTIuMiwzLjctNC4zJiMxMDsmIzk7JiM5OyYjOTsmIzk7QzExMC4zLDM3LjYsMTA5LjgsMzYuNSwxMDguNywzNy4xeiBNMTA5LjIsMzkuNmMtMC4xLDAuOS0wLjIsMC44LTAuNiwxLjVjLTAuNCwwLjctMC42LDAuMS0wLjctMC41Yy0wLjEtMC42LDAuMS0wLjcsMC40LTEuNyYjMTA7JiM5OyYjOTsmIzk7JiM5O2MwLjItMC44LDAuNS0wLjcsMC42LTAuN0MxMDkuNCwzOC4yLDEwOS4zLDM4LjcsMTA5LjIsMzkuNnoiIGNsYXNzPSJzdDUiLz4mI3hhOwkJCTxwYXRoIGQ9Ik05My4zLDEzMi44Yy0wLjcsMC0xLjMsMC0yLDB2NC41aDEuM3YtMS4zSDkzbDAuNywxLjNoMS40bC0xLTEuNkM5NS41LDEzNS4zLDk1LjQsMTMyLjgsOTMuMywxMzIuOHomIzEwOyYjOTsmIzk7JiM5OyYjOTsgTTkzLjMsMTM0LjloLTAuOXYtMWgwLjhDOTMuOSwxMzMuOSw5My45LDEzNC45LDkzLjMsMTM0Ljl6IiBjbGFzcz0ic3Q1Ii8+JiN4YTsJCQk8cGF0aCBkPSJNOTIuNywxMzAuNGMtMi44LDAuMi00LjUsMi4zLTQuMyw0LjhjMC4yLDIuNiwyLjEsNC40LDQuOSw0LjJjMi45LTAuMiw0LjMtMi4yLDQuMi00LjgmIzEwOyYjOTsmIzk7JiM5OyYjOTtDOTcuMywxMzIuMSw5NS42LDEzMC4zLDkyLjcsMTMwLjR6IE05My4yLDEzOC4zYy0xLjksMC4xLTMuMy0xLjEtMy40LTMuMWMtMC4xLTEuOSwxLjEtMy40LDMtMy41YzItMC4xLDMuMiwxLjEsMy4zLDMuMSYjMTA7JiM5OyYjOTsmIzk7JiM5O0M5Ni4zLDEzNi44LDk1LjIsMTM4LjIsOTMuMiwxMzguM3oiIGNsYXNzPSJzdDUiLz4mI3hhOwkJPC9nPiYjeGE7CTwvZz4mI3hhOzwvZz4mI3hhOzwvc3ZnPg==;" parent="1" vertex="1">
          <mxGeometry x="2491.19" y="1340" width="70.44" height="58.88" as="geometry" />
        </mxCell>
        <mxCell id="ZFgZAANVJCpxepYmrR5U-24" value="&lt;b style=&quot;border-color: var(--border-color); font-family: Helvetica; font-size: 20px; font-style: normal; font-variant-ligatures: normal; font-variant-caps: normal; letter-spacing: normal; orphans: 2; text-align: center; text-indent: 0px; text-transform: none; widows: 2; word-spacing: 0px; -webkit-text-stroke-width: 0px; text-decoration-thickness: initial; text-decoration-style: initial; text-decoration-color: initial;&quot;&gt;Services &lt;br&gt;VLAN 99&lt;/b&gt;" style="text;whiteSpace=wrap;html=1;fontColor=#7a59d4;" parent="1" vertex="1">
          <mxGeometry x="2487.58" y="1710.26" width="90" height="50" as="geometry" />
        </mxCell>
        <mxCell id="3U3AbJrNhwpyRPHoVkgr-104" value="" style="shape=image;html=1;verticalAlign=top;verticalLabelPosition=bottom;labelBackgroundColor=#ffffff;imageAspect=0;aspect=fixed;image=https://cdn3.iconfinder.com/data/icons/brands-applications/512/Magento-128.png" parent="1" vertex="1">
          <mxGeometry x="2494.105" y="1623.25" width="64.61" height="64.61" as="geometry" />
        </mxCell>
        <mxCell id="3U3AbJrNhwpyRPHoVkgr-105" value="" style="shape=image;verticalLabelPosition=bottom;labelBackgroundColor=default;verticalAlign=top;aspect=fixed;imageAspect=0;image=data:image/svg+xml,PHN2ZyB4bWxucz0iaHR0cDovL3d3dy53My5vcmcvMjAwMC9zdmciIHZpZXdCb3g9IjAgMCAzMiAzMiIgaWQ9IkxheWVyXzEiPiYjeGE7ICA8ZGVmcz4mI3hhOyAgICA8c3R5bGU+LmNscy0xe2ZpbGw6I2ZmZjt9LmNscy0ye2ZpbGw6IzE1MTM0ODt9PC9zdHlsZT4mI3hhOyAgPC9kZWZzPiYjeGE7ICA8cGF0aCBkPSJtMi43Niw5Ljc1djEyLjQ5YzAsLjg3LjQ2LDEuNjYsMS4yMSwyLjFsMTAuODIsNi4yNWMuNzUuNDMsMS42Ny40MywyLjQyLDBsMTAuODItNi4yNWMuNzUtLjQzLDEuMjEtMS4yMywxLjIxLTIuMXYtMTIuNDljMC0uODctLjQ2LTEuNjYtMS4yMS0yLjFMMTcuMjEsMS40MWMtLjc1LS40My0xLjY3LS40My0yLjQyLDBMMy45Nyw3LjY2Yy0uNzUuNDMtMS4yMSwxLjIzLTEuMjEsMi4xWiIgY2xhc3M9ImNscy0yIi8+JiN4YTsgIDxwYXRoIGQ9Im0xMS40NSwxMS4xYy0uMDctLjA5LS4xNy0uMTgtLjMxLS4yNS0uMDctLjAzLS42Ny0uMS0uNjcuMDUsMCwwLDAsLjA4LDAsLjA4LDAsLjI0LjM5LjU0LjUuNzYuMDYuMTEuMTMuMzkuMjYuMzcuMS0uMDIuMjUtLjMzLjI4LS40MS4wNi0uMi4wNi0uNDItLjA3LS41OVoiIGNsYXNzPSJjbHMtMSIvPiYjeGE7ICA8cGF0aCBkPSJtMjQuMTksMjQuNTRjLS4wOS0uMzYtLjU3LS43Ny0uNzYtLjk4LS4zMy0uMzUtLjY5LS42OC0xLjA5LS45NHMtLjg0LS40Ny0xLjE1LS44NGMuODEtLjE3LDEuNjMtLjM0LDIuNDQtLjUxLjA0LS4xNi0uMDctLjMyLS4xNy0uNDUtLjkzLTEuMTYtMi4zMi0yLjA5LTMuNzMtMi41Ny0uMDktLjAzLS4yLS4wNy0uMjQtLjEyLS4xNC0uMTctLjI0LS4zOC0uMzQtLjYxLS4wNC0uMDktLjA4LS4xNy0uMTItLjI2LS4zLS41Ny0uNjEtMS4yNC0uOTQtMS45OS0uMDctLjE2LS4xNC0uMzItLjItLjQ4LS4xMS0uMjgtLjIyLS41Ny0uMzktLjg0LS42My0xLjAzLTEuMzctMS45OC0yLjI5LTIuNzhzLTIuMDYtMS42Ny0zLjI5LTEuOTVjLS4yMy0uMDUtLjQ2LS4wOC0uNjktLjEtLjE1LS4wMS0uNDQuMDQtLjU3LS4wMy0uMDktLjA0LS4xOS0uMTMtLjI4LS4yMS0uMDgtLjA3LS4xNS0uMTMtLjIyLS4xOC0uNDUtLjI5LTEuNTktLjkyLTIuMzYtLjY3LS4yOC4wOS0uNDkuMjktLjYyLjU5LS4yMS41LjA0LDEuMDcuMzUsMS40Ny4zNC40NC42OC44MS45MiwxLjMzLjQ0Ljk2LjYyLDIuMDEsMS4yNiwyLjg5LjA0LjA1LjA4LjA5LjEyLjEzLjA2LjA2LjEyLjEuMTQuMTktLjEuMTYtLjE0LjM2LS4xOC41NS0uMDIuMS0uMDQuMjEtLjA3LjMtLjQxLDEuMjktLjI3LDIuOTUuMzQsMy45NC40Mi42Ny44Ny45MSwxLjMzLjcyLjQyLS4xNy40OC0uNi41My0xLjAyLjAyLS4xNi4wNC0uMzMuMDgtLjQ5LDAtLjAyLDAtLjAzLjAyLS4wMi4xMi4yMy4yMy40Ni4zNS43MS41MS44LDEuMjksMS4zOCwxLjk4LDIuMDEuMDkuMDguMjMuMjEuMzUuMjQuMTYuMDQuMjYtLjA0LjEzLS4yMS0uMDQtLjA2LS4xMS0uMS0uMTctLjE1LS40LS4yOS0uNjgtLjcxLS45Ni0xLjExLS4zNy0uNTQtLjcxLTEuMTEtMS4wMS0xLjctLjE3LS4zMy0uMzItLjY4LS40Ni0xLjAybC0uMDMtLjA4cy0uMDMtLjA5LS4wNS0uMTVjLS4wMy0uMTEtLjA2LS4yNC0uMTctLjNsLS4wOC0uMDUtLjA1LjA4Yy0uMDYuMDgtLjEzLjE3LS4xOS4yNS0uMTQuMTctLjI4LjMzLS4zNy41NS0uMTguNC0uMjMuODctLjI4LDEuMzctLjAxLjEtLjAyLjIxLS4wNC4zMS0uMjQtLjEtLjM1LS4zNi0uNDYtLjYybC0uMDQtLjA5Yy0uMzQtLjgxLS4zOS0yLjEtLjEtMywuMDItLjA0LjA0LS4xMS4wNy0uMTguMTgtLjQ4LjM0LS45Mi4yMi0xLjExLS4wNS0uMTYtLjE3LS4yOC0uMjgtLjM4LS4wNi0uMDYtLjEyLS4xMS0uMTYtLjE2LS4xNy0uMjUtLjMxLS41MS0uNC0uNzItLjEzLS4zLS4yMy0uNjItLjMyLS45Mi0uMTctLjUzLS4zOC0xLjA0LS42Ni0xLjUycy0uNzEtLjg0LS45NC0xLjMzYy0uMDMtLjA3LS4xMi0uMjctLjA1LS4zOHYtLjAzcy4wNC0uMDYuMS0uMDhsLjA0LS4wMmMuMDgtLjA2LjM4LDAsLjYyLjEyLjQ0LjE4Ljc4LjMzLDEuMTIuNTYuMDUuMDQuMS4wOC4xNS4xMy4xMi4xMS4yNi4yMy40My4yOCwxLjEyLDAsMi4wNC4zMSwyLjk4LjksMS4xMS43LDIuMDcsMS42MywyLjgyLDIuNy44MiwxLjE2LDEuMjgsMi41MiwxLjg4LDMuOC4xNy4zNS4zNC43MS41MywxLjA1LjM5LjY5LDEuMTEuNzMsMS43OCwxLjAyLjgzLjM2LDEuNTUuOSwyLjI2LDEuNDUtLjgtLjAyLTEuNi4xMi0yLjM0LjQxLS4xMS4wNC0uMjIuMS0uMjUuMjEtLjExLjQzLjYsMS4wNy44OSwxLjMuODMuNjcsMS45Ljk3LDIuNzIsMS42Ni4xNy4xNS4zNi4zNi42LjQuMDMtLjA3LjAzLS4xNSwwLS4yM1oiIGNsYXNzPSJjbHMtMSIvPiYjeGE7PC9zdmc+;" parent="1" vertex="1">
          <mxGeometry x="2491.41" y="1541.6999999999998" width="70" height="70" as="geometry" />
        </mxCell>
        <mxCell id="ZFgZAANVJCpxepYmrR5U-2" value="" style="shape=image;verticalLabelPosition=bottom;labelBackgroundColor=default;verticalAlign=top;aspect=fixed;imageAspect=0;image=data:image/png,iVBORw0KGgoAAAANSUhEUgAAA3wAAAKCCAMAAAC9JSvNAAADAFBMVEVHcEwAAAEMCwwNDAwMDA0ODQ0ODA1MXEwQDAYtKBkREBAODA0MCwz///8hHR8ODA4hHh8iHiATEBEhHR7///8hHR4iHh8hHR7yvRkdHyPzvBkiHh8hHR9dW10iHh/xvRsZHCAhHR5hwrbrZ5siHh8iHh9Kuq4+vbBHva0MfrY9uKhUtOQMfLTv5ck+vbA9vrDtuRo9vrAIU3gMe7PyvRrq7ez19vbzvRgFP1sMea/n5+QMcJ/39fE2pZQMeq7t9PELdqwLfLQKa50MfrcJZZEMfbT6+vgLd60JXYeHysryvhwKb6D6g7W04uGo3Nz79/Pyvhqw3toNdKY2pZYKa5jtvUTzvRiSlJbyvRyC0Mfyvh6Y18/6o8nV7Oj016X6+vnX7ez207K6xMfy0317zMPwuZ/45bR/0/b8+Pi75eD779NFX27pwV7u3uOV1NfZ7/BPvLBbwbZrxrvzpsPtzIL01Xn13Jl6y8703aHsaZ79wt25vb3wjLP3wdZqwukcquDfm3EkpJf67MiZeh3ktz/uzHDmToxUX2LXh1ncrSdmwOC2ysxbcXZsw+rnvE95d1BRVFc/RzqwXn4ersUquqs+rqAbV2x7Zzk1bmfAlho+vrAjHyDzvRnpR4vwvxo3pZU1NTUHpd4Bm48NgLnXoikkICE+wLL2vxk3qJk9va/qQYk6r6A2pJQdFRT8xRsZGBxCyrvvugLh+/lAvrFVU1T0ZZ7frRzwTZFIxbcCo97yvxAye3ErTEdfy78Qq+UiHBwVnpE3ODgvJyAAkoXnMX8pKSrc3NyefRxLu+02v7A1LS/UmgopuanYoyzYoxI8t6n/+t0yu63/4fMxWFQlNDMiLiv//98MBwc4n5L0R5A3in8uNTSR5NteTB4FntgGp+Iht6gyaWVAQUKu7upx2c44lopU0MP+5oP90TlXtqgkuaodr6H82V3Wnx7E9vhgQE0Sdpw1w7R/RV3/+K6kSG4rvK0os+nBSHrhSIj2VZnUSYMbSFoLksNGxPb856ohva6F4MU+AAAAmnRSTlMASUI6Cg8WAQIFHTIsh8AioPwnsJ5u88/dX4Lcj2r4JlJ+a2vl7AyxGvRpauMQk+X98IeLWyk8tnHSHSpT6kBpWXMXt6ehu8eZPz/A/LpueOtT5pK0/pv+c/PN3PuWUNu4cpzwvz+5/oPhrz7uo6vp1fngv2jLpZvhzP78l9rY14b+7+qYqvn+vN6uvfuAzbC42m5YourNguXmSR1EEgAAWuhJREFUeNrs3bFq40gYwPEh2UR2cnhzF5LIIpzsYkuDCoHewZUqIfRqGbYzXzfXpUh5EO4p8i4nO7eMmwtZr5kZ/P1/u4bFbNL9+cYzkmwAAAB2ssl0Nf3s38lomhkAvy5blfWnrcsdA+AIyrprPqsrimJ87TrchriaGgCHKovcOfkUK+Jky9k8H0vs63KSTSYT1qHAYfG1u/g+eomTHff+xzkR27Z5PgxjgvWadShwgGw7+awV+7+vH/8Qu0dE3I7djsDtGvSLAfBTdvEdSETsqLJ515crA+DnJ9/hdiOwaoem62vWn0CYybcf4Kht+nW5YvkJhJh8nojYtsqbYm0AhJp8++vPoSvqkrMHINDk88S5dijKktN3IMzk80ReqjbvWHwCAePzw8/lTc/ROxAsPk9EqqZeTSYGQKj4fH15U3PuDoSKzxPnXpqCtScQLj5PpBpqtj2B8PFZJ9t9z4kxnPsBYeOz4lzVrUv2XYBg8XkiecEHPyBGfK4aOHIHAsbniWubNYcOQIT4rK3ynvqAYPF54tzQc601EDA+T/KCTU8gSny2ZdsFiBKfuLxbs/IEgsXniWt5xAQQJT6RltkHBIzP2608ucwTCB+fFVex8gRixGfFsfIEgsbnuZbLrIEo8Ylt+xWn7UD4+Ky8DAXXeQIR4rPi8jWzD4gQn5V2qA2ACPG9VN2a0QeEj8+K48kSgI8vKMlrvsYPiBCfONvxsQ+IMvlEuhVXukA7H19IfOwDIsUnduASa2gXJz7rLKMP2kWKT2xeGEA1H19gruFpgtAtXnx5x8ITqkWLT2zOYR9UixafdVKUPNIFisWLT+zQc4E1FIsZn2341AfFfHzhuaHmrnboFTW+tuE6F+gVMz6pWjY8odcH8bHhCZxsfOKamstcoFXc+GzLZS5QK2p8VlzOd6dAq7jxWdfWjD4o9WF8nDYAJxuf2LY3gEqR47MiBfud0Cl6fI7nV0Op+PENPRd4QqXY8VnhjnYoFT8+GYgPKkWPz7p2PeWgHQrFn3yu6hl90CiFycd+J1SKH5/YoWbZCYVSiK/l4dXQKH58VlxnAH2SiK/h2/qgUBrx8RQzKOTji8cNHDZAoSTi43tqoVEK8UnblJz0QZ0E4hOpuJ0dCiUx+SQnPuiTRHyuIj7o4+OLyNn6iwGUSSS+nsfGQ5004uOuIiiURnyWgz7ok0Z8Fbf0QZ8k4hPbcUsf1EkiPmcbJh/USSI+Jh80SiS+hu+HhjqJxDf0LDuhTSLx5TzGBeokEx+TD9qkEd93Jh/0SSM+Jh8USiY+AyiTRnzfmXzQJ434mHxQKJn4mHzQJo342O2EQmnEx+SDQmnEx+SDQmnEx+SDQsnEZwBl0oiPcz4olEZ8TD4oFDW+6p9Rlcxnvov5cnnG03sxUhDf219Pb8/J7HZ+nW1eby55ngWMOf34nt+e/n57TmXyZVezzebm0gDm9OMbJ9/myJPven43P3R4XT2M8V1kjD4oiO/5bXPkyTdd3m/uzw+efE8sO7GlIL73ySe7+DJzFMs/X79dHzi8rmZMPrw7/fjeJ98Rz/myyTj5vp0flk82brj8zuTD1unHtz/5zFFkY3y/NPkeL5l8MOb04zv+Z75x8r0ePPk4asB/FMT3Y/L53c5sMp1mZt/H749vTz4x+bKp/39e5n9676ghe/+1XO6Gk45vf/JlJrs4u7uZPcxuH+d/TI03vr/cvn/zOD87WywW8/nXXRnZb3ePtw+z8f27+dn2J7Lz+eL2fvO6XMy3rqcmyy6uF3fLm9vZv+ydTavc1hnHZb09kuaiK+mgkWWJqQTSTVyycMnGocQ4cUMC3WbVr9CP4W6ySktbSjzBWZiTODi0gUIoScAwMHTXLrrpJst21+/Qc45m5sjzcvOCx7rR/H9jGx3NkWbjH38952VG3LY2HUNjW92HRXWaW4G/Sj5euv4kL5nsXjkGAGOVr5985OUh5zzmkrZMtHtVyLfIbXE+iRquKSzf8BiXzPmCS0qHjCqbxgLeEU42UpvCUk12Tquaj9X6jVDcE4BxytdPPrue8h7ZxOjw0pYL4tmsJ59vkJXxPtPKM3ym3JtzxaJ05MVLrllu7po2vMeyEK4TSfnifv9iYgAwTvn6yScdi7Myr6qUSd1YQIbkWiHMYtUkSapSdgmjiJm+EGU55w2r07wuIxYWmUlEdRgWsbhLqMgdoioMWVTWeZrnUSO0LN0u9wqpViTOq6ubMCFZ8ymf24yV4q5hK8MTi83ASOXbJN+t678JhWO1SwpLNJapbcg4ijifpTaRT0RVw2P5MElEaaueIj2irixMHJIYasDFkMi3yLY9qZX6K40rEnXTcsZ5FBB5qkVuYtMq+ZrasuXFHuWN6g7AKOXrzfP9tn3KS0dqQtR5ws4NwVkmRyCVYmRIaYqJaoij1pS9DQWtehi9SXb9bweVLZ9WsqMT8mWYyCN9sR7t3HSfie4+Zh7AKOXbJN+Xv/rm6UJXWGREwi1LHlWNysAOShu+qKQONouXLDA20Mo0kvN8+ys1da9F6osDVxltbOEL+Rbl+jSpj66xvQ+MU74u+b4UyfdeMXvKznXK5E03pkniYJ5v4qcqOFctm824LNS2IZ18u5jqpuJNJZ9De3c16OSbiGbpIPnAKOXTyfdBO1/0/qOr587SEWmkLPRXZ+Vp1SIqp/Jo39rOxaHk8+XVKvmckPPCpK1rV7sa1k1s7wNjlk/XfPfbhfBC65BkS166pJKPr5NPtpZdi1IhXxtVrv+dko982w2StOXdh1A0E/aVlvPM1fTsrgZyRZNhqScYp3yb5Pvk/kI4RtqDpKvKZNapCTsFSbXiitYd+GLWhmVqBt6zazsnZGjIrdIyCoumnXI5huqvHl8FccPq3HJIR11/VwM5jC9ZAPfAKOXrJd90wXOP+iG0iAIiFT/F2qZENs6UfIYZ8hWzguXuoeQ7L4sZVyy5JPU3NWXHNItMZ/Wh2TO7Gnw24ywwABijfHqe7/6mhNP1lkwdorrlPKtccehL3xbCjlWXnLV8TWb6q5qvP9q5Xgcza5uMRXXU8ljJR0RJHU75Gna2/tD+rgaf8SXkAyOVr5d8MyGfp6UJMuFB0GWgCrcszDKRjrywNrMKZJ/LFdcy2dT5TfL9euOPw5ZzHqZn54Fje54arrHXVztJVbOwiTlXnpOe5+snH3YYgXHKdyD5dM0nSYQDvYQj2nRSh35glg3ny9rZjHZamx55o8TqWI926svJsJMqann32XSuRzvVvVDzgfHKtzXaaWv5JkU32imR4yDtdDprsih3O+M0ekFMQLTZz2esUItU5CXqZTZLIR9tXe6nrSz19GingZoPGKOXb5N8f/6gXS8u0RN6tbOZXwjNZDJJXJ/I2IXoIoqXRUJd8vGpRWt9Vuf1FH2c+jvuBpkMvN3RTo/FqPnAWOXrre1sFjzUK1wobRdx3nliM85Th3ySGPspY95M1sk31Y+mjPMi0Xv4igXP7Z3kdLvBnT2jnTFqPjBW+Xr7+X4X89Y0NjAubNIhWKknx4N4Ubzokk9Yq1Z/dlAkpdxa4XLgi6r3jXbGqPnAWOXTazuvv98shAH9NZxRoFpUiXfSC+MyrExlV9db5mRvY0Ks18eIuy7TdUuTN2oNJ60sRM0HDGP88um1nddvhE85jyaelMTJCy6l0QOfTZmmeZXnleXQ6mxeTVybVPcq4/NlbdOq9zKzSH0HEkmvFlmXoI6VZrFUWjYmuZm4vqcm91LRZ1qR4Dzki95iTh81HxivfP3v7ZT5w5uQRYwJSXQEEZUtFyy4IG4LZvrUbS5qiyxkjHUTfdkZKflsxue8kaez2iU37Has1xHLllwRylwsp7wpQnV1M+NdyurRTtR8YPzyrZPvQ5F8ntCpR6/YqlveR01JqNqOazKz92zZIVOLzEIe8Y5CadpYhtwu2IclhiRBzQc6TkC+W98sFt/cWn914CQqYq5oRTwR9X76JIwYC1mYKXtak4gqVrQx75hlZUDr/pRn2l8ik83WC0DTIKgLNSxqpGEx5XzzYW53ccCaadlLvrKZ4jt0wUjle/jF//4h3FPyeUR+YOapILdsIuptZEht6YLvXwRmOOPL0pFNZyJ6S3LTIYEevazSukzzKvFFw3esrk/gyy7ivdyRpwNrdXVlac+DJHE9PQchm/jyQDBO+YR+Dz9cyUdqtYl4kTrSc3NLXnfJROSR2l7OzmW76+hTx/bMeffG6tjrdSFSNaNBm06kLzN6TdUJu/nAaOVbIZOvE2XjnS74GkuLQw6bL8OEVKvzQ6m0BdFGHNruou8Fu8AhTke+Lvn2Uk6XWUI9qyLOs3MYA0bA1ZePZ4luyuRbhOcGAD9+roZ8Dw/KV7dqBnzTnhScY/wfjIKrId+h3+cjypv+dnJy5QxdegH5wAi4MvJt+6R31c55llpJECSJVct1KlkC98AYuBryHX7spLTlguW0bZupWqtSmHAPjIKrIZ9Ovh0oL+Le149Nowl+PgGMg6suHxEFVRlmTdE0RcZSqAdGw9WQ7+ElySfxbFfiE/mYFQdjQcr3yfBcv2FcAnUY8gX3wFhQ8n04GPqx0wDgtPB+cuO9W18Mz3s3Xn7z5ZfF390/x+bCAGAQkj/d//sV4P77Px2K3xsADAEldba4Avzrq9df/8+B17//+LMj8rc/oIoEw5DUzfwvw/P1V0+ePD7Ak39+/Pnx+O9L2C8LBoGSuuCD85R//dVnjz86xJMHDx58+tdPH2xez5GPP38JyQeGQck3H5jL5Xv85NMHx+PzlzBzCIaAVPLNB2c4+UTyeQYAA0A/guT76KjJh8dOMBCUlN+SfCN/7ETygcEI0uyqJ99jJB8YI3RhhqeefJAPDAI5VricXwZqPgCOgndhZhjtBGAIHDNczC9j5I+dSD4wFETJla/5PkLNB0YJ2eyq13xIPjBOyGeo+QAYBIquyjzfZ0g+cFKQX06Hl29+ac2H5APjxKubK5J8qPnAieGnWfwt9qHmA+AYUMUuK/qQfAAcC79i8QnLh+QDw0FWNDth+ZB8YDCIgnSGmg+AASAnP+XHTiQfGA6ianrC8iH5wJBY7QnLh+QDA0KTLJ5fAmo+AI5FEl0SfUg+AI76cw2nKx+SDwyJk4f8kH2jlw/JBwaE7IRd5h5qPgCOBfnRYn4IJB8Ax6ScH2L08iH5wLCkzWy+n9HLh+QDg0IVu2SRC2o+AI7HpGwPyYfkA+CIkJufrHxIPjAoRFbD99s3evmQfGBQiIIwnh8CNR8Ax4PcskDyAfDiIXLy8ETlQ/KBYSH/LNpf9I1ePiQfGBYiqg+6h5oPgCNClBez+T6QfAAcFzL376gdvXxIPjA4Sdruq/pGLx+SDwwNHf5tdtR8ABwXh8VIPgAGgOw6m+8yevmQfGBwyDf3TfWNXj4kHxgc8i7q/fKh5gPgeUArLjxjh2rfVB+SD4DnIp7nXdy5++q91x694RFtv30WNTvRN3r5kHzgRYjn33nj3iuPOt7yPTK2cKqMb9s3evmQfOBFiHfzkeZte8c+ooDtcw81HwA/2Lw31+Jpbtob+zRUN/NtkHwA/EDzjDfv3nu0h0TL159tmG9l3+jlQ/KBY6CeNt9SmbfLHXdP8rnp9NTkQ/KBozxu/vzVfebdfO2X79y+mzj2rnxkZfF8G9R8AHy/0PPu3Nv1TmiXX7t2zZycnTu2T8Y2wc6vhSH5APh+6l3cfW1bvLffuX2tw7QmZ4FOvh4XE3Zi8iH5wHNEDW9uPW++8guReArTtCxLBJ/r+L6xh/LZqm/08iH5wHNVb6vUe+Xd233xJmdn58I9PdrZh8ydnUWo+QD4burZz6bezXdvVyvxJso7iSvcsw3P2IX+z975/LSRZHG83b+quttLg73gsbBQswpoLTm7WTuj2IJlIMBghcOMZtnLHGa1l2iVuU5G84fsSqthlTm0erInpFzzV0RaKf8CPnDLPdp+VdXtNgFDAm2qut/HEEMOXNCX73vf96rabk7umKHzTUDQJpFLZwvbnTDDoBsEXHlCeHaMZcbQmAt/RK2+djym8OL7GOcjhDzu9VB/yIdAwjkRsxz2heelwrMskwHKo9pFkMkntBdefNd3Pja7ibdiKUX1IZMQ4mzsTtSbLGIxhPKywtM0kN7FEMdtTc76sOcT9ebWPl9Jd1B9yPmKcycrvWGQVJs+i1csLjsAlDf1Cs+5TOKJzndubLpvoviQLIQ6GwcfSo8HmzbzO5OpDvR3BcRt3iuP+MD5rtNKp/V8z0L1IZfb3lEg6k3fF8WmBqKDz+tA/Ll03FB48YHzXR0gZ1Ksnms5FEMX5ELbO2yekx6lGryuj7WYzVxK3fPBslBvIkA+6G1vPaYE5YfETNreoA8Fpyekx5VHtY+DuK2lY0G5nW+8sTDJ7s5jDfVXemCjZRxytrus16tWk04P+IQDEXqSuRRefNOcL3a9/fAS2rH+sPosN4TSjc64JGoGFV0UnKbJI5ZPErTdXOaFZ+HFN835CHUg47xcf9vrqL/yAjlcO2N7WelBvfnJdurOp3supe35CHVM04ac81I6Oyi/skKo2cvYHuQsUHFayST900nvry6x84H4LNf3up3wcto9rD7LCCHaxu6k7QnpmTTmhvdXN5dh0aXw4pvqfLHxuVXP0IftTKL1Tfuc/PY3UH5lY6Ld63Db831IONkWyw0htRaM2gsvviucz3b9WHyVYC9VXL9Z6e+d88J9dL9yAWlAO53tBantUfOGrjc+3sDFV+qez7L92PoqlaB5FHK6FaA/nNBfewcH7yViImrZ47bnMtu7JYjTrEdRVGLng7oT1BfLT4/1tnjIna8iADmO6Wzh0llZyGqv3echp23dIOK8+Fzt8XHRxTfF+WBQA21fbH5MfkF/AOKD6wB0nckPitGUXWz9ykF2q6XTZCWnDdqbkJ46bZ+kzqdREJ8wPwP01v8mDKqAJ/Q3UX32sPYsAYTS3rjd03UjsT2N3upz2r35lePj0vZ8IreC2tNK5Gd0DR9I9RdkBxEHaH6Fh1CnlznBACXnbdseQDQaxGtmJXa+GDrhfoZRrbm2ZcG3ifyamUFEexs7v2IDZ1yyUYvn+zbfaNFuGWLpywUXX+J8090vkV+Vac+MEfrj8jvCqUNJyPZ7Q2j3fB9sLxeItdqICi0+7nzToVRL3M91bXYyGUjtL+4FDzKxJ17yUliyOWe3krZ7lGo5QBx7danEPd+E+8VYYms2hgnQthP367bHC2dYehYUmK1nRgxJu6fRvFbYaqtrUcmdbxx8ApR9M3ZDkB8kL4dYehYcQs10ryWjPZrjnWjV+Th0iYoqPuZ814XSzAJR/MYEmSah4+DlANVXQODGiHHNCdqzLFPLFcIOOJTe+YTa2PtFSahhxJ3fYNz4aVh6FgxCnceDJGvhIwbe7uUIIes6874y93zZ6vPCJJSbX3CEM4eiQojj7KYzBvacr9y1B5hGfS1C55uShFpcfpncpb2D6isUmQHfUUUf+17+mjfiyrOY4mPOdyNo/DKtxPz6nVCAoWeRyASdh6A92+ZbLflDnGBuJa48Cyi+GzrfOAm1LN75NQep+kxUX1GAsKUj+vlgVr43vlFpbgl7vuljQFF6BofofUUDjnYeiH6iCbN1PmKYEcQM5iN0vunmlzR+e+h9BSNzWVJXN2boewAhxNLn49QlKpr4hPPdhvmB/PjJ2y56X6HINHx7qfa0GQLzvgV0vssRM78qNH7dNnpfcSDUsUQnP4BzDLY5c/Fp63prJcKebxqgPvS+okGcpOhsQ9gCFyVpM8c05u9F6HzXaPx0faw+6qD6lCazVtaPtefyonPWEMdrrUXFEt+tOh9gWhbELmPvw10XtckknYdJ0HkXEKe2uBwVSnzC+W7V/Gzf9/S072vjvWZq4zg7SdGZhi13AdHs1cYK9nxX5C7M+9LKs7OB6lMXQh2/nUwZPJ81fFS7K/TGUoTOd0Xjx7wvVZ+F6lMVQtO05YCdIroz4wOIBbFLVBTx3bLzAVRLvC+Ztu/iY9xVZZy2tJui4btLCDFajZWiiI87Xx7eBxOHo5Czjzd6qgkY337IGIqik2p3CSFucw57viu8z7ZBfYOQgweM1IRQU3R8Hd2o+RZsdN41dtC6F6+aReh8V2SeQUcEZRu46qIgGePrpknnHUNg4tdYKkLZmThfPn2foTdFUjbA0EVBCDU3UuODolOTAeJYQX0FnW+690Hf1xfq2zcdbPsUA5Y6e6nxiaRTAuCYQ6uxEEXY812MUJ+hD3HTRVUIdezE+GCfWg7jY+oj9mJjbQGd73Lvs2zfMyqHou3DWbtiQMe3kzE+SXxPqM/yVueiSGnxCefLq+2zq56RhC4H2PapBVSdB6nxwYhPGvFpJMZt1pdXokhd8SXOl1vo4ht6H48XKQl1zO9Dxp5Rk8r4AEJg1bqxhD3fxYD6sm0fFp4qkYlbAs+3pTK+RH22DrVnhM43JXQZiMIT18wUglDT5h3DwKi6shlfor/aYr2xFEVKii9P5xOrLplZ+zaO2pUB4pZtEbfIaHwMwnLP+pKa4mPOl6v1QeiSHC9qP0b1qQKhprUbMnRJjQ8A9RnN+UYURdjznYfytu9AjNqx8FQF4pji2qRDr+bKaXyJ/LR47LC8dhyh853THm/7kjWzLbQ+JSAQt7ghow9bnY6s2uPrnqYbxMVnpJb48nU+QLR9Q9zxVAeytbXx2LS2RNYJVafE2uPYxmJrLtZfpI74cnU+gFIx7ROZy47Uf0ORGEK0HTZaT2Iyw5a25UshIvlcW1rAni8DLzz7SeaC1ic58BjMdjhBZ9CTtufjwNa+Y1rGYn05dj90voz3wZrZUcjoYeEpNzBjgFN8k2xQ2b2Pj91dfXG+3liJYqQX3yycj/LEsyLuAnFRfFID4rO3w0l6puNI7n0AAax47eXe0tJCJLv4cne+8aKLPkTrUwEY8NluZ7LsdC1FhkSEELpu12L/4/ZX9p4vho/a23ilhAIw8dW6YZbtmm058tedHALY+mJrfq5xbyECyut86Y7nECftCkAdx3JrepjhkO2XqfPQDcKxPPC/hZhISvHNyPnEsK+D1ic/MF63a95hmNIOPF8h5xvrz7Rrht5cnW/cizhyiS9/5wOoyFy6wvqw65MYSh2oU/phyhBuLlOwXCEMsxo0W/W5ucby8trKQpSS6fl+mSK+n3/NjRk5H0XrUwf4S+lWjXYoGFS8qq3AjsuHEIFDNcsIFlfrjeWV6LzzMfH995cLXtz5fv05J0B8M5FBYn0YeCoArzuHoaDPjE+tqjMLIfC5brs1Tw+C5upqa75er8dhDGf5f//+8+X864858qd/Ug2YifVVxbHato3WJzFQd7peEHKOdK9mS3FX9Y1N0CEa0SwQYbO5uNoSrP5lGn/Ik99pwIyszxPWt6NgB1EeKIW80zgIgXYFbi5T2Pgy8mNvlDjOumk6ppVirq+vOxe+cuX36+ta7oyvU0pmfQMLrU9eeOQi/lB2DWnPsd/AA7kW4UO7GpLLa5aIrm8vZGzh4QaZGUcuA92rKnCoAblO4BmIaQNan8RQ6sBK0h5/Kp9kV3Yin55gi+FtzVFnYaJ88FFfEIZ7UjyVD7m59bH74/s4bZAfWAh0a8ago3tVOZ7Kh9xK19cJgQ7WnRJDNbC+WrfvSfJUPuTm1pcZ3m7htEFiqGNarl+tVmV6OBFy4+GtLupOtD6JYfGY6/u+Lc1T+ZAbW186vO1YCp1RKR+UHam1bTS+gkApFcNb4HuLovVJC2XXzlnoe4WBTxsqWHcqAKUmQDHpLAgswfa9QQgMcLtaZih8mFSBS8uQ68HqzupQ1J2Yd8oM0x1Krzhg3akUWHMWCZZg15K6E/NOBJkZYtQ3FNfnYt2JILODwqivKZZcsO5EkJlB+f0gounDdfkZQ7SEzS+BZ4ynwLOn8OVv4X83NQG2fMUC6s5k2HAk9zMXi8j9zc3vYp48+fEd8P50gneMtz8+efJdzObmfQ0pEjzv3ONNn4qXQaoJYVC6+eZNLLiz0cvXr18/ePXqVfz2KmH81X9GZ6en79+82SQM/BUVBVZ39kOGh03frCrNr758+vT5o0efjUYnf3354uTk9av0xd8ewD+gxvjz5MXLF6OXo9Fnjx49f/r0b19pDPxNqQ5r+nw9ZOyg+PLX3edf/P27hw+fvzs9OxudCI97EfPgBecBfJwHdAgqHJ2dnb57/vDhD5tffI4KVB6+5NJhZec+Tvry5f66o/3m7fvTUSwmbmkfRVKUvh6dvn/7D8e5j02g2vCm7zCM6fQwccnX9Z799Pzbr0cnUGYCL4CP19/rlycvT0Zff/v8p2cE3U9p4EZWvzvY68IjAPAml3yAavOHh/9n79xC28jOAHzYLIzUraFL9eAGih9cTKAI8lBNQRWIvhgSJpH7oM0StPaqwpcmNn3wpbZrJ2DiLBs26UIfvR7WRMJwQDKz7Fh4CDIpkxAqJhiRWoiCRdMHqSDXoSpJvFmbzpGSrePcnPVoNPPP/9nOs6Pjb/7LOeefo7FSOaVIknhojtdy0FLs6C+iQR9BbMrTl+AceeedI+/Z8t03NsDr9ZJolSWbrL4zCqWegFajbi/mnzaFFX0/+OF7R468Z88XT1kbjuh4ZkZbu8qLi4qOaBwKI5XqOhub8WD6aUuevqdWBydCNqLOC0Q/jJUqtRbLomg0LPylynr++WE0gN1PG+JyswGeOJzHeDi/39vWV+9tKmLDYPlnuTrq9fr9uAFvM1yu2htimHrv4m1NI8Oer2cm1lpvbYoNRRFTitgam+nxYfCzGWw4Tx0cUmCced6B0GypwrqbohnUduBLY6EBL/pnJ1wMPejhsXnj8Pm716oV1tw0DUVh2edat9+H7tkJl/6Fs3kMgyP+nplBhRV6imgiyheKpAzO9Hgx9CGOhNN/+LFKrb8pmo0iSSz55DH1RByJ39c2W1LMzDj3tz5Ls229uO2OOAwWboLVLmaeqe7tP/3ZtRvE4Ic4iFrCee7Sp+HUoiI2E0kpl8/OenjUD3EMft43uxvOZpePi01GkVKV6pifIIhDCKyPa9nNuBbXlsWmo0iVPiz8DAfEFAGb//ov+9+ExmPh+GZNPgvYp0hl8Zd9IWiftDXgOD7YbltgPZM5QvjAyfFKNht/itb81FOUpFQp1o0nXhoB58nJj2VbIgg+aBv6neuDm9m49p18mtZ8+1jpV+omeNq6AXTm0jRtQwqFid53Yf1B+DpjYU3bjO9l2Qr2Kamzo5141914PLl5ldqOebUgtEPKhDjC+cd2w7Viby+WiH2ilKrsjvkgfd7WwJOj6rxxPJ43BzWdG4CVdLrGYqza248lmp6s9CuNwSqx34Ad5TMHqgqRoB/Mc5gjxO2f1Zb1uPcClmh61lLP8Kgf2y4oH6WFyJALzN8BR9zBkUth7S5LOa0b+1Llo9EgB+ZTtwKeXMF28qnbkSiBBL9W2lft7av7rFD4KVK5tMYTxMmRj1JZjvrBJEAcIcGZ//c4LRz7RDFVngmC+eBfD8r3KvmmCBiYe6OVva0Wy9Z97LB1ZRztc7J86cvtBBK94+HspqbFbRH7pMpuL0GcKp8qTPJgyn6OkGhsmXVa3oBmhaNm9cIvFsXY50z5KJ0XegIECBwhI9f0nfU3usdCnzVin27f6AiYh9/rwW7n86h0spOHs7vu7h0MZ+MHQbNK3Scq5Vgvuue8yEdpWpgOQMl6WNxjB6lfjQVPmukoqcoIlDV4JSjfS062TPNQlp0j7lrOGT8wFrFPkcqDaJ/T5FMLwjCgXd5nOacd7QufxJOejpKPpreHA3BOlek5J9tbt6d9YmWEIM5puFAqw7k+W+9zxlmf862wStNFSV2LYs/TQZEvPdUL5j0QXMdLc067bPfp9pUHuzsI4gz56LbQ7gIjH+mOaa8Ie7Y4aCaKbLgERj5nyEdVOddCYMARV3RwOf4c9ttwUFJ41sUZ8rFNhhYwY0S83XrO+RaBz3JjXZ6dNAu4CQJdPkrTk54OMI/Z7hktq9Xcs3PiKUrlXTAn/V4CdjvrqPJkFMjGEscG4y6/Pum0xw0H1nUZD2HPE3bko3RbGAAzPMsbHK/syzntudtXmyY/HgTyUNwPyldHpZEpKOqxlzHU9xgg2CdK5XXMPCHLp8pCO5x35bja2MGW74eV5sjXUcoVvFwLWb705SkoI1s4QnovPVMPQtknLoqX0D6wDRc6D2lkC/HOPn+Rwea7faIilcYIAjTyqYXcEJC4Rzji7wuzXosBWMQ+Sap2EgSkfFTdFjpDBAp83+DyAbot9tlrl1Klc9hxAStfpAfQFb6h6oE2GexT9imVHh+MrGQ/KJ9aiAyDOcLEEXKJFXzGoGlis2EFX58fzFn3F3B2w4VSeToA5QgFGxvxKRsKfxBscbdPSpX6wEzUeQGHRz72MiKfG8zaciOD4YPFPbt0PMs9PLoHUz5a2B7uhrK47EjnbvbAzRYbbLUrUrUTztmH/ThevrTQC2dki39g/GDjcRnWv98gpSrVPox7UOWjhQkwI1t0/GuxzbjBaGKTUJTF1tEennDoHkj5KI0MExeYxXUdG6+fpwaReEpKaYTgdQao3U52fbYTyiaDTqDvbTNOy15vUCSpUhrBd0TDjXyqnAtBKucHqneze/Wz7067IqbKsRY0D6x8lMoRD5jrs4yjGlMPgn2SWFoPcYCq8ZfjXPlUOjlEwMARMnQtu6kBkE9KlUtjfMCPrRaw8qmyAOYKH8MfjNW6LTav+qQvUuXW2XMBN5RDR6/HmQ0XWhCGvJCeraH17wo+Ozc8JTFcbXFzXjgL8zqcGfl09yBdn+UIie5qd+NxO4c+RZKUcnX0JI/nqEHLR+cvt/sgJTZefizMxrbYNfTp4i2mypXBD/oCBNDO6xtwpHyUChNeUEvs7Sll41rctqFPkZTjXbE1D0HAy6dO5iBt8HGEjFd0+RrHcsOk01H0mFetRtt6eUiLYhGs1nBRC5FpWHNYfdFr8WwjubssGQ1zjlGpnD36wdgYnLdkWAurRT5VzgGbCRJaD2fvNpRlxXDErtbwYGx8Zi3AEYIHyRwhn6pGpgGNbKkR+mp9rcGsG85QW1ubv83n84FKQqyGpeSjBXk4BO0xy7fYDw/Poh2gnVZrYin5VDnSTYDB2fNhwmGu6Sj52CYDj+/5RhyDhbqddH6i3YWpDuIYrBP56Lbci2UG4iAsIx9VhUke1UMchFXkY9dnO3EvF3ESVpFPpTkP7ikhjsIaDReqypEhUGMjEMQmkY9SodOL6iHOwhLyqenIFOaciNOwgnx0Wx7GnBNxHBaQj1J5mBAcT4A4jeY3XGg63Y45J+JAmh/52GnqDhzCijiPpstHqZALEgRxHs2Wj12fDWDWiTiRJstHC/I0vnQDcSbNlY+q8iSwkS069p16Ystf2r40tdupUmE40AFyzTlCzv/UVH5+KE6fPh0M4nTAPUCPfDQtRAG9AHMvHOf9/GsT2frsX3cOQ39//7+/Ok2OebH+rgFdPkploZdAhf/dVj5hHsl71zcyh+Ah4+LFC78fwOyzBnj5JtrBrrSbv30zv7S6lFwyhWT+b082MisLK/Xvt/1h/25srBQf7vRf+PVVHuyqWIymycdyznbAi3zizF/zq4k5xmrDfxJzqwldvuLKwvdlhVEs6j+Z/ivHjmHySQjkhosq51rgjmxxn//kVnLORJJL32YWDkWxLmAms3CxP4jBD3DkY9dnPQG468sdWZpbmjOPRDL5oFhcOKx+xVr0y+xcvPoRj/rBlW+yE3Jn2/uTfDIxZxqJVV2+jeLCYWHVH/Mvk/nnR5h6ApVP3Z6cAj0uyXMmn0+YaV8y+Y9vMzX7jDCwWCzunMLZAhDlo7Qgn4Od1nx8xuzIt/qEyWcMTL6Hd66cAL1EbwJow4WqkWGgm+vP+K3ZkW919cl1VvQZwwqr/nb+4MWbXtAiH92Wp3ywh1Nzf/okuWque6v3HtQjn3HRb+dCB4Y+WPJRennYxwFf1c/vLy3V5TPPPtbuNJKNzMMr4BfqVcCUj85vTwBfUI6QH91aWp0zkYRe9T0xWL7ixsOdK36s+wDJp9LJIfgL+uP8+3OmwuQzMu2sV34b/afwpW1w5KPz8mQLAY7v45/l5xJzJpJIJJNPNhaMhfVd7pyC9p5u62B2t5OqQg7o9dk98Le/zptZ8tUj343rCwaHPnbapf830LOUpsHkK7xAI6/PTge94LPOE3+8n0+YHPlW8zceGCwfa3lmin8mSKPke6xHvsfzj/Xv2tdTaKOuMkRCDuifnThzswmR796DlYzx9q3cuQr+YdkkPLe3/rLF+E+N/zIePXr0zTeX08aHQaoKAu+AI4Pcr858mU80Q76i8VXfys4FnC/RKPkSyVu37t28+fcbN+/f37pf83DrmYjMQj0m1jw0ZFTZRNTthKfo+c++TL7/P/bOLqaNK4vjVwlk7Hw4NmCiCMqGNE1Ro3TVB3hI0aJ9iYSUEEX7EEWUDVtlxaIopGEfULdtIl5aqUq1fdi+eB7spLJlr22BcFfFAgwmSxWPkBAFhIORDWODBJVoiQpJm0bZe8ZssMNHGNszzNy5v9C0cWpBcvnP/9xzzzmXlRVBfNGYBOqLrnaRv0uXH0F8Qx2RiC2SZDwyPjE+Pj6Bwf+K8FiFWIG/PslZ+6xGBsNf+ybiZWUGP0RxP+3dnOP3rzbRIk/JxGez2SLwASJcY3wcPmy2IA9gMwQNZuWAoL1P/0x+rkXgIF/WwcpNspldAvXFAm30tnypxBe0bUoQS5EbGhJskF8zQcEFsQAfZjQX/u/akB5i9pSZ7KysQH2ZF8a4SKC9qH/pLKLIKj6BIPym4IkT4xNBHlvg4ydYfQ8z0N6//3FWG0EnOvTR5KT86mO9Q9BUJEXg2XQeUWQUXzpCJDoRgZwMJEYfP34CIajI9tnrVYT3Ea3/peJ+IlZu7F5WCueDMpdnn2skZllHQeITwP8fNw5BKBgg1h9EoDv2vW/PnSW7fTaFIux8Q6zMQDO7JM4Ho11uayRmkRcQH6hqp4AHws/j4zwW4Kdgfzu9jEg76wfik9/5+rH4YpKEnTH/6g1a4SmV84kFTiSCEIH+/POvIMCHr4w5z13XjO+tiU929dlBfHelwB99sETFJ4n4vEFbJkQicBgI8nvy5NWD4T/5nXa0p2vA4tuNbKf3a4nE53+Aj/ooynC+JBGBIMSfOP2yXWXLuY+1E3MixLwP05NkVx+M7rwLSHPOrpVHZxLFi88WXAtAf/z/CcRWYyM+fh0RPbJlg/h2x/kGf4pKZH2B1T8giqLEJxCxQUFa8BEOP7cwvv98qLHCXNKcDyZKnNJS7LKG4rKdm9ofxmbjsf4g/Nw4J/D7Sk2NoNtN57srDf7AUhGiKM75ANAfhJ+PoAI0XX//fXjuk0NadD42BdU7H60wU1a2cxOwAH/E0ee36acM31/QlO8Ruefz+6nzKdf5ADh6t/EQfT58uN4++54GxkZs4nysvID6JHQ+f3SpSGOPULWJTzC/CR7O/qDyDBKdv7x3QWvSQzri9nyC82lsFVUoPlsETh/4R4+fPBRizvde12lv0UB8g2wa6t/zFWmkKn4dFWQ7N40+IfeCUy+/fPgXzcWca4fsJO35/NT51OF8L2o/wf1w+6wWAecjK9vpj1LnU3i2M4VIJBjhH33XiDR4uTdxez7B+c5qbRnV6nxAxN7bc7P1eEON9tS3cc+n8mwnPWpQmfhstlnnQPvC0o1KrWlPR9qe724s5qflZSoSH8fNzjk9Hrdzof6i1kJP4vZ8uLD6XQ1mrdWY7QQ429ic2+m0egba+958q6ZKS3u/Xatw6ZfqnI+2FKnI+YLc4NiU1WnFeMIDcwtLDTpGQ2HLrnSy2wdxM21AomM+Kj71ZDs5ju/Btifg8bQ7R7662vw37Vjf9d3qZP8tINUYiS46Nlctzoe1F3ZbARCfNTzguRlvvnhaK6Hn7kwvA/FJted7QAcoqUV8XHAWtLcO6G+h+aJWjml3ZXpZ/6BkzheL3dZYUxhSrfiw9uasL+GZcy580KKR0Z3C0Fz51ecdlGpiNR2aq5ZsJxccm3JvEJ+1fcB6uauhEmmAQ/I7n3DIPhEN3KXj4tVD7p0vyPFz1o14PB780/QNTcQv10ymXRia2z8elcT5otE4bWNXRbaT48Yg0bkpnvBCa0stQ37e5cC4vZ+VF3u/cEWYX5IT9haablGF83G2HieIb3PzG/BcbqmoJN79rvFDHazc4MsxY4GYJCfs2tiqp6FG8Q3yaYnOjfJr97TeOMQQvpbX7gS9rNwId7L7pTjko9dCq0B8Qc4WHAuD722JZyC8MF1fc4bsR+m7l7hJ1s7Ki1R3sj+7VaOh6qQ0VJXt5Gw40em0boMHb/zu34zXIaL56yWb3OKz94PzBSS4oujWF2Q/KbdCZc4naM+6PRB6Ot2t7xNdaV37ET/Zvwvii+Xe+WKxU4iigmwnx/dYXy0+OPK72fpWdTWxOz+m6sY38jvf5NPf/LHcX5ESv4goKnA+vsdt3QlhK3Q6XCH3wL3yOj/ZYWJlBJyvN+rP/THDg0Z6zKAC8XHBnjnrDsGdDguXzxLrfTpUKLPzQSvt05xLD2pbtFKQm47KxMfxuH3WulOg0nqpkdA+FQYho6mDlRNwvqe5PuWLxp61VRK8Nd8eFWU7uUHhkEEEztD0FWLnu3zJd8iZcYECl/6fArEc7/dWP6faU4HzrR0yiMA9EppPNFYTurj/vNMh6wwlqOwE8eW2i+8Wo6M3NCg/28nxU2ERQafH6nY5HMOh+PlKIvcUuvfvyDrADIzv6dc5FV801tRGD9eV73xBDg4ZxPiex+lyWCyW0HKimchkGtN4yTspa9jp9YL4/LkrKlt90FKp09Bl3umoR3ycDSc6RWz4PB7niAOLz2cZ7kycv0hi5Fkk7+hOEN9sLovLYv6mxtMMjTlVID5xiU6P1TlicVgAx+jKdD2JTQ4nX5O1mR3El8OJudHAs6UGEpdFWeQk28mNifE9K/Y9l2UNV2i5r55E79trYmVEmBUfy1GSMxZ4duuLQ7SNSBXOB+2zYmJOIdliAdYiz6sEqu/aZ0NeVj7s3v6cDHDx340ForebanR0u4eQCrKdHA/zccUkOkcclnV8o4uJ+grSVlpfe4mTL+6EZGdvNJCLPEss0NRy8sxp4h6GSiR75xvke8IiD/gsqUDk2U1e5HnxO9tkh7dDFrwdXm//U38s5s+CaDQaW33WdOuPX1QxpC2GQslWfBwXnHWK1Z7DkoZvZTlxtRYRha6qkZ+0ywVUVf8UC2TJ6u3bt24cQogGnAipRHw9c+IqW+CQ4SV8oeeJesJ6HHRnvvxGRn6843uQDU1N8aWuOlRx+iSiJFF8tpMLjs2JOly3QqLzZXyu0eV5siJPBuVde01WTmVD3am6uho6LSIF5TsfVHRaxVaVWTbg8vmGlxMtRF2EwzB6PYPkQpeD5xZDaoOXYskq28nZ+ClRvudxu4QN32bmt5KoJ6zSjH4rUyRzPqjonBPneyOWLRnunK8ntceBQsm1+OAyIpHV1A7LVviGcaUZsf19FEouxccNzoatorSHg87twJVmzbSoiaIZMs92QrJFXOf6yPba87mgx6GGqo+iETJ3Po4PO0X6nsOyPb7R5/Fmws77KJRcZzs5rndKZPus5ZX4XLi79ko1dT6KJsjU+Tio6HSKauFzWF6Nb6YzXkfPmyiaIEPxcbzYROeIw2fZAb7u5eNETnWhUHIiPo6ziU10QkXnTnA5HO+06an1UTRAMtsp7ZxATzLZsjNcrvnu44TfIEahZOx8YqvKhE6GneIYdkwTfoMYhZJpthMnOsOiW9d3TijUebnhNM26UEgnA+eD9llRGz6hfXbn+FzPE9M1dHYWhXTEi4+zwWVEoipbLCJxrTiWihCFQjYixRfkuMhnMCdQVPuswyKS0dB0C825UAhHbLaT48bmRFW2CO2z4ll+k5CBZir9U6j0y1YXIp2PC/JT4nwPOhnEAkNdHPW1ZHwLVB1SIdVUhwgpLdsJiU7RYyMyYbRzvoWM1toLXSqkoaLi3YraisrKSpr4UojzcRw/63R6xM8JFI9v+Hn8PBELf6Fr5P7APYl/DKws5w7HcqfrnXdutrZebm7uOou2Jj9/Xx4Bj8d08vLz83UIKVB8s1ZRg+HdIk7XN21wQOqnsuargfsSc++HxdHhHDIT6uycBxLTfW+/3dZQVIM2QW84csKch3KAfn9BwT5lXImkLz9SYjzMIKWJD+YEukVXdGbMzPwSAYEng/T13ffvSUu7w5dboMzP4ggtzszMLM9Px5eaK2rPbPSIEtZemhPx7TeWlJTmK2Kp84xl9iMHGYRRVLZzcCxsFd0+mzmu7r7jyngaZoXu5JVpicXX7l6/dybrf3wpK2BxhUIhV2hl1HEz3vBy9oXJK7GXZSg+nV6vT1nbAkNZmWEfUgJ6EF+B0pyP4/DYCJGHDJasCC23Nqjf+tDJqjb3gKTy+2HUZ5EK7IKu4eFQX+L3/2o7X3Q6VX95J+z2Uj3KhGOFhamx3WGD3V6Yj5RAnrH4hfgUk+1M3vzsFFnRmTHhqZ4p92JiunrrpMveo0ePKWPBXoG+Li6x+EIWCXFhAfpCi8+XE/H4xdoqJgfOpzMX299Yj+2Y/QYTqxDxKdD5gqA90e2zWSz4mN0+EXYsdnddSB+qvKe83Lwv+Z/4b6m4QA2+yFzoapdUfGB8kuNwhEaH++JXKlGq85VnJhlzmf3EgfW1yyvYu7dAr4i1TDqfDilIfJwtOBsWfftsFgjic412T9fp0/YZhWV2U3LVGKNdJeJDZ2ouO+5LaHwjPossjI529/VdbSxCiMku4aLHznciJavBYBRyN5ICnY8Lzs65RY9sydb5cMKts60SpWI02cuS4tMbTSoRH4NQwwf3JGNgOWSRCZ9lZQUHn3XJrR8OO0F8WTsfoBTtpTmfMrKdwoUogKhq6iydbyjswluNRPNpXar47IL4AMH5lLJmr+JPbumMD+dEZMPlCg2PxOuwWCDszHzPB86nyKVTnPNBotMq6tZ1J2gve+dz4cAz0ViN1ik9UXKkIMX51HIW0RC/d18i41t0yaS7EbewlRgNdX5w9UqVEHamZzuZvM1rXvS4aCQvbaVAfNt+h8Nb9C+bUupr6a9v8kkZ/Xa1KnDSkfq5dBudT3hZAdnOYI+o/Z7HKVSVZb3ng1OnxVBX0csLoELnq250D9yThJmQLMKbmx3r7e0dw8N7fK7FzsTS+arUbKd+/95j5UZjYaHBUGg0pz0S9x8tLTTAy8Zy857DOryEx8zmwjK2uNQssAfrKR+/dEyf9pZCAz6NKDXvyV+T0gGzsdAgvFZ+dO96NQxzEF6HT3pw/bV9B4+ZS4UvxmAs3bvuzfBZ4Fe6AnOhOW/9/cLnKj96IC/pfCb8eC+ALyH59t11vsFgj9ixEVkvdjLshOds93QbQul7c6SuPZ9ARb1bGusbliPqnOud6O9nWfwx0TuFVzc0M914Ju/EC+c7ZjjxhsnE2lnWZGdNJWaQjECe+Ugxa8Lg32KL3zDkMyjfYCo24V+VFeMfZawRv3TYUGYqzE99C4DfV1byP/auILSNLE2rpap6VZK2VKVqqRBVFKUgpZuBZNlDckj3bHZ7lgYfOk2YUwhhmiGHDgu9HV/67FPDMoedw7KL3yGwyzMu1EOHaA4BO8TdQQMOBhNsg3FyiDp2oGNoyCGnOWT+/72Sq2xJdldHJWWMv7bS0qt6VUJVX33//7//f09c4ZLheJRiL+zXcOUeTV0b201odVwFdhU7N5oe748bmkae7EXrqKUQ9R3DqXquLPo7VZMxymHle8pXt2yP92e06ZbI5MiHq64nzGzhDt9IlA/Qvn29b06JSPn+bub4VC/8WzoeX5A+94KtDYpgDPh331xYDZYf3b53dSpSvlpTsAXA+VELr4tsAPVwQ9jfUTJEtmkExgwZ6BKN86myy4kT9mkUuTzZZtREWY+opGSZyHfPM3GTJWhCirrZ+zb8X0MJL4FuMitfsJp4WlfGPa3YcZmeF8oHB6RMtCJcZVLkwxG+7k6izJb51ixiFD4ff7uy/dOBVTP/DpVPzahnn6eS3DKbPnbWKWWLC1ubOwuLjNLOVjCLSwlfj5Qvq9toEFZqfq2ORHFKGY56FZhou5VaBexA3W6g8kmGrjsmNOsIuy4TQT4l6kIbeh0s0rprWShnsu6BgllwGGzS7WZIecWC9obr53K+0TD3aJI3bJ1/mZpfwT3M0KIlQD7daDLGqNdEcZYNE7Y6Vh0PbOj4TVD5KOqohVaxi3pbzaoTinZioHMnmcPHuTc65QsePb/XX1cb9/lU7ogP9rilIdKI29Qh7XI6cvp5CnkuM63Z1IVvrrVI7290IdiyHATBwga9v4iXOHj6/HFP+YjW+51JRs2DnDAfPxPFphRvc1Ul+GOrUh6aVVVFhjUKqqpp8AEVDDVJFsxxKPWsIjRjBwIQumpntb3rqoQ+XwXarbKq4k454G9VsIxIGnwN8W0kOJNpyD3ycfGu2lYtr2LGBvRvcsby02kkVD7PqikaflIV1EFXnojyodH551+y6vqofD5E++Xq2f+BxxCa7iQLb5SY8mngiNuO49iGr5BYwkStbujY7uhGLAdNRgdfVUu+oYs+Mtm7oiUMGVi2wzfUlNFLqnb5x90RsG/8wwzAN9pdXQ6A58C+NUbpVhDA20frJnMH5KVkGyYT9zve3YY0oCieDzWoZF9upxJugS75A4/ZKmvW+p+ICioZ2j48CpADHTb6KyPylskaedIjHypopRQVMNC6dOg4X9lmzM5PItqJure4MN/aTEC+FuQhjVT5cMnaP3S+ZbpCwnG+YhTtdK0qY8xkCDvbC336DRaHvjecW4K9jYLhiHYTN2m9OyZqRNi5UcdRiaqd+vWIube0ejd97iHd1ud7ChugDbq2iu9a67QD1Oq/33XTtOVQmryaNGScLxpkJ5HPhwRpZg8QzTIHEiCLR9/TwyG1QCpIn1fYI1/V8qVej7zDILAZ3zmKdu5x0fVotUAmonwPeaAz/fLZ4T4frtq3s8HCa6Xuz3AxWRxNXxW/as1jAjxGAEzqBazKVdiryWJwepv8aryPON9oQQg5uzpa7sGQTvqDfPOLlKHRGWJ1kbHFFn+3Ttn/fpDpg2wBDRRBPlataEMyXIpkgPIpDmVWnhwgnzeQfK4QPkR4Ms/vdyXQ7syRPZ8vRs9ck6fHHaZ8Qomz2gTIJ7LKknDvFh/gG6HyIVqPgWQVQsKETi8McRqCcbZRB3fZRr7ZobHoOz2Pu4Yed5QEVRIMq/I+rs1oVBNTsMM+AKsKG6zRJ/qq7z57MFLDM5gbg/DtbKCdGc1thULYwndIvu70VL85aPTI5ze5w9UHLVI+jnLP5yMFDOIc7GF4g8xOSefWbVwIaf9eaOGaOXWPfBGJ1VoVOxyR4eJXKatNhnzJymc3w/LZ0fp8c2sdxr6+LB5e+5SPMrDfNa4peDkZC5+yWizjgeCGRhiE5uSz6wWJYB/JNSPpOy1LnG3wIqqPCpmCsXH+2r0Run1LT8EWTB8LHUpvtYO9AqMupfBcDFD57rNu+70pbZ9xrWZKlhk+B8sOpVWjIJGfq3xIV1qX+8WLOnilIwiRpG7s0IUGo3zoPP5lVE0oHwnJZ5VI/LCerx2hfEjpijb+aCdmlSWKtczz8tlRK98Wo2z97ief8mzefbmdtJfhQgCux5gl9c92p1rQP6v1lA99R0D47PQYbOpL7SWq4bHRP+8IUS/c+DEpxSY5zIAIgHxsc3UPQZfRzk4glI92n25fDyNW+ULWx4i90/AoFcqnWhjLr9puLVeWtaN9PuElHoiBIIcZvU+bet0v5GU1ctkwECnJApKGEZdeV00uZ/1a3bXsRpXuU75SzGyFOE72COUj2QYFSo9d+R4mWYwIEeneKH2+zXVGN7Ze//S7M6HymeWBVQ2lBmNOmQxw7j0hiaHPZ2kRyyoe7Qx8rPkeN0hHj9Pv3RyV9M2gez0GANnYYoQ1oNwGkA+U7/F9s7u7/Z/8OZZz7Sp3lnkyS88DKOrwCeE1dDebJ0cqH7DS678iNYcCTOCxY1VykuBfEWhhWxH0KgvJR8p1vekJ793Ejjkt0698+LhuZAk5XPlyWLSojTva+fD7NRxkSAAsXR+18qF/T2kX5o+/ygVNKB/pz+1EhQMZIwOIZDJWJ6Hy7fflchjX1sigQBqQTyUpzKZ07rcjyvFcWg3a4xC+ue4GpSzCt5TS9c1Q+e53n55Fp0+po0EP5Gg4tq43zFD5CCkBDXr5W6Zek0N5GaJ8KIm02ic0RM0aNj8BomrktNA9BDAT6S7+o4x31XyHn7LabMCXseF9jgzw+TQXvkROPVT5CEE9HbPyoe7htBGJjE4RbBmtzxcsMEoXV4Pg9vS186h8w+v5XI+ZNXWgipl1frlIfj/5iNJgpq4NsA9zzZSUj2hTP+6Ohnyge2NBd+Nbxjb2/uswDLi0w2hn9x5yjyD3mgaEq7K5slLi0U7SmxXQB+uvUeVE4RalELiDykeHKx9CK+LIbVPkgTk8qInk86oAryrgebQmiVEjSnVMt8kVSnK9uk/5ypFJ5JqgfEf4fIQr39jJ990CBDqTAHVv5Mq306G8tggmEuQzSoho58CqhtC87EOWKx/h5sgB8mE5qC71dxHkk0gq9Q132qMwPHdfzY4Hc12g28LWztaWeOHfDozzBaB8jHXvwCNRLTiMNbisEYBseah8ETSl4Fd4Algzqx4a7cTIvjdQaAjPnfDrIhKtQAOanZaf9X188X/f8TFxRbZMer9e0lSVIHi0U5wqUr7I5yNHKd/4fT4xR2cK5bNJlG9rZ2cLswoXApDAV/dgvVrSp3wx8tW8fda5puSL2RqmFDLGhigfsRlzpJgsyflijvcxU1E+xJkPb9x78wGHB7vLc7PjwQJjtBUEMIcLfy3DCy+1UL4/fHiBU8bkd2icfCTOHKQOz2J2pXgle5/yiWindMhQqeLblIJgkUxeRDsJNscDZjmHMSsfeyZz5RsY7WRVXyPJlC/9aKcon21tJll1HQgyWuWjjIOuiSlK5mDxhjN9lexaTOFiQRLZd/VGs8o4BPn6lA8bbDMin5R1dafpAe3QtEpL+QhRP73aenOjc2Vc5etzkF3GdjCdrN3GVzt0NdsBkO/7/5IxndOtxtJASDTIfmDyKwcTwHrK1ywO8Pm40BxRHe8Ky5QoNg4Jct7FQ9zEb8a1Sj2gfDHywRZW0946nw8DnYl07xsIdI46pUlQj9JuIPJcnsLMWYdEO7VsFcknLrPtsR6q3kHli90POmOOLN7nUO0EqFdlaSkfnvXys/k3lb7leFJn+jUN3QApx1/4x9HefXyfuZLIwYoXpiuGGSlfDLJNkWIIJF9hgM+Hcsbg3XCIkXvUIk2nIGT92/nYORmmfHlCYkN4KGrJlC/9aOfDH7Y2E3EPJ4YftfKxjc7GOqP42BXL1T658f4h0U6S7ZhhKksNueM5uuG6EAKooM+n9vt8CFQ+ObwSoo8FfSrZSmo+H+LM5ek38/uWno6Pe8GtRQYhr765dB+9uieqGkSGcjOKZCgDlY8X8oWeHYnSThBRVQPRYB+7oB5OPmaCFhFVDBUMIp9Z045WPlJuUCDjkcrHxunzfScWI0q48vNouYc5TJ0tGDmE/1NRwRLMPZ++eG54tJNgIpCriYRZ4FhWkTRCVEL8PV8wUr4QQvnEjQF99GxeEiPwYbQzNVyank/AtRRmyU1qhWAdQwQxk8v0d56oaiB1j9EoE102TDZI+XLC7BTFt5jdMKiqwfXoEZOB1qsiYZTw8SCZ9JFzv6BVhma4yLrHPF97u6KdSRcjuhXp3mijnWDmtNYZ4xEXwIvbd/4B5S7y+QYHXFDqLJmEENFONebzqQOUDxlq57We155itBOhnpm68gbFfTN9geWUS4rYt4s7wYEl3G5fucwr2YWQUeZGvjP+qooIJ0e/NVEMT9iLPd5I/dFOjDNT2jhQCaFJJBaIxqODlBGiQK9mRRrE8b1iBbVsiCwmQb6Onj+Q9mlntbfJ5+OBzvlkuhdhtBkuQbDVoTTM8nz68qdrh4zz1cOhBgIbmK+RkEiR8pHhypdxee427CLaU1Y+ZN+Pq7+YfTi8PkasLlL27Xp3a74FmN/c2VqYh0raK1MfNWhYz1dwTOBhSZLkku9ajseAZXnuDPJpkwr5fDlb16HZKZKQbVgPVlQgJS0r7VM+yTCx5q6eK8O2Wr2OrQWDT5tUzOeLNdcxUT95kBOdg6ZVKSqKAptyfuUdSQgvpVZOluR8tm7gfDDMKmh7g+wkFmTF0IBjVAqlUsGv1WvyxKOdYtX1lBYjSp7hEqxRytY4vR+93P4KyVfWBkY78RHnY0xbx4KgmF8d+XyloT6f5TEvp6U/zhet0nPqy5lfyL3d8XIPS/gYA/oBHsNrg9EtsDkvadKe8kEEklIT00mcXj6LZ1ckIjuY9dJ0HNEeJa9gB+ZBc6OpK5HPJ5QN+rBqw3GcZpU2ikTELz1owSaeu5YTl1PGS25WHRvgwKFCo9ZvwD4N+DJ2w6OiRqzhKj2zc597iHvSqoOdParnJ618Dzt/Xkjk8CWaNiJ5VUNwa53S+6KkZe72WSBfZ7DyKbqoRCCybsZjb3GfrzRE+Qix+HFTz3CJQNRTNwdZnm9J9fp+IPsojsAI0K1X9y5rRKzVEM2mImqRqafXdZPyyqC8TbE5RNycLPJdAB2nREikfCLsHHVq5gghNU45AcxSy2mEhJZsk8VhKLy5jpwSMJ264VGKgZae8sUvQs2JnUsvk4lGO9NfjCj57GWYYLY+3+aTlU//scq84sBoZ5YxEWOT9O/xmkUbvjcj5Rvi8xGLMS8bV75OqsqHUJNantF6YOPGXGthcR2CzxsboHyLf11bvTl1Gh9/ut6jk1zRG80maBwYjFImX4dPcMtKNdeyQa4ADUevl2IeYNmwG9UqNFt5IJFr6b07nBClZjkN3sXRjbJKSLli6CiS2GZbNZmQvVRZ37BFO6irZfS+jW854pSur6gSHM7j1Maz7I/C4jcNz2WLbVrF0t18NCxUNCzdH1c93w/dzVaaGZ3JK9mDRcbYGlfB19tfdwb7fCh8QqyEzxcb6Pk5Ph8vSKpEavnvTXRn0l7B4dSX84nnsV5amZsdO9pzs6utzZ2dTVgsZ7X16Pn0KZEQpGpRSF8uF3KFshI2SOVCXuP7SApsyBWKuCUOooC/B56dpBKcYiM6EoFPvE+5JMNGXmCZ0eQ8NIkTEELiqWuivaRIEola8wU8JXYXn4paeJa+bHlJKWL/vCwJPY2+CoLg3FBqZjzk+64LfEo6bUSqyodFRZR1tvDd8vOvPTporQatoJsiDhpGXnRFbCByzkB7RDtinA9DpXbvaHLBwENIJHX23VxKyr3BDvaYGNgO2mB+LG9fHjSbHAEM+EB66N89BL4fsina0n+QeHu0ddDu0RkOPUJmEERz+uTDzJbuVrJpI1pJdS95JXtY2dDiE5mtmWh29pSPuRWcKrJSt5osFD6ecctox/LL5YJfcW109JnnlrVDlS9vQx+9VhR9RC2YW9QyKWNqOpnlOdMKgtnJAbjH45waSXifDuZN5rAOiJ91dLHnm3FkMPfGu0rRwx92QPaSzhOYtvIFEOuGyjE+uoTki5SPokttmjF3WzjcyB2z2ayaGCMwOZWavnbYOB+pmIz3aXqM9fpUK2lbntqlL4MkWda74GBPEu1HL7anLx2DtbrfCsSU7zssn006yJBaVkUnmrczCHY6wMUdaH4E7T3yWSaLw4k8dtnlDPqeAap6peYwAJb6lYeO8xGtXmW9Tib0scN87JTZRy5d2UxgdD4Cs2+SgJqGKyfcSyHaiYHOVqJRhpQcPsTC2lo3onYAH9f4TK0L3T+6eUGJmmHpNgbBMFKF09xG/oHmW3aj0YDmSlGCICeGtHzYqriGUYlXNdQNoxdX0bIG9nF0q1KQCVEqEHKraZm0QaZu3H3wc7kXTJZ77eXd7WfnMycYvfIlXXV9fj5FGwiKxgDRx7k5+IjNL987TXpxKE2TFfDsymWkI9kXyiAKtItMTd6SL6MuHuYbEBL2yRABLV9WSOrcI+rFq/dEzPNo3ZubJPfasyuvnlz9UD3RvdGTDxcjSiJ7opJhXAjwD2+A13c/O39ooOvAxtgnTsvhiMXexrdMOJ7s0xurSz+Le3dnJ4d2sNy+e/s/Pn1r1m8+BhDkCwOdYHMmKZ8F7o0fK8+fXd5HGHwNc6gSu2CTwfk72zNHhl2WltsTDHRiqOXuszsnNmca0U5cdT2JzSkGGSaA4PnNKfVYPXyJql28/NvVw3PNHuxO0uZEk/Pl9tlLF7UTmzMF5cPy2VYK2dQpxNuWr356OnOcABKtXbjemnmL45wBLIZ5/ULmJM6ZSrTzh6TZ1MHcZMjXXln56eMzmeMGon3x5BDLc2l5smHOlafPPjvhXTrKh4sR3UqW0TmxJKdHr598duzIBzf2ud8/uTvM9NydpO5BUsvL7WfXLpAT2UuBfHwxooTTRkzO919e3r5+LM2fCx9f//XMkMmpJ+nuwYQR/3j94wvH8BefNNDshMWIkg4yBBPMcmo///LcsbwTSGbqysyDQTbnRHPKXtx9cjlzMsKQEvkeYjZ1CquupxZ4u/e7i5ljBwJ/709d3f6/Bw/enjhne+X18yc3Lp85IV865GN/+gEH+BKWz04QczBz/DEkn0i0/vyL38zMPHhb4pwQ5Pyn9z75PHOClMj3p87CrUTCN4+Bzknixe1nlzLHEpjUdvr6zTj5luYmGGpZfrH9ybELbr09ePcvj9cS6d5mC0vXJ4kguLt9KnNMQSDw8vtnEPaMFsCcDPnaPMj507X3T8zNFMnXXWglm6MzmJ007rZ/dSzjnWGm9fl3z/53sITJ1ktLKxOiHk6Kuz391bvnT5y9FMl355ulRPPCT1r3eD37q19lji9IRiMXn6DjN9MCAZoM+4JXKzefXcxoJ9z7pYXxH/2zSo4k38zSN0lWfp4499AVeT197Xi7ImfOfXB2e2ZmMrGW9uyL3ddPvvrg3PH+jVNkXuajf/nN//+rSsjIlA8BDt9bgEewZsqFzDEGAZz/4sqTe69WxuzzocG58ur59pMvzpO/sXc+rYlkaxg/paV1KnoRmmzcSS+cVChvIEXAimI0arQJSeOQTQh9Ey7Z9OIm+Qr3A8xqdr09EEZuL4K9cROY1YVAb9zNwoWgI0wGAllkPXPeY+kpJWnTiYn15/zsbkiQtpPO4/M87zmnCntrA/urALUB58oaISSjYmW68z1+Zxk7wjd/6ue9gyXkbbCaOjzdP79rwSHi14O+WuvufP/0MPX9B7JwzlD9nVJBeRlDJ4Auq6C+WTmfIwof47x/lvTqxGUEXluvNW56nT+vX8v8YAPDn53eTaO2voaU7/6529RIMYN8Kz8FvgWFCrEwQvJ08f36++dHFz5H+B5wsfLO64VEger3/v1Ju92/aH19DfejnnfRb7dPPrAjW8r3ak8uEkK0nE/DKphevqiREflwSJ6Z833+7BTfo1w3b94jz6MgjNcOTw9Wrui7Xv2lpffp/La+cnB6uP7EE8EGYRgy9p/5KZC5NWJDi8E1sKc636+PvkanY7T3qdNs/MMn/8Pr60tLO93Lu079ZbXXue51d5aW1teVJ2lPzmlkgJnxnfkpqGCScfbeLDzC+f77+2Pvuu6Y0Emv5HLR/TfyAwoCsrs/7bd7/VuYfX6Zdc+D+eYtnW8e/LSbfeqlbBSVi49oeZ+pT8FqRifjrFLnU9WZrPOB9j45iFaz7dHtnfcKUMFo8fTgbOWi2axf1Wd9WY5m82Ll7OB0EasKUp760yeHIxUypLzpp+gJfTc0qb7gm3Bo2sDlP7TzuWiRYUTz8p9+OlmtoFQqhXZv2pd/dWY6fKl/7dBDQze7Smo99Zy3friCaqRKhuh55B/zg7ee0EJkTH2VSCwsqxjPYp3PMYsMgHWfTOQ71jZ23y73aP686ly36pAYnxw1YbZ53YHV9N7y292N551OhsrHbuGV1v1ofsz3F6IBk3Cq0QUQH3p+54NdZc7iy9Xd/tYa8hfM6vHRx+OzlX6z2Ty/arXqT1xTaF2d07DZXzk7/njEW97znC8WCUqJCvFf8xt89dG0RjgJmLcg/IjO56pBJ+NLq9Nu+E18A1JqEn1odNuXzbtOp/W0xtzp3DUv293GB5RMKTN7738TDEpSlYwo+sT82FcfKxAbOqROjPHz93Z+/sVp2qPO12mf+vHyyYqVP2u15Z8Pum0aQfu3nQ6kUIihDwMbx1pf6TNv+/1er31z8PPbWm1jbUa3f4TcCckrEghIadPW/FQ/mB/rfHlipxSFyjf9PB91vm/zGxzhqzuMVqf30Z/ON1AgxghtHB6dHB//cNbvN+HRvGo9DB1pwpP6/ZUfjo93jrY2BqKblTQwBvXFaPIMSFKJjKhkfGB+ID6DjJGO0tQ5zfjwYuN/9OrT3+ZL04Hc9g7eIb+TTKoqzjYa3e7+fo9G8euHgJi5327//6aRRaqaTCZTCGE0QzBWZTp0iUVBfekfyQgj5HX5wZbOIrHY3iMULcIWGqYfpv3jlz++zaUz6e0L8QE4lc3+q1arvcudNLo33W633W1z6EeUm8ZJrvaOPimbXUcvBEayDHOHSfPTPT54GVth35PiVZAgVL7p4stuLC+/dSneumPDU1EUy3lwdmtra/GIsjPk5GiHfrhIP59FWEUvCkZYptGTyg/mLmmdjChmPFz9qPbyhGsvISWqGll9w1Ln9PKguvf74t5/+YuBp3zuBcEI5BeKDcwvUSIcw6tzT7jaXJkMqUqMVRKMQurESOAvFDQ/YOxizV3A/CpkhFZIelF+cGrdJBbaqiQFgkCCzTqF9gSvCUYY25rfqk5G6AXVa/JTFKzyc0Q/pqn0ItFoNBKJQuoUxid4XUB8GNTHmt949tTziqfkp2CcMcmQ7YQUiERjQDS2EJZF6hTMA5mbXyJuEo6Zw56RH7M9Yq97Qaq9cCgUBmQhPsE8gLGnZX5W9uQUcx4Jn7ztAfogcsZCIZlC/xShUzAfePODJXc2e+cU8x5wP1hXL2s8csZBe7EwiI4+ZOF7gjnBx57DwUu8pBGOmUfulh8kzoJGbFPOQAAiZ5gZHvxCQnuCuYHRePaM7xEbpqvdjydOm+1FB75HQfAQ2hPMCW5+kD0t+VXG5OfahQe+k9O2uEennCA9ITqBM8Bs7hmysidst94mNjQjg913FxZFUTcNjYyoxGHKybQnhiwCB4ExkvFIftJAfm4efYLrGYSjD2xvMOVEAoGzsOaeI/lVyHj6dNGmT+Z6hKOVEnzSIosZi8Bh4FH1e8D9tHLOHbNPRcEZg9jYjlu2Fxa2J3AmVvUbyi8wdD+OXth0evtj9/0qEhtmWgpIwaHtYWF7AkeCrZN+3P3iexoZo5h3cvtT4MyeScbKXkKSgtz2xJRT4FQwwpb7RS33k6rmhP0ZGWeu/SmUTUOflN5wbU/YnsDpYMp4+ITy53z9MdMrk/ulx4acWNiewOFgZBu9REF+fNeZXX857Jz+x+8zOyE9VvaE7QlcA8hP5vJj5U9a5fbH9ac6QH8QN3GyUCFjmEPXY4lTtD2Ba8Bo2P1s5S9e1ckEWjk/5/knvPhmoThhzNtpSRrNWaj2xP5pgYvg4dNuf+k9jUxSKeTQfASosLRpeR5HK8WlkeuB7WGROAUug637DWYv3P4SqxWNTKKX85lXbIBceTnDJBPo1QSTHnM9UfYEbgVjNCx/MPu07C/O9TcmwAIIkPJalgdhcwJtLy2Nux4SZU/gUjD8lkcL78z+mP9tk3vQioXc5ssqUBkIL1/WCcc+ZIGqFxl1PZE4BS4Gc/tj+gta8ZPqTyP3oRcNFkKBF9DdZs4o6ve9bClumR4sLjDpibOyAtfD7G8kP5v+0ns6uR+tUp6hCSoAxslcoWyS+zBLg7gJedNa1xNzFoE34PYXsukPiFdNboAPmCBWLJ6kOpCdmslzv5vErMYTA+UFo6zqMeWJrifwDBhZw0/QH+9/rACWdPIwWqVYNvL5zCZT4TQdKjYwxpuZfMEomuQhtO3VuAQEoOnFWN5k0hOuJ/AS4/Y3NECJEU/vfcMBtaERFg0jn2MyZCgTYEDOZHK5fKFglIv8r3wwbFqex+Lm0PTEkrrAg2CmQRkIW/4HBmg5YLrEZjDT0XRdN4sV+vi7vbtpTRyKAjCs8UYOE0GYXXbdDmQVN8lyaAYDbv2H80fnnOO5XgwUWqZCad4nMfYDuvLlXJOqr3/c6ffppLG9njv9A+/STb1291CeDz3eHAnflj+0JcX5F59/h108AzRtP1+6v0/162zhLcqL6+k81cO3JmI3y68E2ESAYZhtFfoE47Vvt8HDu5enhKGHFZDy0gfvrwRYCmz76ROH4HiZvbuX+8SzkeerTWYe1kZ8CKaHUzCHprECI0G/FjhP1/P4HxF2Z81ueNHqXFXC8/KSEU6yYGVuj/h0X4H6ElQ1iyFo5bRD378/w64bx8t16od260p3sdSMU5vMPKyY6K5iAHqBMQMjwW1p0G+e4WzbZC5X3S6jtXad5r4fhra95RrKuIuBFxPP8VknWLf4vJ+kSoFlCKpqV5UKS4vL75fRVTHsvLqYd8e6jvD4oBPARASxBtU8IkF1MI3amepmm7ei8tqC9moazc54dvt9Dk+0vA3nNoFMIgeRVJah6hgR3jPcvanRXR3C0e2NZ1cuKLDWBJYiDZNcnWq1zxW6g+62LdkPfx6zvatVyvNONqw1AfW2KMQL1P0hw3D0gxf5I1aVWe3rS7vl6jw32fD/0sAHhqAHo3sS3TLrqlZxsD1/defZWmy+8+o84KPkcRNJty1SlDjEnTXquRo7cv0c+LQOy52RXJiK3/nIJDrgKURKYRs/MuIAAAAAAAAAAAAAAAAAAAAAAAAAAAAAAACAL+gfG5RZZY6GbCkAAAAASUVORK5CYII=;" parent="1" vertex="1">
          <mxGeometry x="2449.995" y="1410" width="152.83" height="110" as="geometry" />
        </mxCell>
        <mxCell id="3U3AbJrNhwpyRPHoVkgr-108" value="" style="image;html=1;image=img/lib/clip_art/computers/Printer_Commercial_128x128.png" parent="1" vertex="1">
          <mxGeometry x="2486.41" y="1250" width="80" height="80" as="geometry" />
        </mxCell>
        <mxCell id="ZFgZAANVJCpxepYmrR5U-29" value="" style="shape=image;verticalLabelPosition=bottom;labelBackgroundColor=default;verticalAlign=top;aspect=fixed;imageAspect=0;image=data:image/png,iVBORw0KGgoAAAANSUhEUgAAAMgAAADICAYAAACtWK6eAAAAIGNIUk0AAHomAACAhAAA+gAAAIDoAAB1MAAA6mAAADqYAAAXcJy6UTwAAAAGYktHRAD/AP8A/6C9p5MAAAAHdElNRQflDAENCBe0wzZpAAAjtElEQVR42u3deXhdZ33g8e97lrtfXS2W5F227NjxkjgOoXZKNttJE5oESCEt0HbYO2lZUgZSYBgoaYYmbcL2kLYw80AJkMAUErIAiffEWcFZnJCQeJc3SZas9a5nfeePcyXLsmTJSwid+X2eB5R7zznvec+573ve/RiEEEIIIYQQQgghhBBCCCGEEEIIIYQQQgghhBBCCCGEEEIIIYQQQgghhBBCCCGEEEIIIYQQQgghhBBCCCGEEEIIIYQQQgghhBBCCCGEEEIIIYQQQgghhBBCCCGEEEIIIYQQQgghhBBCCCGEEEIIIYQQQgghhBBCCCGEEEIIIYQQQgghhBBCCCGEEEIIIYQQQgghhBBCCCGEEEIIIYQQQgghhBBCCCGEEOL/W1rr4b+OqymV/eHPL7+yHYD29m601sfs+9vfbj+tc5XKAeUR59q27WUA2toOHneuN5rxRkdAvDG+993vALBt22/43ve+b8Rs+KM1l6m1a9eZBw92qKlTm1Sp5KhNG9eZSinuvfdnqqenTwUhNDY2nNS5vnr77QC89NIr/OQn9xrJhMFZ82aph3/5iNnR0WXMnDlDlSuu2vLYJlMpxUMP/lyVyxUVBG98JrF+VycadaGq+j/xBgk1dHX3smzZ0nDZsqVhX38h+8u167ynn3qy0nn4MJl0mkQiQV9fb6C1zgLlB+7/ub/68tVGTa72lBLuuecuCbXWulhyss9ve9l/duvW8uHDXcRiNsnBJMlkItBaZ4DK448/4S87b7mRSCSGzhWODEup303yed0zyNCNrFQ8SuUSWmsTCAANUS554wvSY51OnEYfO/R5vL8ThaFQ6BF7nkrchpLS8HEawjDEskwAfvSj/7i1oaFh7+DAwDQ/CPpra+tfdl3X01rbhmF+cvOjjz/kVipnJZOxW8Mg7MkPDkbhKjUinqPOMeJchmlQV1sDoJ57bttt+UJ+d29PT65croSNzc0vayesKKV0R8fhLz322BM/8zyvxbbVzUEQ5AcHBlEKTNMkCEOzNpsOfG2gtf6dZJLX9Qxaa1w3oFDI4weBqbUOqpvOBWYC+vcxg5xJv+/XV8gXavoH+i8+f/l5dzuOF+/u7l7seV6zMoy4ZZpeLB7f0dTUsOvZrc9f1TCloTtXU7PbDwLFSfx2Siky6Qzlcrmxr6/v/Lmtc/+PDrV9+PDh+a7rztCQsi1LxxOJfbma7G+2bXvx7S0tLbssyzoYhmF0FqW2aq2PhKE2LMskm8mEiURsOPzXy+sS8lCpUa64FAoFIwxCTfSwmQX8M/DuyQU0IpZDj11xxihAGQaGYRD4ARqNoQwMI/qxtNaEYYihFKZlocOQIAxhqBF9kuexTBMN+L6P1hpDKQzDiMLRmiAMMar7BUFIGIbDpaeCooZbEnH7jorjBUop07KsMFeT0aYZlYSvR0Y5oyEOZQzH8SkUCyoIAkNrHShIaPg88Bk0NupoFeuMG52RxspYktmOpTFQUR1fHa0sKVBR2j1aG44+TmCskmXEd4Yabk+ooQ2q+lGjdVReHFsjBDCrwexVcFOoudeMMrJlW5afSCZJvg4lyhkJabid4XgUi0WCILC01n41Ib4PuBWYxtGG1uR7z04mMZ9kwlfj7KwnmXfHPn5yR6sTRPREIYx3zqGt44WnTrD9hDeumrIne09O1+hn26jvAx1lFBRsQalPaq2ft0yDINRmJpUMLDtOLGaesUxy2qEMtTPy+TxBGJhoAq01KC4BvormTdWzBFQv7g2nh/7o4erC0K0YqmbAqMfYGGFEDwZ9/LHVRDXm8dXddajHDhQ1XMUZM87H9R5VG6tKgdaM3qzRGIYxatux12wYilDr43sRRsTXUOp3kkVGnfaY2I7Yx9dgVbf/O0p9Tmt9OAy1YVsW6Uw6PFOlySkffbTU8MkPDhqhDjRaaRStwO3An1Sv0gesMbs7ju2uOYmTjzhmjB9zMscEQTDuvqZpEvjBGDc3SvWGMvADf8xEYyiFMgx83x/OaMfccBXVx4MgGKcqojBMY/QpCcIQHerhTDfykg2lUCPiNPqyDcNAEYVhKONoaaCHSheFMlQUp3ES1FD74UwZq7cPxq+ajU4qOqoDhkQP3RLwP23but3zfJ9q+6S2tkYP3Y9TzSgnfdTRBrhHqVSM2hmhDpQiozVfRPEpoipUUP17/C82VhthstWjidoYk2mDMKKqMkYeGEo0J4zEWMXDiOqIOkHxMxz+OPdhrOrMcfuPvicjzj9mm2usOI86/4lKzNMdsBuvx2u8bvHJhFcVEjWWFNCm4KYw1D81TeOMtE8mvffInqlSqaSCqNvWV0qhQ/1XKL4MTEETVq/SGPMsYyXgsWIy1o8+Vmlxogw2mRJlvDsyXol3ovid6NwTlZSTeUBMtM//I50PY5UmEz1TdbUKX/38eLV98pxtWQRBYCbisSCeTBGzT659MuGex/VM+YGhqY5naC4HvgqcUw0tameMlRhGJ6jJ3qETVUpPvr16al3HJ1vKTRSOOCVjVLPGSmJRlT7adpdS6rNa685Qa8O2bWqy2dC2J98tfMLepDDUFAplBgYK7NmzxwS0UgRoFgAPAeuJMsdQhjm2ojrUhh26otFXO/q/1ajjxmujTDRRZaJtaoz99Ii/etTnkfuP17Y+0efJxOs/ITXJ70ff8skeN9ropDU6uVTDsKo1xUDD+7TWe4DPm4YylVLhunXr2LfvgKE1k6o2njBOxWKBIz2DZDMptWfvPj2nZdZ5YRh+UMPHq7v4HO2ffn29nl0opxL7kyl9fp/ifbLX+J8w7iOeY2F1MEcp2KcM47ZEPH53R0dHfurUaSqbTemJSpETbn3u2SeYPWepaVlG2NvT9426+tqPh2EI+hTGM8QbYqx+hNHfT1TrnWje2FjnPNUOyvHCmty+UefHyHlaGo0OdYDCVEqhUD35/OA76xsattRk0yilTvgYOOG5tdbc/7MHjXdc97Zww4aN/UqpTNSlqMyjo6DVSziukVrNt5M9GRy3/8lHXE36bp5uXNSEGyaOiBrrgz6NMIh+s5EJc3iM5FSv5bTaTeP+SuMHO/GNHXeraVmgNaZl4nk+OgxJJBJksllcx6HiOI7rOPFsTc0dLXNab0qn4pZSyj9RuCeczes4DpZV7RjQutey7ZxhGNWP+mifvYZQh8d0J1qWRRgEwwNQylBHj1NqeC7OUKIeXR8cd7hkxI89MixVHShjRNihHjFwFx0Q7WsY0ZiCoY4LQ+vqwNqIc4wXr5FGjj+Eo+NVPS6sxmsoDiNpHaKUMea1TCpe0YOLWCyGWd0v1Brf8/CrYy4j/m/CxDa5L0/VyQemxvuiOr4Zs20GBgeor6vnpZdeYtl552GaJt3dXTz+xOMsXHg22UzGytbUkEjEe9Op+Fg/43FOmEHi8Ti5XE4BZLLZoud5GIahbdtWiUQC0zTpOdKDYRrU19ejQ41GY1kWB/YfoGFKA7FY1P9cKBQwlCKVSjOYH6S2tpa+3j5MyyAMQpKpJEZ1gC0Wi+FUKiilsCybMAyGB+iKpWJ1IM+nrr6efD5PJpOhVCwSi8cplUrU1dXR399PfW0tg4ODUYIlGqDL1dbS39dPfUMdff39pNNpnEqFdCZDPp+npqaGvt5ezKh7kHQ6DQxND7fwXBcNxGNxXM/Fqk7iK5XLw/Gqb2hgYGCAXE0N+UKBRCJBsVikob6evr4+6uvr6e/vr/7AUcKvqamlf2CA+mrck6kUrueRSqYoFgtksln6enuxLAs/CMhkMkQzXaNBvFK5jG3b7N2zh2isLHpINTQ0UFubo1JxJp0Yx6wandEeuJML7IR7qmjEyvU8nnrqaXI1NRw8dIiBwUHq6+rYtm0bu/fs5oH7H2DDxg16185dNDc39w89dCYyYRtixowZKKVobm7Om6aJAiqVCm1t+ygUSlixOLYdp1Sq0N3TS3d3D/l8kVxtHa7rU664vLZ9B/F4HD8I2LhpIwsXLOSRhx9m4cKFeJ7H9BnT6e7qorOzE601u3ftIp3JgFIcOdJNX38/5XKZ3Xt209LSgus4LFq8mPXr1jF37ly2bNlC89Sp7Nmzh7PPPptHHnmYBQsWsGnzZurr60kmk8QTCZqamli/bh1nLzqbn//i5yxatIhdu3YxfcYMNm/axLx581j7yCMsWrQY13VpaWlh//799Pf3UyqVOHjwIJZtk0gkaGvbi+d5dHd3097RzqxZs/Bcl8WLF/OLX/yCBQsWsG79OmbNmsWOHTtYsngJDz74IIsXL+aRhx9m2tRp2LZNKp2mtraOTZs2seCsBfzy4V+ycOFC9u3bR0NDA08++QQzZ81iw4b1LFq8GMdxaG1tZcf27TiOQ09PD795+WUymQyO4zJ7zlyWLF7C/PnzaW2dRyKRolSqELNtOInBvuOqf0PF+BlruE8+oDFPO9zbqLFMk2QyyZo1a1ixYgXXXXcdK1asYP5ZZ3H1Nddw0003cdNNN/HQQw/hBz7pdLp/spGYcMFUU1MTAOl0esAwDDzP0329feod172dmmyGwXxhuDoztbkRy47R2dE5vLbYtk1yuVo2bHyUKVOmcOutt9LZ0YFl2/zZu/+UzZs38+QTT/LWP34rWx57nBUr/oCNGzexdOkSlFKsXbuO9773PXz3O9/lb//2Rm655RY+8IEPcP3116NDTX9/P8/86hlisRgf+ciHuXzN5bzjuut485sv4JvfvJPzlp9He3sHtbkcylB87Wtf5/rr38WqVat5+9vexpbHt3Dnnf/C8y88z+HDh+kfGOD9738fDz70IA8++CBvf/vb2bB+A6tWXcbGjZs477xlAGzetJmLLnoL69at521vexv3/+x+rrn2Gq644gpaWuZw2223sm/fPsIg5JP/7ZNcc801XHLJJfzlX/4FV155FQsXLaBcKlMqlkhn0tx//wPMXzCPL37hi1xx5RVs/fVWfvD9H/DLh39J95Fufvvb37L12a3c9b27uOuuu/ibj36U++69l6uuuor9+w/w9NNPc9d3v805557LHV/5OkGo+eO3/hELz5pH30CBv//SLXR2dGCYE0+Hi5qW+miVrDpv7MzNkp3sePnxeWJ0DAzDoOJUOLRnz3AV1LIswjCkNpejq6uLljlz0EAikRwqSQcme84TliBKKTLZqIphKGMAouI8k8lw1vx5TJs+nWw2QyxmE7MtYrEY06ZNY8bMGcQTcRKJOKZpErMt4vE4+9raWL16Fa7n4boOK1deyNKlS7no4otYt3Ydl1x6MQ8//Ahr1qzmgQcepLenj2uvvYYf/ejHfPgjH+bb3/5ffO1rX2f58uW8+ttXWX7+cjZt3sSVV17JRz7yYbTWrLn8ch59dDNf/vI/8ulPf4of/vBuFi9ehGmZfOPr32D9+nWsWLGSl158kabmZrTW3HHH7SxcuJD9B/ZTV1dHrraWZcuW8Y53XMf6deu5/IrL2bzpUdasWc22F15kx/adrFq9ik2bNnPVVVeydu06PvThD7F06VJsO8bUqc3s2LGTZcuW8T++8AW01kybNp0XX3yRlSsvZMOGDdz5zX+hvr6e+oZ67rnnx3zixo/zT7fdzqZNm1i9+nK01nzwQx9k1arVPPnkk5xzzjm07W3jggsu4O8+8xnuu/c+3vmud/LDH97NT37yH7TOnUtXdzc/+enPMEyTWMzmscceZ8PGR5k1cybKOIl5okqRydRQk64jHouRSqdJplJRe3N0SXJKJYoe5+/kjhxrIk6UzmwMwyCZTEZrWaodFqVSiVKpRLFQGKqWDk72xJPvplX0Dy9qMQ0qjkNNTQ3JZDJqIBoKz/NJJpNks1lKpXK0GEZrBvN5yuUys1ta2L59OzfeeCOu6/H+97+fd73rerb+eitPP/MMa9euY+fOnXzrW99m5cqVHDiwnxee38Y9d9/Nq6++xj333MOvfvUrzll6Ds8++xxPPfU069au57HHtnDwwEFeeP4FbrjhBlauvJB4LMbNN/8DgwMDfP/7P+COO77CBRdcwDnnnMt73vMeanI57r77bp5++hlefvkVnnvuOf71X/+Nffv28fWvf52LLrqYAwcO8MCDD7J9+w7WrlvLQw/9nIYpDRimwZYtj3Pfffexa9dufvSje3jtte2sWHEhP/3JT3j11df48Y9/zNNPP0NnZydbtz7Lnd+8k+bmqVx22WWsXLmSmTNn8tWvfo27774HyzL43Gf/Oy2zZ3HOucu4+e+/xPPPv8Dhzi42btrIz+67nyeefJL169azdOk57N2zl+//4Pu07d3H5s2bWLnyQgYHB8lmczilPLOm1pOwDYqlMl0dB0gkU8dPiBunuhWGIblsLb/YeC933PV5dGDw662/5vnnn8d13GOW2VbTxSmazAzTiYVhSCwWY/68ebTMmcO8efNobmpi/vz5NDQ0sGTJEurr61mw4CzmtrYOdaYMTjb8yUw1MZVSwZEjPbft2L7jM8pQQRiE5m3/dBuWZTN//gKSqSQP//IXJOIx5s0/iyNHjvCHb7mYjvZDPPP0UxQKg/zbt75NLpfDMi1K5Qp1dXUMDPSTy+UoFArU1dVRLBajRqjv09fXh2EYmKbJzJkzOXToEE1NzXR2djBt2nQ6OzuYOXMmXV1dNDU1c+DAfrTW+H7AlCkNhGFIsVjA8zzS6QypVJpKpUw6nSGfHySXq+Xw4U5M0yTUmsYpU3jttddoamqiXC7T0tLCgQMHSKXSHD7cyezZLSQScdrb20mlUpimSS6Xo6enh8bGRrq6upg6dSp79+yJrqVUZNas2ezbtw/DMPF9j2nTpuG6LslEgkKxhG1HVYGhHijDMLBtm4OHDmFbFlprZs+azcFDB5k3bx5tbW00NzfT0dHB9OnT6ezspKGhAc912bN3Nzfe+Al2vLad1hm1uJ7P/q4CAP/45Vt475+/j/b2Q5gTVrE0yUSKnuIgvfkelrQsJp/vq84IVvjRq0ZOM3OcUlIcd++hFYnjdWcPF3paB7ZtmcuXL5+nlNqjtVanNQ4yKoN8dufOnbc6jhP09vaZP3/gp7huBcuyyWZrKBTy2LaN41SwbRuqAzbpTJrt23fwsU98moULF/DA/ffR1NSIUka17RL1DrW3d5JIxKmrzUXXWi19TNNgb9t+GqfUV0srgzAMMAyDMAw5cLCdqU1TomKVaNarRtPTc4T588+mdd581q97mJqaDJZlD99IQyk6u7qxLYumpkYqlQqWaRGEAfF4nF2799LU2EAqlUIpgyDwhzPsrt17mTljGpZlYRgmQeBj2zbd3d20tLSy8OxFbFi/llQqQSKRPHqzFXR0HMYwDKZObYqm3Ffvk21Z7NnbRm1tjob6+mhpK9Hy1Hg8xquv7qClZRaxmF2NT4BtW3R3dzO39SyCIODfv/Ntli1fMRxX2zLZv7+NXE2Wj378kxw4sH9EBhn7yR0GAbXTp7P+jq/gvPwKF//LN9mxdSvpTIZcbS11dbX4vn/8bOfTyiynNuAyue7oEd3vYRhalmWcf/7yqUqpw5N58cOk32qilOrTWmMahi6Xy1iWRTJZG603MA1ytXV4rotl2SRTKUqlApZlk4gnMU2LYrFIXV09Wx7bxPbt24nH49EaAx1ix2L4fohhqOH1ypZp4PkBtbkaDnf30NhQT//AQLWeqXAcl+bmJnbtaaN1zmwOd3WTSMRRKIIwpFTM8+nPfIE3r1jJ2kd+wa6dO0kkE5iGQag1sZhNueJiVquHQ92tvh+Qy9VwqL2T5qZGCoUClm1hKEWl4jB1ahOvvLqTsxfMo6v7CIl4DKUUfhBSLhW44aN/y0WXXMojDz/E7t27SMTjUWbWmlgsRrFUxlCKmG0ThAGmYeD5PrW5HG37DzJjWjPFaumiVFSVnTa1mRdfepmlSxZxuKubVDIRZZ4gpFTI86m/+zyt8+ZTyA+wa/u2asaNHiCDg4NMmbLs2C7NkWMs0Y9b/Tq6B14+z5uufweVP7qM+kSCc5ctIwgCDNPA88505oCxJ75NLnMcN646/MUY4WitdBi6ROtHJmUyGaS6IFkNDN3ApUuX8O/f/d/s3LmdKVOayGazHDp4gFQqSX3DFPbu3cPs2XNQCrq7uygVS9VXt1i0ts7n0S1PUipVUCp6QgL8+Xv/jMHBQTZsfBTf9wnDgCAIyaSTvO3aa+np7eHpXz+Pbdt4nksYaiquz8oVK9l/4AC/fW0X8Xh8eFvTlFoa6usxlMHcua1sevQJPM8jCHyCIHo6v/tP30mxWGLDpkcJw3D42FQqwbXXXB31kG19AdM08VyXUGuKZYcLL1zJ4cNdvPLqLiwrqj6FoaaxIce0qdMAmDW7hUe3PEml4gwfC3D9u66jUqnw6GNP4LoOruuiNSQSMa5+61VUKhV+/dxLaK3xvGhbT28/K1auJJ/P88qrO4fvm9ZQl8swY8ZMLMuibd8BHln/6HE/4FffculwiRQlpCjxpFIpfN/H87zhz47rkkvZfOP72+hxTP6+uZGtL24nm81QX1dHY2Mjnu8du57mTMwpOUnjjtUM/T2u5qTQoIIwLAPlO27/6qS60k6iBKEfhpbYusTiCSw7wd62Nvr6+rAsi0QijhVLYJg2W599NtrPtilXHDzPwzSN6OmGQSaTJvRdfBPKjk+x6BD6IeVymbq6WjynguM4FIplHNfHdwPCMCSdSlIpaxzHpaOjD9fzMUJFPBYnmYhhElJ2PLqPFPE8D1WtO9umjWWZuJUSyjIoOT7lio/veZTLFXI1aQwCgiCgVKrguj6BG+D7Psl4DFNZlCoenYcHcV0PArAtG9vSxEyLQtmjt9+prhRUhH6AaVjYpocVtwhDTdn1cSoegeuTzxfJpGysuI3r+VQqPq7nE3ghjuNQk44Ts2IUSi4Dgz6e5xN60SKbuG2g7WhboRitAgyCgKamJnr782gdMjgwgON6zJ3TcrRqOZR+tKampobdu3fR0NBAMpkiFovR1raXXC6HF2R4/9XLcT2fmvomVq6sHX6ADF3fcYlyOGGeTrI/+arWuHlznGC01iXAX7DwrKH3s53QZHqxhjrBh1v+pmmSSCRIp9M0NzdTm8tF7Q4NtmUxpWEKjY2NZDPZ4X53z/MwlInjOlz5J2uoq6ujUCzjB4ob/+at1GYN8uUCn/jcX2MaFoVShWQqzT984d04pQKp+gQf/Nj7cByPUsWleWojt3zxnXS2dzHvvDm89bqrKJUqlByPJYvn8om/XkVH5xEs06JYKXLVO9eQzWQpOz6BNvjsp/6EdCKkEjh84nM3oJRJ2fFJZ7Lcdsv7yPf3kZtaw/tu+As8P6RU8Zg9ayq33nw9B9raWfTm+Vx+9WoqFY9C2WP5sgV87L9eRldXH6ZhUiwXuOq6NaSzNRQrHhgWX/zcn2EpF0/5fOwzf4VSNsWKR642x1du+wA9XUeonV7Dez/0bhw3pFByaZ0zg1tvvp69u/az+A/O4tIrL6NY9iiUXC44fxE3fOhiuo8MYKA40neERCqJ4zg4rkdNTZa62gROxT1uik4qleLaa6/lzm/eSX19PalUiquvvpp//ufbaZ0zk6/d/RjfefhVervaeerpZ3jttdeikqbai3Xco/eMlB6n1nc8blGgj/9kGKoAUWk5GZPu5nVddzBaE60oFApkszXRHB/DonnadGbMmI0ybWpydYRKkUpnaZ4+naamacRiMXbv3oXWIZ4f4Jl9XHrJxSTTaVZceAl12YBCsZeegQFCY5CL/vAtJJIpLrlkNabuoVgu0N3bRU2dwYoLVpBKZ7ns0kuoFPZRqlQ4fOQQc1obWbL4HOrqm7j0kgspFw7R1zeA73s4jgfxAqtXrSKZSvGWi1ZTkyxTKPbTOzCAEStz6cWXkkimWLXqCszwMMVyiSN9XUxpTrDizStJZ2pYveoynNI+ihWHzp6DLFw0iyWLz6VhyjQuu2QFlcJBBvNFPM8lXywSy7lcsWYNyVSKSy69nJpUkUJ5kP7CAMmsz2WXriKZSrN69RVY+jBl16FnoJuZLbW8+YKVZGpqWb36UpxiGyXXo6vvEOedv4BFZy+ledos1qxaQbl4kIrj0X6og0RTyBXXXMy0abOw40mufutq/vB8l30H2jGq7SyqL3EoFAq89NJv+NKXbubIkW5KpSIvvfgbbr/9dl7dsZcb3nUhH7hqEancFN50/nLmz5+PbdnoalVtsk/sU3NyAU2YnYY63ZQinc7kAerr6yd1kkmtKHzpxRdIprJzOjs791THVU1Dgec5xONxdKgxLQvDUAwODJBIJqtdm9G4iOM4hCEkU6mo2qHixFIWsXgsakgWNJYZELcNvIpPLGViGiahhsGCJhEPsJSB5/rEUzamaeB5IcWSIpkMUEFUxUiko4GiciWgVA7RwWDUCWDFhs9p2VGtciAfErNDbFPhVYLonKZBGEK+AIlEiKnB94LoONPEcQNKFUU6FaK9aIKmHTexLKt6zgDCwWqvVAxLxYmnTAwzWuY5kA+JxzWWUvhOgJ2MXrYABvmiJpXUqCDqqo4lLSzLxHFDSmXIpCFwQlAaK6aq5wwplXwss4LnuvhOQKgD6qbUEQQh+XwR17OIx7zqPXMBhWkYVCoVNJowCMnW1JDP57FMEz/wSSSSxOyom9kPwrFSxUkn4uOmrpx2u+Wkzx+ilNHa2vpoQ0P9qny+YGUyaf+0e7F8P2Rf214WnL20ZJqWCoPANM2o27NcLuM4FfL5QrU7NOrLHxwcRClFe3s7s2fPxvcD0uksnufhaY+KKmN6Jv39/dRka6oNKkV+qNutBO3tHcyePSsqAcrRRRiGom/A50jPEWbOnInvuVSq20zTpKOrgOM4NDU14vse6Kg64PslyqqE5Vocaj/E9Okz0GGAM/RTK0VQCGg/1E7rvFY818UpH30jiDfoUSlXyNXmCAMfpxTNQLZtm679XSgUjY1T8H2vuhRfVzsfSpQck7a2NlpbW/GD6Fq0BtM0cAZcDhzYz8KFC/E9d/g6TdOkuzca/W1sbCQIfHrK0e8Ri8Vo39OOZVrD1+m70SzeYlCkv3+A3v5e+gf6sW2bWTNnEIulcV0Xw7AAjWXHGOjqYqB/AK01S8+pp7enF8dxsG2bljktBGH0miDDOJmx5InS7cm8NODMiLr9h3r2FdlstgSQyaQnNXVmwj3y+QLPPfsrNXPWHOupJ7dszWZzjUEYRFPcwxCtQ0zTPObfdaCa6CzLjhJqNaGpodfgVJ8gpmky/O7VEQ00pcCy7OHelZEMQ2GaVrU+fOw2s/qkPtpPf/wPYNs2XjVOIzcbysCyLVzXPa4bM8r4arj3ayTLip4xvu+PGqc62ssTs2O4rnv8tZgGMdum4jiokcegMQxzuNt7rGuIBkX9Y+6nZZlRg1xF90KHUYdKEBwfRjwex7RM0FCulEnE49Xp9iGO40bLF445ahIJWZ3Spon3Ook8dIK30URjIG86/1sNDVNuGRrfmyi8CUuQTCbNK7/Zqs9acLb3l//l/edNPqpC/F6bMHPAJNsgQ3PnX3jhJTNXO0VXnIrSQUC5UiIM/GOG+Iee3ENVF1VdxxGLJ4jF4tEe6tjSYnKvsh9jcGrM2QXVZ/FQm/SY85xocd2IazjhEO3RF0gNVylOWFMYda2TOCS630z+3ig16Yfs6HUQR8Meo1FQjcRE42/HXuex9zAK4ujyVzXucaP7ok636nVsQ0dVq8T1dVltmkY42X8+YcISZMf27ezd9QpKKZ55clPQduRAtIBpOKFz9CaOceOPfqcJQ33sdQ/1LlRX9h1N8Kq6wk4Nr+gd+fuNVZM95sOIHUYsJqxOtBu9QvBohmb4YTBi31HHDVWFhl4ON9SzN/Tj6xH7jFwpOfLf+YheAjecg0dcV3RkWL32465Hc/SldEMHjZ4XNdxjM2I1dDVnRtcYHq3qHr3y4XMfneY+MjOpsRO2OroG/JjsNXKUfuQDc+RTTTN8f455yd5QLhwRj9HLuodH/0e8Nnbcl+2NuE7LtJgzd271i+OrvEIIIYQQQgghhBBCCCGEEEIIIYQQQgghhBBCCCGEEEIIIYQQQgghhBBCCCGEEEIIIYQQQgghhBBCCCGEEEIIIYQQQgghhBBCCCGEEEIIIYQQQgghhBBCCCGEEEIIIYQQQgghhBBCCCGEEEIIIYQQQgghhBBCCCGEEEIIIYQQQgghhBBCCCGEEEIIIYQQQgghhBBCCCGEEEKcnv8LYWZgo3gkegUAAAAASUVORK5CYII=;" parent="1" vertex="1">
          <mxGeometry x="2397.75" y="830" width="264.5" height="264.5" as="geometry" />
        </mxCell>
        <mxCell id="ZFgZAANVJCpxepYmrR5U-37" value="&lt;span style=&quot;color: rgb(0, 102, 204); font-family: Helvetica; font-size: 12px; font-style: normal; font-variant-ligatures: normal; font-variant-caps: normal; font-weight: 700; letter-spacing: normal; orphans: 2; text-align: center; text-indent: 0px; text-transform: none; widows: 2; word-spacing: 0px; -webkit-text-stroke-width: 0px; background-color: rgb(251, 251, 251); text-decoration-thickness: initial; text-decoration-style: initial; text-decoration-color: initial; float: none; display: inline !important;&quot;&gt;D-LINK DES-3852&lt;/span&gt;" style="text;whiteSpace=wrap;html=1;" parent="1" vertex="1">
          <mxGeometry x="2660" y="1080" width="130" height="40" as="geometry" />
        </mxCell>
        <mxCell id="ZFgZAANVJCpxepYmrR5U-40" style="edgeStyle=orthogonalEdgeStyle;rounded=0;orthogonalLoop=1;jettySize=auto;html=1;exitX=0.5;exitY=1;exitDx=0;exitDy=0;dashed=1;curved=0;" parent="1" source="ZFgZAANVJCpxepYmrR5U-38" edge="1">
          <mxGeometry relative="1" as="geometry">
            <mxPoint x="2532" y="1230" as="targetPoint" />
          </mxGeometry>
        </mxCell>
        <mxCell id="ZFgZAANVJCpxepYmrR5U-41" style="edgeStyle=orthogonalEdgeStyle;rounded=0;orthogonalLoop=1;jettySize=auto;html=1;exitX=0.75;exitY=1;exitDx=0;exitDy=0;dashed=1;" parent="1" source="ZFgZAANVJCpxepYmrR5U-38" edge="1">
          <mxGeometry relative="1" as="geometry">
            <mxPoint x="2680" y="1480" as="targetPoint" />
            <mxPoint x="2533" y="1200" as="sourcePoint" />
            <Array as="points">
              <mxPoint x="2595" y="1200" />
              <mxPoint x="2681" y="1200" />
              <mxPoint x="2681" y="1480" />
            </Array>
          </mxGeometry>
        </mxCell>
        <mxCell id="ZFgZAANVJCpxepYmrR5U-42" style="edgeStyle=orthogonalEdgeStyle;rounded=0;orthogonalLoop=1;jettySize=auto;html=1;exitX=0.943;exitY=0.992;exitDx=0;exitDy=0;exitPerimeter=0;dashed=1;" parent="1" source="ZFgZAANVJCpxepYmrR5U-38" edge="1">
          <mxGeometry relative="1" as="geometry">
            <mxPoint x="2840" y="1480" as="targetPoint" />
            <Array as="points">
              <mxPoint x="2640" y="1109" />
              <mxPoint x="2640" y="1160" />
              <mxPoint x="2841" y="1160" />
              <mxPoint x="2841" y="1480" />
            </Array>
          </mxGeometry>
        </mxCell>
        <mxCell id="ZFgZAANVJCpxepYmrR5U-43" style="edgeStyle=orthogonalEdgeStyle;rounded=0;orthogonalLoop=1;jettySize=auto;html=1;dashed=1;" parent="1" edge="1">
          <mxGeometry relative="1" as="geometry">
            <mxPoint x="2180" y="1475" as="targetPoint" />
            <mxPoint x="2420" y="1145" as="sourcePoint" />
            <Array as="points">
              <mxPoint x="2420" y="1105" />
              <mxPoint x="2420" y="1155" />
              <mxPoint x="2180" y="1155" />
            </Array>
          </mxGeometry>
        </mxCell>
        <mxCell id="ZFgZAANVJCpxepYmrR5U-44" style="edgeStyle=orthogonalEdgeStyle;rounded=0;orthogonalLoop=1;jettySize=auto;html=1;exitX=0.25;exitY=1;exitDx=0;exitDy=0;dashed=1;" parent="1" source="ZFgZAANVJCpxepYmrR5U-38" edge="1">
          <mxGeometry relative="1" as="geometry">
            <mxPoint x="2360" y="1480" as="targetPoint" />
            <Array as="points">
              <mxPoint x="2471" y="1200" />
              <mxPoint x="2361" y="1200" />
              <mxPoint x="2361" y="1480" />
            </Array>
          </mxGeometry>
        </mxCell>
        <mxCell id="ZFgZAANVJCpxepYmrR5U-38" value="" style="shape=image;verticalLabelPosition=bottom;labelBackgroundColor=default;verticalAlign=top;aspect=fixed;imageAspect=0;image=data:image/png,iVBORw0KGgoAAAANSUhEUgAAAZ4AAAB1CAYAAAB+iIf6AAAgAElEQVR4Aey9B7RlRZX/z5hGCWIAmow6ATMomBVEUccEKkFHRccxkRQDuVFUEBXJziAgOamjY2IER0GidM45BzrSLRlUUPd/fc7tz+vdZZ1773vdoPNfv7dWre+uvXftqlOnan/vCfe+jeJR/Pvzn/8cudDVn//05/jjH/84oP/Tn/4UFPyU58yZE1deeWUcccQRsddee8Xb3/722GeffQbKO9/5zsjlHe94R1CyDln9ULCMVauXcWs+NV0+lpq87777Ri7vete7oizvfve7o1b222+/yOU973lPDLbsv//+YSFWrb19aKNum8Eg7W1rLI6rPN5+68ybc4qc2+U5HYxsvA2JZf9tsfXLdnVitmW5Zq/pcpv1lY0vEk/50cDBnN/s26/8aIx5KDHL8RKDvEh++eAHPxhf/OIX4+67767mVXPwo5jqBx16o0G3WM8GkMsfH+kQD6GclEw8o0aNiqOOOipe/vKXx9/93d/F4x//+Hjc4x63TkGvDvn/T8XjqiFzQXnCE55QLU984hMjlza/bvrcHrmbr7ayTb912mdf6h5jPn51vbBcBzlGaftr1vO4kAczln7b6pdjqxtsnzlGNznHf7T6sP/B9FX6DqZuf39NLMfrWNgvT3va02LPPfeMFStWDHx490N8zq/rmbo3aPPHjHiYAAjnT3/8U3MAjbzmSscjcpJ+9KMfxYtf/OL4x3/8x9hmm23iuc99bjz/+c8fKM973vMa3c477xyWf/7nf46yaOsXbY8/fdoPcq1gpzA2fe3LWDXUp8SyD8eBPvtSt2/7f8ELXhAvfOELA9yQJc97L3l9+s1jr/XTb+xaW3Weo3Key/nNc92vXJ7nf/qnfwqK+loc+9WnG5Zjzue/JutPv7W4jm9DIXuVkuOp+4d/+IdYn/Kc5zwnnv3sZ7eWZz3rWbHTTjv1LDvuuGMMtuywww6Ry/bbbx+WrEdWD2633XatZdttt/0LG7pupRZv6623jqc//enxlKc8pclB1113XUyePHmdD/PmVPBv6e8xIR4PXuKhDgF5i80J+d3vfherV6+Oc889t2FxTiCb5hWveEW89rWvHSivfvWr41WvetU65ZWvfGXjhy+ypfQr69kvy/TRb3nNa14z4Et847RhOYZcz32it17zoV8Kc5PHYBswtxuKnI9hKO37beOY8c99KvcbR/8a5hj2tyHmqDZm1qGFsdg3snqu6CnlmqWO/mUve1nsvvvuTdFXNEYb6pdjGEvcbbfdYkOVl770pUHJ8dS95CUvifUpu+66a1B22WWXBq1nxFYrfIDNH2r6/QCjnx9axEzy6sCsR5b4S/SDQPlBpPbhIOtKf+qQOTly4403bsjx9NNPj//6r//6f8QjoTREs+ZZjmQjGekDzps3r5m4gw8+OP7+7/+++QTDxmHTSjyve93rmmSMLicNE436nFgeS9kEsz59liQiweSY6JiLbsU5GwzSB7Ft41iyTlu/mMddk8vYNZ/cl2Oq+XXTEWOobWtxPdfdkHblmuzmj821LKlY35AouUlQ9iWql6RqqA/YjeBqbdVlolIHqpe8MkpiEg915RpCSC960YtaC+SED0jp5gshQTQghEbBX7kXZrIqya0kr1zP7dTTnivMzTffPJ761Kc26+Zf//Vf/x/xSC4Zy3uPmXjGjBkTxx57bLz1rW9tLh+5VCdR5GSB3GvjZnuvzZp922STTpu9prfNYDEfK3EH275f/5zIle0b7KfYrhcONlbNP/dRs6PLPjUZkkbf1r4ffdv81tZAm64thnraleu2pit9BlOXYDIB1XQSSiaZmoyfZCFCIOi7FX3B7Cf5ZMIpZQmohhBQ7Qqom07iETNhSUgQi6RTI6hexENbiaskHslFn1zXN9voCxLacsstY5NNNmnuEjFOnvXcc889A3eUzL851/615Uf1VpsHnDETT3nwP/nJT5pPD1xCcs+UE28CcVOCtQ3NpssbJ2+o2kbpVzfUmGW7fuo5cWT/rN9Qcm0O1fXbh/6PNbIGSpJoWxe1sfV7fDW/fF6y3O96wi+3q8mMuex7MPH78a0l+ZIoiIOO0ism8SCGkgRKsijr2T/b1NeuYNRJIvgqrw+WREIsdSb+TCxe6UgQ/SBEwe03r1qsqyNGJpfyVh11b7vZHx/QueXGiwZbbbVVXHDBBXHTTTfFH/7wh3Wufsp8+9es/00Qz8MPPxx33XVXXHTRRc3tNR4AcgnJQjTBmEDKDUkdW97AvTbJYOx5gyIPpm0/vnncbXLtmP9aOs+DmMcx1PEbS8wxlbXVUJ+hYNuY2/T5nLb5PBr63O+GklnPEksN6Qc9VyOZFJSxGUNdG0ok/WJJLtZpryzJUFfO6FWK5NELJRX9JB5JB9QHzAQhCfTCTDi9ZGLpUyMgdPrwYZ3HE894xjPiuOOOix/84AfBM/P8aOOvSTRl338V4snf42FAixYtigsvvDC4P8mDMt7WYEGzgUk0OaHkTe0GxI7eeg2JVxb8Sh31rM+brrwd0Na27L/mpy77emzZpk7Mc9FLto2Y+6rJ+BmzbKO+TPzoa7FKnfHa0PhgzaeXvdaml64cY6+650Xs5l/2rS9tTdjGaUPbgKVPtpVy9tWWdVlmTZdFEsIPImkji0wy+mSdsrZMCsqSiD7WJZN820ubhKINokA2pnrJIRNHTZZMtFE3ZrcYJn3JoV9sI5GsN5Y6r3Ksg3w45wUEfEFeq+aW20YbbRQf+chH/uJ2W5n8y3q+M5Xl0m9D1B9V4nGA+SC81SYT4zN9+vQ45phjYu+9925eD+TVyJxolMvNTN2N1QvZRG6oEvPGc1Pik/X9yLShfa+xDNbucQ+2XZu/8WrYNtfoa/7ro8vjy3GyHhlbTZfbDEUuY65vvdsYXD+uvcGuE9v1s8Zc67kPZMcASgoZtee+sr2bLHHgowxKFt1QwhAlHer56oM6NnXdUMKQVPrBTDzKoLHUDZVwIIhMHIORIRbIJ7ehDvmgQ+Z17C222KL5Thhfbv/Fdb+IJUuWmIYbzLl4HUPxncpufmW7odQfU+KRdBioB4bu9ttvjze+8Y3B+/q8r84J4hZb29VOmSDYVG6yvGlqOjeXm8h6DfvxKdvZZx5jHl/WD0U21vqg/bYlSu1DwbaYNT3xPY7clzpQfU2nrRa71OkLasu6R1t2nUgceZ0OVi7nxZjoc6w8Z8iu55IcJArHmNE2+lgX1UssZV0ykTTKuiTjVYpXLmBJLNlW2ktykCQGQzi2ESGYLFOXdDIBDEX2Vel+2+qfCcirIBEb33fiy6WM+5Of/GTceOONA7nWnDtYHAqx9GrzmBCPRJOvchzYiBEj4tvf/nazyPzeDosR4uGBsQkhf+JWV8O88fIGUs+Gyfo22Y2lv+3Btjboy3bobFsb719TRwJ2fCZj8K85pqH0ncfeJue4+mTdoy27ZlgL9FWuI9dIPyjx5JjIrD0Tfw31yWu0lI0pEof9aLzSX31JPLaTWHoRTyYk5JJYJKHspw7sh2DafCSTkmi83VVeqZDgvdLolzhKP4mk1LfV9Qchmuwn8aDDvtlmmzWPKxj3d77znbj//vuD5+gQjh/+zcX9kJC5ekPiY0Y8bYO+4oor4sgjj2yYmqsdFhaLfo899liHeHJiKDenG1m9n/TyRnMjdUPa07abT7bZX8ZszzI+jJP42b+XbJLJxz9U2YSb0VjonDd13dAY2Qddrv+tyv2O02Nsw8Ecn2uhPJ+cf21g23rIPt1kiaDEkjD6rUsoonFtL8FICPplwsk25V5YEo+kMRSy8aqlDSUeEjVyrks+OdFLAtpKzL6lbFuIy2c0EkdJKLmt7UD9QOrG0n/YsGHN93q48jn55JNj5cqV8dCDDzUpOBNNLxJqy9kbQr/BiCcfEHK3v+x7yCGHxJvf/ObmbTYuE9lUbE6ucNjYblSTIlhuVjcBbd0YGfNm6CbbRh/qxs6IHh/9M9pWzDZjZF0v2TYbAmsJi7jomdPaXOd5Vy7joEdHLI7HmPrXsIzRVve42+z96O0/x8o6YlgXmQ/9M+Kb61mu2Ryf5xl/dBKM+l7oeuoXiadvrySPHV/HYLuM+qBriwdZULArQxTKYtZlIoEYSProJBpQfUkcEoQJF5QEtFnPPsrZlpN/lk34NZ1xapj9s2w8yMKfGALzTwpRL4vk0kY86D0e8qjPevgh0RNPPDHGjh1bveUm+eScrNwth6+v7TEhnvJAqHP5d++99za/Ps2J4fkOJzB/GjUJQEBu4DbSMQG4efLG67ZZ3ETZxw2XYxHfuvZ+MI/D9oNFj21DY06UJsJyfp33XujYPDbqtBlqPNsat1f//djzmBxXGd95UF8i/ZQ66zWb48rzgn+p196GbWvN9SvqRxxlUPtgsFv7MmYmkFKmT0inRiiZTCALijrJR32JJNoy6Zt88VWu+dFOuzEkBRG9cg1t18tP0hCNBdmUpKOuG/HYnn7JncRFh+yYeNHgSU96UpNXeVb+wx/+sPlej28UQxzk4f+TxCOh9MLy4PidttGjRsevb/h188mG7+2wCFickI23MEwOoJtbzBu02wYZzEYrfY27IfoiVo4zGNljXh8s+zOWeurKbWibGtba4GeCrWEtTvbL5z3rhyozxnJMjrtNb5vsVxt31umbkbXlesqY11zbGmlra5wyhvqM2WewMnEymbBPiZF1/cgSiVcxEkxJKGVdgsiIj0l2Q2G+MjGJm+QlDVG9iL4ki1rd9iAftvOVTinn9jVCom/7BR0LYyen8p0eyxlnnBF33HFHPPjgg+tc+ZibxVouX9+rm1r79briKQdpB6W+PCgedH3/+99vXipgQnmpgMVMQiHZSD7UTQhtGztvLuTBbqpu/sY2gVgXu7UtbbQxzmAxH/tQ5VqfxKrpu+na+q+1wbcbSdRiZf8NSTweax6TOsbuWFxz+XzV/PSvYW0uWA+uG7BcH9r7aZvHZkzjWW9D/QaDxMrEMhTiyaQzGOLJZJPlR4N4agRmMs+EYZLPupIkMolkG7LtBks8ZUziGNuYIrfbeGbOiwY86/n85z8fvMjFjzC35WfydGmj/mj8PSbEw+DzQfFTDh/+8Iebn8OBdGBnFjeb3ttrYE5CbHB8chJgk7qB8kZT99fGPKY2udsY29qot631WtLKOv3EbBuMbHsxtzURo0OunUP9s686MMetyej0Zw70AY0J6pNj2ja36SWX7Y2R4yOXfWZ7rQ/P398CQiwQApjHI+FIHNb1V5/RK5k2xDfbvMLJOmT0mWyyPFji4SpAEgG9ujFRZ8x+6tsSfGnHLxNETTZWzQYZWWp2dLaHXPjOI/7qsHts6PgBUYiHPPsv//IvzU/pSC5eEGTUJnJr7tH426DE42DbkAP0Xx/wXyrZqJAOk4Xs1U5JOrVPoSYDN4nJIG9wbRsK+aSXSxnXvtVbF9WvDxoLNE7WdZP1B7v5acuJM8vaxWzjPJqAlUXPGaiPbYmVZeu5D2Vt+JfHYgwxt1HGptwP1vxLXbf+2vooz0euD1bO69IrklKX62X8TCTZL+shjFyXKCQd6zUsycV6xtwOfSaamly7QmnTSTwShcnZejc0qfeDbWSR9cZp0w2GePhfRG3EA4HykoG/4cbXU6699tp46KGH1rmy6UU85PMN/feYEQ8H9/vf/z74BWpeoWbh84N2LChkNq5XPN5iqX1adhO78d1A6NXpo21DIRuSjWcp4w6lX9uUWMa2XvpZ1z4YbGur3mQKSh4lZh/9wHIcxkSvX9YhG9uY1v3goT6jMcQ2W9Yr26YX6l9iuQ6IUx53rd7WX823X51jEWmn3A2N71WI5GIbyUBywR8ZYsg2/EudbfArCYZ9XyMJCaZmy7q29tknyyXxdCOabJMkapiJYzCysbhisZ066zXMhIS/PozXqzTHTh0ZYuIHl7nlxmvWJ510UvOlUr/X03aRUOr/qsSTB8NAcr2XDPHwYOuaa66J4449rll0TASLkw1NkvGKB1Rn8qHuJskbVx3Y78bPbQYj50+CyLltabOeffqRPbZ+fLNPOZ5sG6zsGDKWSZd6titzvtps+DAWMJ/PrLN9rb+azn7F3LfHrS2jsbJusHJ5jmlvn92w5lfTdYtR2iQKEbvjq2Hpxz5EB0lIGDUkFnpJJ/tnXZYlHcgiy5JMDTNplLL+pb5bvV/ikQD6QRK/ZDAYtB3EM5h2+NtG0hEZr6QjoiM+bbjlxm+5cacJ8imvesjfXvnUcvn/aeLh9elvfetbzSvU3GKDeNhwXtlIPNRJDDkJlRuTek1XbsjHqu5GzsgmHWz/teMiRnmsZVz6sm0NS/+yXmvTS2eM7OcHhRIlBNrob3vnKZ9zfUSJoh+0jfFrfRpH36Gg8denbY6hPBTM6w65Vwz98WP+qYMSicQhIemfsUZMJSkRB7KRLEDJp8Ts00umrUSDr3Ib/i0Rj2QgkWRsIyJ8/BffyPhBLJnESvLRDhHxL7J5vZpbb7vvtnvzVRYJxouI/xPE46D7Rb49O3r06PjMZz7TLBInEZKBcLydkhMWycFNXW6kNn3eGI+GzOa05PjqxNJWjr9Wz22Qaz5Z1zYH2adf2Vht2C1OrY2JXcSnjGE75gwb9eyf2+jbD5b91Or2lftwDKWurb36tjFpL7EWv6bL7cq1sb71kjSMJ+GImXiQM1noIxrTukibTCTGyLqhyN5eymSjroZeCWQkOQ+1eLVRkkUmkg0pkzMpOWbum/HUjoXj5Rf/+S+l/Po/b7v98pe/bL5U6vd6zOOQj3LGv5krnjyoXjIHM2PGjLjkkkuaSz2e7TBhLEyIpkY8mXRqm7KmY6O6gXqhmyT7qROxKYtuGjC3lXBE/UF1vTD3h5wTT9kWG3OQ50Gf3E5Zm6i+X+zWLo/BePpn1CY6fnzQWZd8wOyrLOpf61+fNrRtm72m91i0leMeyjiMJRoz19G5nvKaq8nZT1nM60udaCzJAtSWMa9/5dwmy9rbsBvZZDJpkyWXbM+k0o/sVYEkUibvrC9tua0EIClIEjXUZ6hozNze/svxOmbaQD5PecpTGgLidtt5550XjzzyyDpvHOdc7pVQqdsQJDSolwvyAAYjQzz8SuoRRxzR/AYbE8BiYUN5ey2Tj6TD5lM2UWR0c/aD9OXmyhuwpssbzY2Udcq5bZa1Z8z2Njn7I+fjym1yciqPK9ty+9LPeOjLQrs2/xxTuZZwa+cp67JsHBD9+hCPx5XjI+c+Bivb3jkBiWFfOV5Nl+3d5Fpb+sokoE8buoawK4s1XbYZE519Shrq0KsT3SMlam/D9SWeTDjK/ZANPvnKoEzW3WylrwlfhAxI8rzmXCvYMmEMRTZu2dYxlOiYacdLBlz1vP71r4/3v//9f/HP4nJe/z9NPHxnh5cKrrzyyub/7bCAt9lmm2bT5qsdn/OgY6O7uWvE023z0s62ymJt49V0brK8YdCtT3FTd8McH798nG3tHCuIj8ee2yKjN0ZOELlPZfzxxc+4ti3jttVz4s8+JnF1tXpJPIxdP88l7dUZC3QOajbszgOY23WTjUUb5sO2zk+eozyH3WJmG/GMbXz7AGv9eD5KtH/0yr0wx8++6CUHZIv7ItvU6QOqy2ibXiiRZOQKx9eg0WdZv0eTeEjoZbKnLplku+RQor61OP3qJLaavzb7YUxe9YA86+E/lVKoL1++PB544IHgllt5m+1vhni8xMqs2EvmHxHdeuutzb9jZaFwsEwYVzj8Llt+kQDSkYDY7G0lb9pSLjdc28Z0g7lRrIvqRfVgTZftNbkcRz/1fGzZ36SEPScsfLItt1fGjp9jVA/aB7J+6sTs303OHxiMR0z0IAV97RznuI5TP8aR22bfLONvPY+deCRCzmGOpW8NjeW4HYvjkCj90ETcWpw2HXFo47Hm8WJTD2oTtZVrMsfTp4b4SQwmbxBiIKY244PGybYs66suYy/C0Z7HogypSD7orGtX1w/5dLuqabOVVxKZaMhp2muE8FjpIByLfWby4YukPOp4/OMf37xocM4558QNN9zQXBzUiMecv6FxULfa7LwX2WT7zJkz4/vf+358/OMfb+4xMimcWH6PjR+vc7OyeZEpkJJ6N3lt07r5TAh5k+YN4kapIZui5uvmEWmr7EaqxWvTOdZ+0BgeF8euDOYYjosxoc9+2EqddmPkedWmznpGbSDnRlupL4lHu0k81z3HIjEZn8fGvGMjJu08JmT7r6Ex8nwie/6Ii49j6Qcdo8cHepvYF2QcH2Nqi+l48bW4vqzjg+z4M2a97Tiu7NOPTFuTvVcQIEnceQLtA/S4jI9df/3QGTfHUZfJIsvZDslAItolGsdHHsl2/PohHXwyuSDzgdiSbepAiUU0sYtteu29sLw6yvVaW+3Z5pVO1kk8HAN6vtfDrxlsuummTV6+/PLLm7fc+A1Nc7e5/tHCR5V4YNDrrruu+XkcSIbXpznpblbIB9nipq5hbQO7+VzsohuiHxxMG33FbvFNHkNB4toH7ctjL2NiZ874xQf+nQRzTWF+/RUISR0//Zl3f5DVDwJ8u9l/umd7YliyjliMhbGSMEwQyI7Z/uyTelmwmcxKf+PQL1fIjM/iOPP/y8GvLM7Ja1/72njd617XPGf0V9DLDzjl2Di+fD6QHavrtkY8+fzpn4+ttGebiRof+vN8I1O0m6RBdPrr14bGI4HTDj+OJc+T68c7EByjhfnFFxvHRr+ce8dQjo9+IBETH8nPT+UZ+YoFBZ2+JFcTJzHKKx5JAv1giCcTlDHok8J4JSd1GdsIpk2fSaCbLJHUkHlBn9vrl3U12fnzGJhfnvU8+clPjsc97nHNs55Zs2Y1t9wkn0eLcIw7KOKBDSETL8mURdkS5JuxfG+Hn+PmS0ssWl4q4ISy2V3QyCx6MW/AnARMTmwaN3LbxtoQehNDt82cfUrZze14GXPWdZPL8eNrAgbLtuiYQ8ghJ2HqzqtJ0vm1znnJpGL7rNeOznMHEsvEI/GYdDxHedyeT2zaQY7XY1JPO+Ojo2/GJjEyJgnG8YGuK9BjwI+2JNNMWvgwD/bl+DI6LtdBHp9zQXz6IhZtiedxgRT1xON41YvOE3X6Yh7x1Q46FteHc+3YtJdoW/xJzvijQ+a8UWfsnnvmyGNijlxDHq/ngjpxaE8s4iNLiOjsA50EJAmZCEGvOsgPkgsJk0QKShTaQHUgsekr67rJtLfgZ/+MxdhZh15iEcsk36Yv/axDAJJHv0jb0td4JUrq6Bmb843eV6u55bbvvvvGzTff3DzvMZeb48nl/fyZ+/vxxWfQxNO8frfmkuyRhx9pCKb2YGrVqlVx/fXXx9FHH92cSCaLA2ZxuoDLRe2GdxOW6AZyQ7oB25BNkEubX03fT7vs0ybn2GVCaKvnNsj45bnI85B90We/bMt94Vf65jrngbrno0yo2IgH2o6+mAPObyYhdPowNmT9iEE7/U1Yedz60o7xsHZMePlYlfGzqKMdx+B6oz11/LIPftZB6vg4/zkOJOcVF0maOjFJyurR2ZfzhY9++DImMBfbYMt25VIvsXrFAipDto6Hc0PyIUF7Xjg+ZcfGsXtuQIrngbbEUacenQUf/Yjl+CR9PzxAdIyNOleje+65Z7zpTW9q3rhCRx8QSi6QggTmlcpQiMe2GU3MYiYeSSVjmeixlbpu9cESD/7EK4kHvbbcX9aXxMN3ebgDxS035vSDH/xg/PSnPx24sJCA/maIJ5MMl2W8tbaObs0XkBYvXtz8v++DDjqouafIZLFgWOhsLDePix0dG7vc/DkRmATcDDlBIaPPOjZFLtm2oeXcT5ZzP467Hyzb5XlQrsVhjrBjYxzGKX31M1YNPR+cI2XPD+2Ngc46/dGvJEIyom58x4E/ydaEneO7JkDbifrZt/peSLt8HPg7ZuRaXHTG1e66ZewkTpIqOtYvvvTBMekniXjc2NHhQ4zsp2xfIL5tRbKyHZh1yI6FGJwHk7TkwZjRMz7nwzUjYsM/f0DwvNKWQl3CIWGTzPCnreNnLGWRlCAgyIfXfF/zmtc0c8t4jGnf1kGvaCSjrNPWhplwsizpgL2IRxLCVzkn/l4yxFCSSFs9x6r51IjHNo7Ncdov/yzuiU98YnMnirVz1llnxYoVKzq33NKdrX6uYh71Kx47ACGeTDqNbs2A+cLoUUcdFW94wxsaZmUS3EgcpIuRjWhxk9fQjZs3g7KIjzLophCzbUPL9lFiHod9eizdMPuWSZZ6W1uTR56LrLNdGbM25+g4ZybL8pxp8/yBtCE282CyAjke+sZGHNYAa+ONb3xj80mXZy9+IiYJWbz9gz/xPRb6pvR7HN2Oz1jGc5y5DTbHzVhcwx6z821b0Rh53LSRdJwv/G0D5vOfbfjn8TpmE3857+gt2vgASJL2nNiXa9e6SP/GEPUVIQYIgERPYmS/U6cf24D4UYyd0XPpXBGb9o4XORf0uWBrI5pSn8mmlCWfNuLBzvHlqwiTusm+F9bIY0PramQkCYE8N+I7PRS+WHrooYfGyJEjgzeRy7zei3zkhV5+2gd1q81GduLlWL4fiLxo0aL4xS9+Efvtt1+TLHi2w0l047LpyiTmBnajlpg3I4vVzVhiXshuCjHbHku57L8cc7e6bfN8ZH+Ogw2NH3o3bfZp0+WY/co56dkm65DR1/p0TNg533zC3WOPPdZ5EcIrAZBPwxbXB3GJY5/UHQeovsTs00uutaUfxpALc89YiFc73nJs9kt84oC2dW7EvD7V2RdtHCOyayAn+JrsWjJ5O37i5hi5b+PYtkTsxsuJn/0uYUg2Ge2TeOj1JYZ+6CCMbMt91eSSYCC/Win9rJckZF0yEiGWTDaSENiLdLBvaJKpxasRj2NjnLThP5RusskmzUsGb37zm+PMM89s/mEcxJPJx9zfhnJCm73Urxfx2FmJvMnGAbDxYFUOlgXmJ0COpWIAACAASURBVEU/vbr58kZ0M7pJRRdq3hTlJqjVs//6yMZenxjd2nJ8ZcHffrNNnXY3Kz5tyc55xN7Lz75sMxikLf6eaz/Zc17pm7Hr43mvxdcmAbFW8rFh77cYP/ujcy4cT/Zz/PSrPiOxSIgkSeJQdz1nv6HKjMn1Ygz6aSv45za2LZH5Z8ysmWyDQNCjy3FK4tGOj3EkAOr4uz5tmxEbMTwm6swjOYJkaCGpm/QhBcgDP0qNSNRJIKL6ErWXaJ8lSjii4zWRd8MaKfTSkTct+CrXsFcsxubtNXwlJJBXq/lSKW+34Qf58G9reDks/5xOSRzUc973IkRdzT/rBkU8Bu2FZ599dnz2s59tDoQDY2Gy0EhCJiKveMpk4IIsN1jeDG4YF3g31Lcb5vb6ZV1N1m+oaEzbc3zlMeLjptUPLNuqA4lRzp115ha55qMNu30h5/OR26nPaPLl3Jbn2viO0fPeltiNq5/HiF4dqF+pb/PRD8xzUcbpRSLE5zwwLmOW4zE+85bjt8n4W2jjeVC2P+oWfUTXRonY1bGmIImyLhnl2K4/kTa2LwmHmJKPPupASMM2HifjwhdikFgkF5K/VxUQkklfsijJhLo2sabDJrHol3X2a3817EY0pa0XMdTsmWCw53qbXIuDrkY8kI5lyy23bF6tfuYzn9nM34knnhhTpkyJu+66a+AN5kwatfz/mBJPZj069vKML4vus88+zbMdJomNZjLiEyyfJvshHjeA6OYS3TjdUN9umNvrl3U1Wb+hojFt7zGyCdXhQz3rsNnWNswvMn7Y8NGWEb+cDLHpawx0xCBRIKO3HXp0xFAvkqg5r94aAyEf9BTbiCRpbcbIWI7TecjtykRP3WJsMMdFLts5plobbPhjy+1KmXrW0Q9tPVe1fkud571EkzdJO68FYjsvnnt9sw2ZmCB2UDsxJQRs+DEu14bxJQzq9iESC399M+pD+5zcaeNxtrWFNEj6fkIngUpAkEMmHo/B48m23K+EI5kMhXi8KssE47iMC+qXCSEfi+3RZZ9e8lCIx75ybOeTN9z4Xz18r4fXq/n6Cz9xtnDhwoGrmr9Z4uHSbN7ceQ1T8pCYTchvsjH53rYQIR03OYu8Vti0ZXEzuGBr6KYSaz5Zp19G7NbzJsoy9hwny7bt10c/N6Cx2uKoZ96YR4mc+SJGOW/W8VfGT19iSBTEwk+b58Z21k20oGPgQ4UfKNBhMw5oW2Ip11BfYrCWePGAlwwgMtoyP7Qjvu2zrK5E2nOcvLiAzFjL4yrbMBb8mBfGgx0dYwA9FseFHhmbfvowRmXtIu04r6wxZAt2krdrjxiSO8fAeHJ/+mV0vYDEIjlj53z5Zh5x0dEfMbOv/raVTEASPsmbRM+4eCONZ3e8xm2cPJZaDHX40S9j8Dg5/zwH5FVr4tIHc8OYSO4SUEk81C2Si6QDShDaQHXZLnlILKAJ22QuZl90NULJxFOzZ2Jok3sRT7aXMejT4nFwV4qf0fFZD+ftYx/7WPNvbLig4AonX2TUrnjQ6at/JqtSHtStttx5DkRHvFY9YcKEuOWWW5oTzsnjgFiQbJBMOv0QDwdflrzB3LAlumH7xbwplWmrnDdNlrG39WHb7OM4bZN9iIue41PWT6S9ssjmZF7ZjDkJlfNWqzsebMRgg+ckVGuDjj4pJGEL55P+GQc6fTge54D+sh5b7gObdXyRicnrtXvvvXeTdCAM5wg0nljGNB6ID8cnkTFWjps23dox1x6fxIOO48pziMy5Q088bR5LOcZs93y6vqzrY1xiM2aSO4X5YGzE9ljxMU5uh14bexKbJAEy1+icC2SSu8W21CEK7CCxJADi5DcVmS/7BTmeHMfYIvE4ds89Hzg49+94xzua8pa3vKUhIY6X/iUDxpCJx3gi9kwwyJJQ1ncjHpI0bfohHomoTPrUNwTx1OJmXS/ikRQlIPz5DTeuep7whCc0xPq2t72t+VKpt9By7pd4Sg5Qv0GJx6AOpAx+zz33xLnnnhsnnHBC829W+XISC41FwuZgw1CQKSYtN0xGN1zWsSHckKJ+oLq80JHVd0PbsJgp1kF1JWYf5W59lLayTT6WmpznQnvW9SOb/DJmokDO58Zz1IZlHNo6DmzKYvZXJ2qjr6xjzZAUXTvY8M3rSR/8yqsu4hnbtZfbqhPtx3Gw7nJ/9OF80CbHxw9dvp3ssRjftnlMNV3Nn1jGt41rwXGqB+1bH5G1x3qEiCn4oWON40OdeMggddsiu5Ztk9eybfDxSkY7NvpAb3FfGSvrbYcPsnNmXImFOuSSizYRYpKAJB0wE0/WS0I1lHwkGK908M02yUB7tpn89ekHuxFKtvWS6UsfZI+D/07K7TZerUbmn3ZefPHFzZVMN5KRGzJm/5rc9xWPQUviQc/VzrJly5r/5c0lGm9J8Ao1i5aN4kbPm9pFxEIuS17k2tS56EF1oHoXq6i+G+qbN0Gp0yZiVwb1F7v1h630y8dSk50HUDvzm0v26Vf2PIAmrazrps996KeOurKY46oTbZ8TJjrXD6gNfV5L+qDLxFAeD3V8y6Jf1tsX8+s47Ed/MR8DPhIldtpi1zfrsh4/SzmO3AaZ49Q3rwXiqXdMjF+fck06h65H1jGybZBpS72UXb8idov7wqSffbChzwSjv7psR5ZQiEMf6MorHH1EfHJ5LIinJBbJpCQerzRAffpByQLEP9eHKhPHqzAuFvgpHf5lAr/l9q//+q/BiwbmfpC/XG+Ta2STdX0TT61DdLxyxxeObrvttnjve9/b3G7hfiET4SZ0I7rQ3UjlJnGztKEbwo2U0UWfF7m6XmgbN4B1UF2JNVtu12+f+uVjqcl5Tmp25ib79CvTP/E8FzXkfHnO6KetL9raby1OLx19mHRzn8YEiaEfqM3YtLdtG9qHWPqpJ2buEz9tIHV9Sj/HY2zrjldUX6L2bpjXgefE9cR6ZT3i4znDht5zXq5X69iVxawjBiQBEjuPAz8JRMxt0UEIjs/4JUlgtx9IgysTUAKBYHIbCUfMtixjz1c5pZyverKcr3xKgimJxSsIySTbB0s2xqhhSTY1n1JnG/XUJR50/JoBpPOkJz2pmX9ud/LSmART4wFtGTPJ1OS+iceg5RWPz3Z4C4KHgBwEhRMM4fj8oSQdNxQbTjmjC5pF68ZRVy70vLBdyOj6LbZxsVsH1ZVYs+V25ZjKseir3mPKx5rlPDf42g7UL/uUsnMHZhvtiVc7DybD7F+2z7Ycw7aDQZN0xjKmtrbEr16/NiwJBL88VuOoK+Ng18YcKIPlnLTZurXLMdpkz7uIn+uK9eq51U5dvTJ115NrPMeo6SQUY+kPotMu0pc+NeKptck6iYecIvmAmVDUSzz64qMOH+SSbHI9k02W14d4zImgCX9DoCRSwzJ+zQcdz+HxdYzo/GdxvGZNffr06TFv3rzmzlYb8WRegCt6/a038Tz00EPx8//5eRx77LHNouBSjUXGZvOtGQjIje4GdzOVG1U9myUvWBeuCVrEp+anfjCY+zAmG6BW9G1D22vP43CjlzqO2ePf0Ehs54zYnAfOCbJzXfZvwiz1tMnnTb9eWCbvwdSJnf0lBnWuLz7gWNSVvmUb646f47OtthKx6y/ig0x7S7Z1s5ftbD9Y5FxZPN/WXZOuO9YmMnbQdY5eWXQdZ1vWqZdsQNvaLz7aM2lkX9uA6PGTVHKbNlmSKYkHcpFIMtGUsj4llsSTr2JKubziKUlgQ9XbyAR92UfNF9KhYJMUkXlM4i03fsvtjDPOiEsvvbT5bwOPOvF4hSOWHcJwv//972Pp0qXNj4FyP5DB8xMMbDDIhgeX+UGrCSBvsiznTcZmcOO0Jeqa3s3g5hoK5rjGc0NYL+Oqb0P88/FwfPl4jYdP1mfZOSnbZp9+Zc4R54NYufTb3oRaYi25ElM/7P0U/dvQ8UsA9JF16Gsl960dXe4n+xhzMLocS7lsX6vrC/Z7Htr8cgzOr+syr0PWNHrXU/ZBds3rh472+tV8JJY2H+39IP1KPhJNWVcvZuLJciaeTCptxJOJRv+sQ4ZwJBlQAso6ZRN7SQi96hKGJIF/qdOWUZ8SS5/cv1c9fA2Gqx5ut/GLBh/96Eeb/yBNrifnk/vLq5ryiifzRu3qp/WKx4ZiSTzoebbD69OHH354s0g5SAYN4XCLrSQdNzrYtmHQmwhzojYxi9qsiy546+uLxnMTWi/jqq+hvoxZ2WP0eNX3Qzz6dpvDfm2Mlz5zouqnbfZHtuTjKuPoU0u6pU7fbkgb1hI+9lXrXz98kY2Z9XltorcY17poLOugMZDtQ8x+bbK+oP32ix63aDvqnGMSNmuYtePekVBsA+Y1im+5nrPOPSHi282OXzfCkTzA7Ffqc72UM9lkuUY8kgcoAdVIpqazrcTyt0g8kkwmH16b5guj2NBLPMgSDzp8+PFQ/20CP+Y7duzYWL169TrPfOABSUdCkjPAtr9BEU8ZhJ9VuPrqq+N973tfM2g/Aawv8bgxMrKgc9GWdXnRl/qh1msbrxarl1/beEkQbnh9TBol9utXtutWp0/iDjbZZf+cMGuy/WtrS7xZr283rPmXfdEevxopZL32klDsP9uVc/85VqlvqxPb8Yr2Z71fLNdGrue1ydp1nUkU+rqutYPqaijhSCjGs79sr8mZXJBLEtGe9TW/bM9kU8ol+UAeFIhlqMRDspZ8vOKpIT4k9OxvO1ESyChpSCLYSp22jPhY15+26CAfdPajHXR82PheD+TDT+lw/nm1esyYMcHjFcmlG+kMmngMWsN85cM/evvKV77SfKuYQXKiWXQSj2+zuVEzdttQboRuG0BbuSFc9KW+rOPHZsh6deiRsRmvxNyuJnsM2srxGk99xra5Maa+bX6D0ROTMpg2bb7EMXFm1F9dmYjVg9qyrk3WN6+rvOZsp5/x8VeXZXUl5vhZLuOX7Wp124jOv+dAvXM2GKRtjlfKeS0i2yfIeiSpg64v9LapYSYT2rpvXNvZXpMlFjETCHJNj670y3WfB5VIbiqJxyuZEiUkUbt1iEXZRF0jm6zbUMSTSUJiqSF+pT6TlnH0gYyQJR98edbDCwYbbbRRc+uNr8rwA6J33333wO02iafGFUMmnnyFY2B09913X/O9ndNOO635NVMWA69Qszjd+KJvs7lh2Yx5M7FZcl2ZRe8G6AfdGC56692QuKXdvkq9ccXSTt22IMdROwbblXHKts5DxjJetm1I2eTXhm19tfmX+jIhZ7u2rGuT9XVtieptR11bDfUXaz7EKuPk+LbthbYBa/OovWbrpWuLSbty7bhGjcm6ZB+zLrG5Tl3Xua6cyYTkP1jiye2RJZoSM7F0s2W/Uu72RpvEIkoqYqmHRLQhSzDqrGdcX+KRKDJKGjXEL+shFku+1Wa8TErIFNtDPHyplLXCl0rHjRsX/IdpOUHMfNFLbm612RDkz3punHV0OmvWrOaBEwsV1udgWNw823Hjtr1d5GIHu200N0BOym2ym6FM6OpraPxsy/Gz3rhitinnthxbGb+sE6utbZ4j5TJ5qN/Q6Dlpw1p/+JJ029pkfZmca7asa5ON43oD1eU26LJPTbZdmy/xtOlrH9SVRX0yYqvNXdbZPuv6lbvFZ+2UJcdlHUocrlPXp3XXqnugJA7b1/T96CQVfCEO65lE1InZ1k2GeLydVqLEIkogYqmHULRlcsk6iCYXciTJ3CukbJOUIAGTvigx1FBiqCH+WS/piNhyTPqzbt+MFR3PefhSKd/x+cAHPhA33nhj8B+my2c6mS96yRtJKGJJPLVLqcmTJzfPdvbfb//m/h8Tx0LIr0/XSMfE4ObKmDeBG8gFDyq7+NWV6KbQrxvaNvuoE7Otl2wbkOMBc5tsz3rkbMtzkeW/BeLJ48lyPpeeP+zqcwIuZX1AbVmHbCz7zL4lkZQxqOujjXpeo+qzr21A7Vl2jNiURf1F9I69G9q+m083W60fCSe3K3WuR9ehddcm6N7KmAkFfa4r1/wlDlFfURLBrpzRdui8rZbtpTwY4inJJBOPNkhGWXysiCcTSkkgkkfG0t969pFsMpLXOTZerd58882bn9NhPR955JHxs5/97C9eKoA7Sr5oI6Aq8WTykZAIyDdY+cIob7J94xvfiL322qsZEBPOgs/E4622vHndtG4uMW8I5Nrm6ZbE3SzZJ+t6yeUm6+WvPY9bnYgNeSixc9zHSvZc9MI8ntp5KnXGY8F6/k3Goj5gTdctpnHLdVb2pd341DPxaO8HjeG4rYNtujxvbbLHXx5v9jd+m09Nn9eksbrptGUsiaesSy4Sh4g++6qXOET1IDqIoiSPXMcHX3Q8v+nl34148hUQJCORgOS2GvFkH+Ua8Wgrr3DKek74NTmTREkc+Gf7UORan16d8ayHFwz4lwno3v3ud8f555/fPHL53e9+N3DlU+ONvolHogEzeyHzDveK5SvioosuajrnUxOvT7MAIB2Kr1EjQz5s5Lwxld1AboRe6Kd9E3neFFnuZc++fupDRztQnZj9S3sec+mHDZ3jMX7pZz8Zc1z1WfdoyJ6PEnNf2tRRV66h/qDnvYY1v6xDzoRQxsi2XrJtSz/1YGmzrk85NvWgNnXUa3NT09m2ZhusznUDuuZyDO3qqLtW9c+ITXIpycR6Jg/l3AadRFOi/uozydTk7Aep9EM8vmCQiQZZYhEzgWxI4iFpm8xL4kFfS/7qMpn0Szz6if3GKImMsXGbje/1cPXD2A877LCYOHFi8z1OOaNGPNhqf39xxWMQSQeUhHipgM54k43NyEljECxe32SDeCyQD58q3YQibYeyyfImyptiKDKx8qYjRtZpK2OrL7Hm1894yzhl3bilfn3qzn0/aD8cS06sttVeonbPuXVQndjNpo/Jf7BYXtUYDzRW1mW9dlG/PN7a8WS/cl561YnXy6eXvW3dtbXTf7DEoz/IOpU8Mko83UgHErFNJhQJp1+d/t0Q8ikJSMIBJSVkCUg7da9gaqh/zUaeJKG3EY92iaYblkRSEoUEo5+oHix1OUbuG1+Oh2dDvFrNSwabbrpp848+f/CDH8SkSZPWeScgE41c0jfxZNLJxLNixYq46qqr4qCDDmouvRg8C4srG/7xUyacfKvNjZg3tZu3bTPU9GyQXEzKNZ22NqSNfSDjl3XZ1hZfH7DsJ9uUcxxlbW0xan65zVBk574fzPE5f2WbbM9y6ZfreT2UMUvbUOuSBcSj3BarHBv+pW/2KeXS1zp+tTnJukdbZv24Ntv60kci0T8jNkkEzHXbZQKRSPAtSUebhJLbZR0EkuvI3UgFm8RSkouEImYyyVc12S6RZN8aqfSjK4mlRkA54ZeypJEJopsOG74QRkky2Go69SDjszh27m7xrIdbbpzDgw8+OH70ox81xCO5SDYZtWVc5wukOpfEQ53bbPxQ3KmnntqwHT+Nw4DYXFzZ8E+pyttsedO7+cW8ecsNoQ09m6K0W3djWAfV9cIc140H1orx9TO2+lq/2vKxqGtD44ptfhtS7/h6IX2SUPvxw7ebn4lZzL7q1hddZ67BWjwJpuxffW6TfUq55oeu9OtVL88r/upcl9bBmi7blV1P+tdQ8gD1z5jtyhKR9Uwg2kriIWGVutwuk1KNeDL51G6xrS/xSDJgL+LRDmbyIS9a1Ju8JRSTulja9RMhAwp15RrqL/YiHgkoI3Edl0g8YpH3+RkdfN75znfGeeed1/yaAc/+5Y+MmWyyvA7xaMgNJaGVK1c2/5GO/zDIQuOBEwtIwvFqh43ObTdKvuoxEeRN2kt2c7mBemHeqLbNmyfLbD7jIWdblrOf/jXMbZDxYTwmoFqbfnW9Ela2lzG1lXrrnoNasnXsxtDHuogftpzktWXMfbkejJltxBlqyXEdU45lf9pco7n/WgzblX7WRY/XurGYb22iPqL6jJ4n15d1sNTRLtuV9WtDiQPs5ZPtkktuX9NJJtpACCQXfTJCPOWzm0w8kkzW5Ssi7f0iVzuZcCSWGhlpEyUYUNIB1WedMkmdhA6ikyxqSKJHj1+NcNSVbQdLPMaxvzIeXyjlWQ//qZR/Gvf+978/fvnLXwZ3w/K/T5BD5JQS+yIernZGjhwZl112WXOp62SSlEvi4eoH0vH5jhsPrCUmN10N2Tj9Jn43WUbadiv6dvPpt/9aDOK3JQP7Bu3DhJNtxtDGPCl38ytt1OnHtmJt3rVlxM/km/XIxsjnuvRp88ttlDNR1GT9xOyjDsx6Ze3WxdoxZF/lNrS9x21df/Xl+VSvP6gO9Dy6vqx7Pl07WV/K+GTC6Cbbj6iv5GIdVNcLM5lkuSSeXM9yJpMs1654anb8+iEfCUYyqZGQNsnDXGg9ozYw65UlHpJ7lnOyz0QgGZQ661y1IIvEKa9ksm+2KWsH8zgcI9/X5KqH5z38cjVvNvOG84wZM+Lhhx8eeMNtSMQDO9GQqx1Y7IEHHojvfe97zUsF3OPjDQcWHpsKkuFqB7RQ55Okmw5kg/vpkrqbK284ZNsgu/jLjfRo1vNmH2o/bnSwnxj6ORfOTUZtee7K2Prji2xc/agbpxsaR8TX8wJ2a8t57uZDTOwm/KFgHkuO5frKMdHV9NmnLV726SUbo5wb9SA2zoXzmtF2+mVbm+x57Qc595k0SrktRuk3mLqElMmmm5zJBhlfro4ymWQZn1zvJvdDPhKPyBWQRFOiRCG5SCaietr1QzxlkrdeI4RMDsr4e3UjMkbbg9lXGaz5oHcMoseMjZ9I41kPc84/AB0xYkTzVRv+MSi8MSTikXQIwg/C3XHHHfHv//7vse+++zYvFTCRbBQJx9tsIFc6bjY3fNa5wTK6sVz8ZV39o40bql83eZn4e43f/mvYbb6Im9vgS73snzp67blNm2y/nFPbqquh5x6bsqi/9Rqa4Gu2Np1talgSjzFKX/WDwRzDdh5jidjV5XmszTt+NX2p67WeSjvnv62Uvtb1rxGOxNJm89ZaJht0tKvZ8MvkY7usK+VuZKOtn6sdfLzVlomn7aqHJEyRYNpQ4ulGPsYywWeUGMBuhTaZQCSaUternvvAFxIrx8N4veXGhQh+Z555ZvMohu/1SDpg299f/GSOjWAtLp3uufuemD17drzpTW+KV7/61c2zHU4SZMJtNq94JB/0bBw2mpu+jXjcjG4oF7v1jNo2JOb4ym769emHzcpmBPuNY/81zAlLu+O0Duqnjb6z3bFoz7aabDyTau5DnVj6qjc5W++F/frr1wtdg/rZP/XSVvro24b6Z8TXuchojKxD7jbvpW9Zp63nNJ/rrNtQchu5QCKlTUKSXDJqy+SjXaIpsSQb6xJLLyyJxzfXwGxrI55MPsqSRXkl1FYvickro4w5wStLBNa7YSYV24FZ3yZnf/qwXUk82Bgzz/g32WST5nYbz3yOPvro+O53vxsPPvhgc8XTRjjqq8TjCwUEmTBhQvzkJz9pOmIQnCgWM69P9yIeCKe8CnIDZiw3YLnBSnuvzVTbzFmX42c98mD76jWWfu3lOHLd8dZ02gaLORZyt/b5XLXJttduMm5L7qUdP9cLa4a6PqKxQX1B+wD9AGSMbMsy7Wxr/BLxL3X91PM4S9l56oa06WbXxnnL66s8j9n2aMgl4ViXXCSUEmukU/pk8skvGEg6YC/CqdmJla9oehFPJqksQyQlyUhKpT7XJaBMOMo1UpEQarZSl0nFdkNB4pbtcl+QLnWe9/CFUm658f96PvShDzV3x+CNblc7kE+VeGjEsx3+6Q+kw78+5YtDPFTiUzwb9jWveU1DPvm5jiTj5mTjurnbNqCbLCfCvLGyXrnXJtKvDYmvLcdSlzHbH00591nKtflQN1gsY1vvFsdz53kF1Ym2t66vyd56idpdKxIH66b0pU58ELvrLcewPZj1Ndm1WesHHW3abN30zkENnaeMHpMxbZd9ajLnrlyT+HlOS1tZH8wVOW3xz0WiqWE/5CLZZJKp6SAQyWdDEE8mkJJ48lVP9ivlTCbIklnWSzI1HWRD8vbKiboJPSd5CSDr2mR8JR/blagdLG3Wia8s5j4Zp+OHE3jJgPPDnuOXq5ctW9Y87/HumVc5GVvfanvk4UdiwYIF8cUvfjEOOOCA5v8x8FIBwSGd1772tetc9WQCckO72d1QYLmprNfQjQXmjefGGgrmzWf8UpfjZlubPFj/Wpwco5Q99qxHV5szdPrXsIyhT1usrOe8WsqkrJ/nvF/MRFHK9iXaJ/XSt1Yvx4APbUt9Wx1/bXkNK2NT7oXOTxuW7dv8sp5zx/nM60ldPs/KpW0oxFMjmTZd7cqnF8lIPKL+EA4yenVe0Qzm6icTTU0uCcY6vsqiZCOiz1c9NeKRhLCR1EnoJnKvfDLWEn8mgVKu+asDS+Ip2/dTlyzx5d/h8IYbz3ooF154Ydxwww1xzz33DDzryYSjXCUebrXdd+99zW22D3/4w80mh3SYLG6xQTwUnvnUbrmZKMRyg7p52AjKJbpJ2FRuHFB91vUj583phqNd1pd91eylf9mmm71mK9vXjoVjLo+bejln1vUvMcfOtrKd9RJJjpxLz6uYz28mAO3dMPtvaLnsl/ilrlbneMpSEoNzUdPXdHkumXt91FsX1XdDz2FeV+jyec6y/sREzvsg++V4Wc5XO/3IEFLtykfi6AfzFc6GIB4+mfcqEksvlHDEwRKPVzmZaEqZ5A5hmOwz1khCksk2daLkQ73ml3U12TFggxd4w42rHv5vD896+FLpkiVL/uL1akkHrBIP30Ll2Q7sxcLht3lYrGwKNiQbmCucGunUkkfexP1urLYN5OZps+cNlOW8gZSzfUPJxhaNy3g5dje9x1HW1feDxiZGP8W59zyadDk/6BgzCcVY2b8mm8jz+a2d/w2h84q6H1zf/vLxbAg5zx3xmHcQfbfz73nohqwT1wHYCZU1EQAAIABJREFUz7oxHufbtrkdOtfv+qBXQl75lCQ0GOLh6sarHsnIKx7iKK8vQkq1q5teJKQ9X/F4dVNDPsRnkvHqqEQTf/ZV1jYYlHzE3Lamy3ZliIcxgOh41sOXSSEe9G9729ua731y1ZO/VNpKPN6T4wujN910U3zta19rLmu5hHIDsqnZ/LxYUHu5oLbpbZsxb0Y3Qsa8EZDdAFmvLmP5Say0US83m/WMuR363G832Rj4IBOH4+J4c7LxWE0+1ruhMUH8HIdt8pzW5Dz/WXYMjtfjzT72kbF2rvvRsX4kvZp/jVxcb665mo86Yhq/RGz6ieUY8nErlz5lXT8x29WV6Lw7p3nteG5Fz4m+nl/q+mjrF2t7wViOJe+DwcoST77yKUlIEpFUSjKCSCADCSX7K9NGuRcapw3pSxIpb8V5ReMVjqg/mIlDwlGXSUny0AfUL6PJXv+M2tYXIRyvgsB+4mXyoc1mm23WXPVwBfS6170ufv7zn8eiRYviD7//Q+abAXngiqchnT/9ubkvx69Qf/3rX4/Xv/71zaUUD5B4puOtNa50vNoxEbDR2OQgG8wNb7226Wqbx4UPutmQ8wbTp7bBtNXQzSTqY71tY+Vx2KYNjaU9j9FEow3M9n7kbjGczzYsz0Guc56MbfvSjk9ZPM9iaa/VTfiZTLKsPWMve/ZFzv5ZLv2oM0bHD5bHrU/tWLI/82bb7KuuxDzfOU5tLPqyRjw/GWtrp9c6c727Zmuoz1CQD4GSD3KOoT4TUf7QiN3nPG0oyQyVePItt0xExKVeEk8mQOzUu10d2T4TlkQjaVkviUeCgQQgBm9vqQf7IYh+fCQRYnoV09bOqyLQsdCGN575EVF+x41Xrbnl9tOf/jTuv//+6htuf0E8v/3tb5ufPzjkkEOaiYXN6ETiqZGPm9nNxoZgk7GB1JWYN01NZiO5cWqbarA6Y3XD2sbTnzEOZUz52JgT4zh+7TkpqauhMbItt+0mm9DyudAfnXJGz6HnuFsSJoZ+uY+sx56JwA8xGbNdubTbT4lt/upLf+rdxoqdtjU/2jmnYhmrrc4cew6Ru/ll39wmn6eajK/r1/WW0fWuT4nah4qZaJBzHOqZmCCaTE7I5a25koDy1VEmoaxX1p5RYigJReLJZNQmSz7G8urHOijxiJKOvtYz+eSknomBqyFt/RBFG4FkfY7fjXjgAdrhk9swJmyQD896uEPGb3qedNJJzbMef0B04HKnfMbDVQ+/QH399dfH29/+9ubZDgfHCYd4MvlkAnJTu0HZBL02Yt5M+rt5bAuyefJmQWaD5EX80pfy8J3bYZ1fUC79bVNurLJuOzc36Ngck5sZVNcv5kTl8Zdt1ecxZLkcD+3bklapryXPTv8kvjX/yG/3tW+u5di0teS46PL5V9a3za5fJhRlbRm1gehz/CzbpvRXn32VtYm1tvmYs2wMMdu6yeV5b/PVL68BZNaBRZ+B8/Wyl8fLX/aK2H23dX+2qrO+2U+dtuyh2ponvntGO2i/6vIebJMz+WQf9fkqJxNPecWTCQMyISdJKiI+NTnrchyvaiCPXPLVjKSUiUS5IaOdufLpXP3gK5noA0osEg8Eg07frPc2m1dCtXomHslHMuiGEkcmHYnEmLTHz5Lj4YveMdmGujJfJqXwwgE/pcNvuN17771/8aynueLx2Q549dVXx6c//ekmsT/96U9vLpXZFBCNpXyrzWTgxh3YAMWtGTanG8xNI6LPcvZzobcjxAPprEs8EhTY3nbdB/NuLseSjwXZmNgdYy+s9W0/uS0x0deK4wHzmHL7PL9Z312GuHaPV7wCfFm8nKRVOW8m1hp63k3Y1jNqGyq69kDi5nH000/2KeVy3nJs5XJOqGvL8cpYtXZD0eXzn2XWSl5fTeyGeF4Zu+9W+y4Ua4zbiWt/YYT25ZrLMbWh88OaciaTLLtP0NkmI3rJp4YlIeUrIG/PlVdA3eqST8ZMQjW57SpnHf3Oz43n7rz2y6yZcJQz8UAy6DPpSE6SjUi7Ujbpiyb8ftF2Iu0gl37a40c7x2SMfHy8Xg3p8LIBa/Hss89ufkrHHyWAY/gbIB4M/DbbKaecEnvssUfTwbBhw5oFyZVOuVlIfm4AFyaILi8w5by40blItddQHxamn4bwc1M09pe8OHbZ9UXx4l1eGC9+8QvXWczl4jXOOvpdd4kX7bpLvHCXFzf44pfsGru8ZNfYtbmK4sUAPhWuLfTxohe9sHqMtWNA17bJPD6Pp9zMjHfXXV8cu76kU17y0nXH47zn9r1k2+y2G2/ZvSR22/0l8dKXvTR2e9lL42WQ6W5rPwBwji27vfxl8dKX7R4v2X23eAm3cCi77xYvrVzd2kYs185g6rUY6FxrNbvxtYHocj3LrFnica6cH9e2qL4bGgcf25Voe/WdOol/zfkosFwTeY25fjrIOoMYOI7Osey66y6xyy78iw7LrgM++L74xfyeHwTAyzu50G5tIb57xmczJWqvYbnvaCt5tGGOb8zarTeIRNIoiQd9vpIpZQnE9tb1kzhE9Tvv/Lz453/mGdBz45/+cee1peXfaJPUSdaSjYkaJHmb/PPVhWSgTmLwakW99W6orzFKzG1rvvnqx7HSBl/qHAfH9g//8I/xrGc9u3nWwy039B//+MfjggsuiD8+8seB7/VAPgPEc9dddzW32fjeDg+HuNqhEJyJd4JEOswDVsafe30Ung8pW1fHK3jZRp2HUxRt6mBRxqRdRLf11lvFsK23jK2GbdGUYcO2CgiTQrta4QfuKNi2HDYsthy2VWyxpiBvtfXWsdWwrWLLLZ8ZW271zNhqqy1iyy0pz4xnPONpzbxssUUnBnG22GKL1vLMZz6z+WFVED/7riHjceziVsPWHhvH2Ixn2BbNcXeOnzmolW2qeueFedt6m62iib/1ljFsm61im62HxTZbbRNbr5m/HHfYNltHp2wTW29r2Ta2XnPOPG8gb7Zw7iz5PPcr05Y4xirbdbOxxij2D7ruyjj2w7g53jx++wC1Yd9mm23XlM56zW2ybPs8jlLXqW8T2263dadsu3Vss6Zsu+3Wse22nT4656IzRs4hdddIB6ljZ6zbxLBh1Fn/rPMt1pRhMWwrbNs2vls8c6vYcothseWWw2KrLbduEHnLLVn7lC0H1q75ICOfbC3oeQkp22s6/f3CYR3XxsXfmPqqs94bnxabb07pfMlRdCwlagf5SRjLWv3T4qmbbd6UzTbbPCxP3eypzdtdvOHVT+FrKhb8lUHbZ12rvMkmsSklxWvkTTZpfk+to28fE3Z+d42C3OmbY+kU9ZtuSoynBtiJiS8+zMXTYrM1ZZNNNovHPe7xTRy4g/9Uyu02f0B0nSueuXPnNv/Qh3ewCcqiY7NCNDIaSIG9MwFllkSmnUQkW6Kj5LoymBOC7UETA4jPDtuvIbPt/Jeu28X2O2wb223P5l1DWtttH9tv1/GzXzD30Ym3XWy3Q6dsu/12sfV22zZlux22j223J7kMCzY/sU0eJBY293Zr4qPv6DqJANnkA5IUss7EIxrXseXxNmPeoXN8HOP229PvNg3usONa4i7b7LDjDrHDjvxa7bqvSXb8+FCwXdB+p53w2yF2AHfaMZ61406x0/bc40W/fQfXnLftd9whKDs+a6fYkff3n/PsBnd81o6x406d88q551zm9VB+umqr5/X0nOf8Yzz7Wc9p1pDxaIcPxfVHP6wzbaJ216A+9u34bI+dfkB0+mXMsXbaieNcey/cdjluLXb2I3b2edazOn3jM3A+OQc77djMedP/js+O7bffIbbdZl1iZw1tuy1l+9huO8p2sX1T7xB3Q2DbbRPbbrNdbLvNjrHdtjvFdtvu0CGqYRAVa3272HqN3CEvyGnrzoez9OEqf2DKH6qq8hbPjGduwYe1ZzQFn44MSVk6Nn06JPPMePrTn9EkfBMwyZ+8JAlYNwGC+EoO65IJ8ShPHyBKyUtSy7YsG4e4yJs/bfN46uZPi6c2pASRPT023/wZ8bSm/CW5OZ48bo+pF9JGH4+TunKHADaLzTbZtCEeyaMhCohk442bXxXglwU23njT2GTjTRtE7ug2bshGeeNNNg4K7TfemLJpPOUpmzQ/l8ZPpnXkTePJT35KcyuN22lPfvIm8fd/T9k0nvz3m8bGT9k8Ntn4qY39iU96Qvzd4/6u+R23KVOmNC8acGdtnSseXigYPnx4vOc972lutb373e+Ogw46KD74wQ82yA/AcTUEUrCpQ5/Lv/3bv8VHPvKRpiBb1IH8m4WPfexj8dGPfrQp1tFRuESjfOITn2jq6D75yU827HnwJw9eKx/8yfjkwZ9oCsx6yMGHxiGHHNaUQw89LDrl0DjssMPi8MMPj0996lPx6U93yhGf+VR0yqfjiM8cMVA+fcSnm+dc4BFHHBGf+9xn48gjj4yjjjqqeU3w6KOPiWOOPi6OOeaYpo4ee/bRho5XCynoLNRpZ/3YY48Ny7q6Y+LY446N49aUY489ppGPP/64OP7445ty3HHHxXHHHR/HHT88jhs+PI4/4QtNoY4P57UpJwyP4SccH8NPODaGn3BcnHDC8DjhhC82ZfjwL8QJw78YJww/ofE5/oRj4/gTjo/jhx8fxw0/Po5dUzrxh8fwLwyP4V8cHsd/gTE4vs6Y7O+EE05Y27djYHxrxj0wtuOHx/DjT4jjj+sg4zj++BOic1zHDcT4whe+ECeeeGLzM07IxB+IkeLSjrl03tuQ+fec4k+7Mt7ac0I8yjFx1FHHxJGfPzo+//nPx+c+97mmIFNcByD1z372s80aYh1ZeIaK/JnPfKZB6qxL1ifl0MMoh8WhnzosDvv04XHYpw9r7J86/Ig47LDDgzdODzvs0Dik8Tt8DX4qDj38U511fughcdghh8ahlEPZD5+MQw5hbxwWhxz8qTjk4E/HIQcfHp9kH33i4PjEJw6JT64pH/vYJ+JjH+2Uj3704/HRf1+7R/PeZF9S3Kfr4sfiYx//aPz7R9nna/c/eeDDHyZvfHCgdHLMQfHBD3TKBz5wUBx44Pvi3e9+T7z1rW+Nvffeu0lcvCXFPx1r8PV7xV6v3ytev+frm7Lnnns2Nnz51y37779/HHDAe+PAA94b7z3wfXHgAe+L/fY7YI3+gOYnwPDZb7/9/qKQ/2qFfLjPvvvGO/fdJ96xD+Wdzb9+3meffWOffd4V++77rqbOB3fGTUHmJS3kf/mXfxkob3nLW+LNb35zc1z8uCbF4wJz4Zj5Wgtlzz0pe8Uee7w+9njdnrHnHsh7xR6veW287lWvile/6rXxyle/Nl716lfGq1758njlK3gOyTPbV8YrX/7KeMXLX9nIu7+s8z06bvdyC3q3l+3elJfyL22aZ38v7dx6fTG/brHm36vwluELdokXPH+XeO5znx/P/efnxs5NeV7s/Fz+Z9KL4vnPo7wgnveC58XOz985tttx23j8Ex/fXKywD/77v/+7+Q03vlS6EewDC/GFHzYCiwliYLN+5StfaTY5v9f2pS996S/Kl7/85eaVOV6by+Xkk08eqBPDkn2++tWvNs+TQAvPl/j+EIUvr/Kf7U499dRGxvbNb34zTjvttKYg53Laad9sfsz0jNPPijPPOLspZ515Tpx11tlx1llnNQ+5eND1rW99K/7jP74V5577H/Ht89bgt/8zzjvv3OanHs779nnx7W9/e6Ccf/75zS848CsOF110UVx88cVx8cWXrikXNzps2vG55JJLmoLv2jYXD+ixa9P30ksvDYo29SB6/vvr5ZdfPiBfccUVYcF22WVXxGVXXNWUy6/6blx+5dVx2RVXxGVXXhFXXnllXHXVVWvKFXHVVZfHlVddtqZ+dVx15ffiiiu+F1dc9d248uqr44qrr4jLr740Lr/q8rj8SuJeEZdfcflAueLKK4Jy1VVXxJX4XM74OuPvjJOxXdWUyy+/shk3Y7fg4/F2xn55Z/yXXtFgp80VA8dKO46VF1/46XUKx8Nxddpz/J2Yzpvzy3n5zne+05QLv3NhNCXrLrwwLr6oc24cUx6n5+OiCy8Jy4UXXhwXXHBhsDb4eRDWC0hBp576f/7nfzZr7pxzzgkL6xCZtUhBPvPMs+PMM89q/q/J6WecGaedeUacdtaZccbZlDPizLPPjjPPOidOP/PMOO2M0+KsM86MM884K86g3RlnxxlnfivOOqcT61vnnBXnnHVGnHXmmXHGGWfG6aefFqeffnqcftpZcfppZzfltG+eFaeddmqc+s1T49RTT4tTTz29wa+d8o045atfX6ewFynsS/dk3nvK7NWmfPPU+MapX4uvnXJKnPLVr8XJJ391TTklTjrp5Djp5K/ESSd/Ob5y0pfW5IaT4itfObkpX/7yScGHoM9/7siGYP0QCvLhlNJ8gP23j8RH/u0jzYdaPvT6wZUEd+yxx8Xxx/Gh5ISBD1XHHH1s8yGPDxZ+MPFDhegHFD+QZORDxBGf/Wx86rOfiU/xwfQzRzQFHX1S+ADBB9xc+CDBBwU+FFv4AE2e9Xj48M0x5Q/s1jtk/eH40EGdD/sQ9UEfOCgOev9B8aEPfDg+9IEPxQff9774wAEHxIEHfiD2f+8H4sD3HhDvPeA9ceCB+8UBB+4f++9/YBxA2e/A2H+/A+M97zkg3vOe/QIyfde73hX7vutd8S7kd+/XlHe+c99429veEW9765rytrfG29/2tnjLm98Wb9r7rfGGvd4Ub9jzDbHXHnvFXuAb9o699n5TvPFNa8h07zfGG974htj95bvHVltv1Tz/4Q039iK/XM2/29mIFwp4vjNr1qy4/fbb484778yvW7fKEhZoad5c+OOfmuD811IK/0iOe3uwHIX+eK9bPb+SwEDQI9sGO3V8QQZ87313x7333h333ndP05542h584KF48IHfxUMP/S5+15TfN/3StwVf5AcfvD/uu/+euP+Be5svOBGb/kD65wu0jgN/bPff/2Dcc/d9nXLPffH73z8cD//hj/HA/Q81/rTxmDgWx4ZuQP/wI82x0g9frKI8+OADzXj+8IffxcMPd+YFf8fEmCno8OdeKYX+9FF37333xb333xf3PXB/3PfAg3Hv/Q/EXffc2/zK+OrVd8bq1auig3fGqtUrYtWqVc35vmv1fXHfPcz9w/GHR/4Uj/zpkXj4z7+L3z/yu3jgoYdi9d13xepVq5vy29Wr465Vq+O3q1bHqjtXNTGIkwtraOXKVbFy5W/jzjspq2P5shXN/2VfuXJl0yc+Hb+VsWLFylix/M5YvmxlrFyxqlNWrurolq+I5cuXN23vvHNFdMrKIE6ORf/8mjrfQ+P/v1toS7Ev2mgDtS9ftjyWLl3aFOSmz6bvFc3Yly0FV8by5SsaH/454pIly2LpkmXNT8HT1liLFy9ufmCXrybwQ7vUFy9eGIsWL4i5c+cEt7UXLlzYFL7dvWjh4li4oFMWLbwjFi2iLIoFCxfGvAXzY+78OTFn4cKYvWBhzF20MBYuWRSLFiyMRQsWxYIFi2PJoiWxlPHdeVfcd/+Dcfd9d8equ5bH8pWMjbI07rhjSSxevDQWL1oaCxYsivnz58f8BbNjwYI5sXDhgoGxLF60OBYtXBKLF+F/RzN2xsJ4QY6lc+xLGlTXOUZsSwbmd+WKO2PlCtbJ3bF82apYcseKWLZ0ZVOWLlna/IpxM88rVjQyc7hi+YrmvLsOOEeeV371GB/ONXrHgo4xMUbme+GChQPzOXfu/Jg3e14snM9cLerY1vjxf8bKMmdO5/yA2KwjT585I6bPmjlQZsyeFTNnz4rp06fHxIkTg9tJyLxCPHPmzJg2bVpMnTo1Jk2aFJMnT27s6PBRrw07hV93powfP74p1vkJs8mTJsWUSZNjyqRJMXXihJgyblxTpo4bE5PHjYuJk2bGhCmzYsrUyTFn1oxYvHBBLOLcctwLmZ8lzTzMnzO/yfeMZdKkyTF50tSYNnlaTBo/KcaOHhdjx46PceMmxPhxk2L8+Mkxfvya8YybEhPGT40JEybH+LETYvyYCTF2zIQYNW5CjJwwLkZNHBejx46LcaPHxbgx42P06LFx++0j48c/+nFwh4IPjxwvP6WzEUmfzcpk8DM5DIbFxMLkJC5bxqZf2ZxwTjwbr0kUKzqbEBkdpVkgq++KO+8k6bDoSDIkpdUNudEPJEdRZhEpgy4yEBuJ4re/JaGsjjtXrYiVK5fH8hWdRJL96WPVnasHEgzy2mSEfGdTVq5ck7xWrVwTb20SM5kNJLRVa5Mjx7NiOYmRpHpn3LmKvlY38gpirrozVv+20+ddd609To6VY6F43PbT0TM/K+O3d3XmgWMqS2cu1h6bSbtzTMwR87Iy7ly9KlatXhUrV90ZK1etjpUk/JV3xrLly2LZ8iWxbNnSWLLkjlhyx5JYuoSyNJYtXhwrFi2OOxcuiGWLSKYrYsHCBTFvwaxYtnJZrFz121gJeaxYFSuWLI8Vy5bFymXLYsWy5bFsydJYumxtYX3QRycRLI0ld5AoKMvjjsVLYskdHRs/ILhk6ZJYuiaRkKxIjiRySkcmmSwdSHx33LE4li69I5YsBUm0nVgZO+tzeSy+o5Mc71hCAu8kTNrQLwnKQr2TXDv9L1q8pEn6jLUZ0+JOAm7GsWhZLEa/uEMKHeKAYNYSiHHZO5AOBDN/wfw1iZ39hG5Ok8yaxD9/QdO+QwQLY/78hbGABAkuWBDz5nf8Z8+aEXPnzovZc+fHbOIuJP78WDB3QcybNSMWzJge82fOjrmz58ecuQti9vzZMWvutJi3YG4sXLQkFkJsEF1Dbnc0befOmx1z50+LufNnxPwF8wb2O/3On7cw5s9bsEbHuOlvbud41uSFzvEz5vnrtKUv56mZx8WQ84pYtGhpLFywZIDUIDvODXPWOQ+0W3PeWAuQJUS5eHFDShANvosXL2rqrAfGZRzGzXx3yryYB+EwX7PmxJyZs2M+czVvQcybO2/g3EAOFD50U3IdecaM6TFr1syYPWd2h0imT4tpM6bHtBkzmtIQEfK0aQ3xQBzIFMlFgpF4qGMHISsIZuzYsQ3ZgKNGjWrK6NGjIxdsE8aPj8kTJ8bUyRNi+pQJMWXShJgyYXxDOhPGjouxE6Z0yrhxMWnihJg2ZcrAeCZNmRoTJkEiE2P82PExa8bMZozTpkxrSGfqpKkxYdykGDNqbIweyTjGxqgx45syYsyoGDF6VIwZOS7GjRofY8eMi9FjxjYkM3LUmLh9xKgYMeL2GD3yNzHi9ttj9IjRnRgjx8aIEaPimp9cE6ecfEpzp4J5GCCeu+++u/lR0B//+MfNrYGvnvy1OPaY4+O4Y4c3txS49XH22dyWOi8uu/SKuOJybnNc3ZSruK1z2ZVNufbaX8T11/+6YTmYbsTtDIgyIm699dbm57K5qoLFYXDY77bbbovf/OY3zdXWmDFjmk8FnBDs2P73f/83xowZFZMnT4zJUybGpMkTYtTokY3txhtvbNoRhxNIe2JBoPQzcuTIGDdubIyfMDZuH3Fb3HLrTXH9Db9q9EwATM4JpZ+bb745brvt9uak0/e4cUzobXHrbTfHzbfc1LRpPnVMnhyTJk+Om265Oa7/9Q1x+8gRMXrsqJg4ZWKMnzQuRo4aEb+5vROPMbEAOR4WEeNhXIyRsc6YMa05pjFjWWwjGpufnPj0xBhZiLQbNWpMjB83sfMJZfLkmDhxfNBu9OiRzfFNmTK5iTdt2pSYMGlCTJw4KSZO9FMWC7BTWDRjRo+NyROnxJSJU2LS+DEx7pbr4jc/Pj9+evlFcckFlza3VU780gnxo5/8OEaOHhcLFi6JRfMXxbRJU2P61Gkxa/qMZlNOZQNNnxZTZ0yNGTM7m3TmrOkxc2bnU990bFOnxvRpM5p5YC74NNhsvOnTYubs2cGnxils6JkzYu78ec0nSI4bXz9tzpk7K4g7fcbUmDadT5XTBj6pkjDwHfi0OXNa49uMY9b0mD2bBEIimNr40b+F5DJ95qyYNmNWzJg1J2bNmR/T2JDoZ/CJtVNmkbxmz4/Zs+c0CWptgps78Kk4f3J23PjNmzcn5s1fU+bxabpDPBAJn8bnzJ7XlNmzO7GaT9mzZq9JhjNj9swZMXPqlJg5ZVrMmjIjZkydHpOnTo3J06bHjKnTYuKIX8bIG34aN17z47jmB/8d/3nueXH+hefFZVdeEjfedFMz7pkzZjXnYdZMPsXPi5lz5sSsuTNj9rypMXv+9Ji3YF7MmTd3IAHPnjW3SdjMHUl37lzGMyOmz1ibVPOnepMtOhM4Os4jhbVJ3fNPQnc9TmvOS8eG3VisG/cA+g4pMIbOGuCcMiYK620m87SGRGZyxbFmfrhCmDZ5SpNoGR9xy+LYQGwdnBJTp7IOpzZ9glOmTIop0yav056x0YYcROkcL207cYjlPIj2b14g95CzQMott9wyIJMvzBnkgQkTxse0qRNjxsypzZXXlBmzYuzEKQ0JjBh5Y9x22/Vx3bU/j5/99Gfxwx/+KH78k2viZ/9zTVz1ve/GRZdcGudf8J246OILm3PRrP/pM2Pq1OkxaeKUGDd2QpNnyN233HZ73HTbb+LmW38T19/867jhpl/F7df/b4y64foYdettMWLUqLh93Ni4beSIuPWmG+M3v7wubv2fH8ftN90cI267PUbePjpGjhjT5P///d9fxQXnXxjX/Oya5pxyh2YjbglxW4lJ+NGPfhynfuOb8bnPHRnve9/7Y7/3HNA8cD7llK/H4YfzwP0zcdSRx8QRn/5s86DyEx8/OHgY+W8f5t7rx+LrXz81vnXOuXHLzbfFrbf+JkaOHB3XXPPzuOD8C4LnQTzo5H7wf/3Xf8WIESNj/PgJzf1WHqxi41kMpMQEX3PNNc39ZO7tnnPO2XH55ZfFuHGj45ZbbopvfvPU5hnUJz6UIaDkAAAgAElEQVRxcHzta9+I228fEb/61a/iZz/7WfMgmnusPJPi3vvNN98UN910Y3zjG1+PL37xC829Ve6rX3vtdfHLX/6qGR/3nT/1qSPipJO+2jwLYgH9+tc3xFlnndk8yOfB7LnnntsQJ2O75bZb48hjjo6PH/zJ+MKJX4zzL7wgpkybEjfdenNcetkl8dWvntzc5+VeP8QJeUA2PHTnYTT3ixkbC5F+Lr304vjyl09sHizzTOGHP/xhQ4Y8d/vyl77cPNDmvvd5510Q48aNb2J+//vfj+OHHxef//zn4oLvXNA8o5swYVzceuvNMfwLxzf3uT/72c/H97/3/ebcjhjxm7juumvjlFO+FkcdeWx8+9vfiUsvuTwmTx4TY277adzwg2/Eld/+Zpx+6hnx+aOPicOOOCy+/Z3z44c/+Vn84Ic/iquvvDqOPfLoOOuMM+K6n/88brzx180Yv3PRhc1LBqee9o0455yzYtr0yTF23Oi4+rtXxdnnnBXHHHt08wzjF7/4RfPhA6LnHwt+/sgj49TTT4sLLrowxk4YH2PGjYv/ue7auOiSi5sH/jwHufbaaxsCnTNndnzrP74VXzzxhDjm2KPitNNPa+aUWMTlWQr32HlWcvXVV8Wtt94Sv/nNbXHR/0fYW4BlubXropRd2OK0A0FQbBAQG+wWFRtFRJBGQQlFQUpJQWkQkJDu7kbBAuzums74/7X+vda5977HB07nv/Y5x+sa1/f58caIZzz3E/cYIyJcjLuLizMuXbooDCAaK+xX1oEkDl//ACQkJaG+sQktt1rhdfEiPLw8YH/KHuHhYaipoRw3oqa6Vsgx8wGUH+aQaIFTiTCEwNwj/8Z8Eo0K1o3jzvwKiSF+/pcQExOF5uYmIQvJyTeEIUciRVhoBEpLylFbKzGWAv0D4HHhAnwvXkJ8bCxam1tQU1mD+Jg4+PlcgsNJe0RfSxD9U1acgOL8SKQnhSEm4iqcnV1w5qwz3C+cQ0ZGJh50PkFKciq8vXzA/MkFD09hMNFIqqotQ0Z2Kk47O8LD20u0iSSj2213kJmRiZCQYDFvT58+JfqTCpF/j46KgZOTs8jnMIeZn58v2ss8G+WaBBD2B8ePclJVVYno6CjY2tnAw8Mdly8HgrJ6+3YrkpITEBTkL2T5ku9F0Tc0sijnzI9xvlB3+Pr6iuc0NNQhJSUJoaFXhQ7w8vIUh1WWlZaJcbp8ORguLmdw3vUcAnz9UF5ahrqaWiTGJyD48mWcsDsh5jjnD9tSWVmFq1dDxdy/cMFD6CcaygSA3NxskQ+2tbURuuDGjRTRDxxzyg9zXswLsW68nnOcz+S6FeaHqM84nwkcNG6Zh2XOjWEn5tzYbyxFRUWiryiXLDk5OUL/UZ/xO/uR11DW8/Iouz44cfIELvoHIuJaIrLzKlBVWoGqjGhUplxF3OUAhPoH4qJ3AHwuBsHXLxBOLmdgY2cnyEeubudQUlIsnnXypAPOnjkPP78gJCfdQEVlNQqKS5CVw3rkIi87D2k3UpCVHIvcKE9kRnghOToc12JjEXktDjHXIpAQG4CsuEvIj/dHQswVxEQxtx2NmNh4JKekilyvn68/6NjQMGHKQJALmJMgMmekZ8L17HkQUMic4NYaBw8cgvlxS5FoWr16LVavWgttLR2ozZwtFk5NnDgZ48aSgjoZuw32wszUUkyiiooqNDffFB6S6TFTsd0OKZPr168HyQfl5ZUijsjFW6QvkiJIlgk9Aw4elcm6desE7W/nzp1CsdTV1Qhh4DNI6yZffOUKPRQXleL69URxDxeb8XlcQU7Q4kByAMkqIYOD1EGCKpX49etJiIiIwaJFizFs6HAs1lkCA4PdQpmkpaVBX19f7NzAuh0yPCQAs6ysDHn5+ZimpIQ+/fqCC06NTUyE5Z6VmyOUGVkqpI4aGh4SyWwKJAWTi91IrSZdlslDgmxKSjJOnLAVOwf0799PsJdItqDAEezmzp0n+ldZSQUHDhgKwKbS42Tkoi2u52A7eS0nZUZGGiZPnihotf37DcCpU6eFIszPzxX9o629CAqjx2HHzj04bm6F+w9vo745Cxnp5xEUeAaOZ87A6Ngx7D64D2c93OAXFAhOvCOHD2GI/CAsX74M/n7+wm1mv+4/eEDQsRdqLhR9TCuR4Gdja4XVq/XE2ic9PV3xbp5my34gU6f/gAHQ0NLEzt0GqGb/VFfB+6IP9uzfJ2irZP5wctOooOdAdtCkyRMweIi82P2WgE5jg4qO8sFx5TU0Yjh23KCQrEsuFCW9mouiOXFJTCBwkAlFeqzuKj2cPOWAvIICYVBoL9bB3AVzMXzkMBjs3imUGpUDJw2ZUJRh1m337t0idEovmElj7shAuWMSlUqChbLHXQ1Ii9VerI2Dhw4ivyBf1I/GHdlQQ4eOEKyr8LBIARS8Z+XyFVCbMRNLdBYLdhqNtPT0TBw3M8fKZcsxasRIMXaBIYFISQtERnYAomMuIsDfRxhwx0yPwtTsCGJjYtHZ8QQO9o5YpL0YkydNxUy1WYiOjUZVbRUSU+Jwzv0sBg8dgjnz5mLf/v0CfBobmgSobNu2RVDL2Wb2J1lJBFljYxOMGzdezDEmxqloqViZMCcjjFRx7lBMwysl5YboOxqDAwcOEuOxcdNGEZppbbsJB4eTWLduDUaNGoklSxaLPmPUhGDP/ia1l3LO8eLYFRUVCsLTrl27hM7g+JL4QDILIy6bN2/FpIlTMH26CvR0dUGAKczLh7WllWC8cYyoC0gyiI6NwY20DOjv2CWYWvPmLRDv4dilpaUKgGTynbJFFhrnXEFBvtCVK1ashLq6BoYMGQo93VXCu8jPK0TctQTs339QjDnvYZ/weTSkTU2PY+VKXdE/ZKnRSCFhhnOdfUuDnIYi25kQz4hSnOhv/p/yx7YQ6Ml6GzBwEBYtW4mDxuYIDUtCYUYOiiLPoyjIAb7W5nA1t4G5iR1MTWxgcswC2/R3YvW6tdizby9Mj5si9lq0MBTl5Qdj6lQlrF2zHm5uF5BbUIAbGemIjY9DfFw8Eq8lIvZqGOKCfRBxbi8uu+yDp6MtnE45wu7kKTg52cHTzRxX/cwQc9kaZ50sYX/SDpaW1nBwOI1LJMBcuiSIZDSoGYL+848/JQtI//u//x+03+9EZmYOoiJjEBAQhPPn3EWhVZwQn9jFfPGBt9dF4dmcP0+Gihtcz7rhlIMzHOydEBgQgrDQKJSXVaOqkvG+RmRmZAvLhTTUPXv2iXuo8Ftbb6Oz86Ggn1J4DQwMBLuNypgWAgeCwrFlyzZ4e/sI4b5z564QSG/vi6JhpEkyJFhZWS2ELj0tExYW1jDYtUcAQFBQkLA6+Twqcz5v79598PT0FhO5sKAYuTmFOH3KGaSOOjm6gEy4p0+fiTrQYiHTj8rk4kVfEUZkm/g+elsUchsbO6H8GPMmaEZHxwhWzq6du8F6pqVloLZWEkajUiTgsL1kMdHVpQVOYaIXxIlGK4+hTQI376WXecjQCMeOmYlBZPgsJydPCCUZLwRHMv4owHw/T//bbbAb+tt2YN3qdQgPDRcTpaK6Csk3UoQhQbYK23rR1w+NbU0oaspGXFEggqJ94ObtjZOOp3Hc2gruXl4IDLqMiz6euODmipUrVwrFzolQUFSI8soKuLq5YfO27TA8ZCS84LbWu8JL8PG5KKi/y5evEN4fJxUNCnoCVEKcPGT10EsgMLOwHzhG2to6OGZiBoZxmeh88viZ8MLZP6TMsv/Yb/SsOdEZEl62bAVO2NnDx+cSSkvKxN/JpiQo8z7Sfdk39AIYLub4LVmyDOaWVvAPvIyKqho0NDcLL/bg4UMCkMh+IljxPioOygIVINlLVELMITIcxP7nWBBkeA2NExZ61Dt3GUBDUxP7DQ3hfOYsausaUFxcCi/PSzhqbAYtrcWwsrJDYuINMa6USfYLGUdsJ5/NRG9BSRlc3S7ggOEhaC/SFgyw8LhIJBSE4XrxFYQnBSE47LKg1NudsMHhwwcQFMjoQwPc3T0FUFIRkr2UmpGB5lvNyM5LR1CIP+apz8eWbVvhcMpBKDd6HMHBIQLESAmmoVBUVCLmGGWSFPwVK3QFXZlePBUivTxa8hy3NWvWiv7gPM/NKUBRYYnQJeoLtKCvv0vINL0KznV6GYcPG0FTU0vMzaqqGhHybm5uEbqB23Nt2LBBLNfIzMxCWVmFUGT0hGgY79ixC1FRMUjLyEJRSSmOmZlj9Zp12LB+E4wOGwvALCksgtu5cwIENDQW4oixCXz9A5GRlYOsnDyYW1hh1ao12LhxszBKq6qqBQCGhoZh3779YgH9rp0GoD4pL6vAvfYO7DTYgzXrNkB15hzs3nMQWdmFKCquRGJyGo5b2GC66kzs3X8QpxydUVJWjoLCYpw+5YTdu/eIQzRpLJE9yXlBY4NKOTExUYAO5xd/528sBH3KIQ03Aj/nvKKSErbv3g07JxfEJ+eisKwU6fm+SE27gAvONnCytIHJvuM4csAEh42MYXjYCMYmR+Hj6yPYqik3riMs/IrYhZsgSIC8fDlE6J3cvDyk3EhBQuJ1xMUniOsuR/jAO8QEHv7H4X3xHDwveMH9vBc8vM7D298JQaFOuBrpCm8vV3hc8MS5s+7wdPdGcGCI0HXnXN2EwcU8LMlSP3YuuH+/Qyjj1NR0ZGZmC6+FobJ7d9tx5849USEqQyrdxoZmERNkXJAAUlfbhPLyalRV1aG2hmGJBtTWMg9TBwoSJ2Fubg5Skm+ISdfcdFMkUpm0LS3l33JFR9Oy7M7X0IJiR1OoKsqZY2kUiVgmCOvrm1CQX4KEhERkZ+WCz2OdGuqbkJGRhaTEZDFQBJzueDufRwXCcCInPuOYnNDNTbeQn1+EjPQslBQzLFAjEpuPHj4S3gXdXE4shkJab7WhrfWO8OQSrycL17mgoFCESNihTPhSsTKMdy02DgX5haivY36GuRiGHbMFoBJU2ZdkEFFxVVfXiPfHxl5DcXGJCFMSYFjHGykSgWRohpZge3uHYIswZ8bQBq3KGzdSUVxUjJYWgna9AOmQkKsI8g9CeUk5Hj1+jNa2NlRUVopcHUOLBCoCUXldDTLr8hFbkYTQ5EgEhlyFj58/3L294BsYhJCrYbhBSywhAW7unoiIjEZZRQVq65nbakZSSgp8LvnBPyAIQUHBaGluQ11tAxITU3E5KBTOTq64ejVMtJfKiZ41LT1S6xlOI9gwfMlCOQgLC4WlhbUwfkpLy3H37n08efK8y10PEAo3ICBQhM043rQyo6Njxe8EbCEPzRIWDict+4cUX3qE1VVVQt7ycgsQfPkKzpxxxZXQcKGAWm614c69dlwNC0dAUDBczriCXggVXWUF85PlYmISKEkLTUlJEaE2xvipMBhC5tqc7rALx4cK7Ly7OyxtrOHt54eYa3FovX0PDY03cT0hBQH+l2FrY4fAwMvIzy8QY8/3eXl5i1DxJV9fQW+/fa8dDc2tiLoWj3OeHjC1sEBkZCzScrOQUJGMmIoEhGddQ1h8DLx9Lgkjy/iIMXwvBSI/r1iE9AiUDC06u7igvLJKhIar6yqQkpaEQ0eMcMrJURhQlOemxhYxtxguI7AwnEQZ5dzn3AkLi4Ct7QlQmTAyQYudY8vvNLYYFmYb+CzeQ2MtOvoaLMytBQAFBlwWss33RIRHw93NC2Zmljh/zkPIT0szGV2toj4MWXE5B72a7rnBeeLvHwAjo6NwdXVDYWGJCBHVNTTCLyAI9qcccdrJGRc8vSQGUlmZkCuG6I8fNxcU9GTOmfIKlFdWCwPMytpWGC40yBheLSkuAec414ox8kLQSE5KEXJHcoHdSQdYWtvAYM8+nHZ0QWFRGUrLqpCemQO3C57YvmMnzrieF/Il8iVV1WLukeJ9+NBhMRbUA/RkKPf8nnj9L+Ch7vs5zMZIgcQTSxNhPBpTpx1PIyg0FJnF5Si8WY+YW9cQXRuOC/4ecDrtgmP7THH8iCnMzE1h63ASF7wuoLisWOSpCgpzkJycgO3bt8DY2AgXLrgJHdxU34DyklLx7hvp6YhNvo7LceG4dD0YZ5LP4dx1DwTEXkVoaBRCQyIQEh6CwNhA+F/3RcB1PwRHXMWV0AiEhEQg7EoUoiKu4eqVCOFwZGXlgHwCQacmX5p0aMawfbwvCauVngnXBtCDyM3NR052Hvz8uCYmQHgEJBnQE6IXwBi1iclxHD50FLExCULQyZ559PCxsGiYx3j0WJKgpIXP5ClDJ2S+kMHU2fEQHe0ShgX/Jlg1pJw+fCCSwEx80TNiwvPN63eCKcXvHe0PhJfGZOnLF2/x7MlLPHn4DB0dZKhIkrN8j6CCPnsBSYL4CR50PhR1Y6KYid4njx7jkUgeP8ajR5JEL9lFjx89RXu7hPXCpCSTv3wu47t379xD+10mQpmsZML8gWAOkZFEoGM7qWA7O9rxkMn0O3cFwIhEZFcCk89iP9GaZ9KXz7h3r6OrXUzAS5KW9+/eA5kn3clz9g/7ie/gb5KkJp8vSWLevi0xBm623EJDXQM62x8IaixdXLaDCoLWJuPrbXcYZruF0sZ65NVVoLSiHNVlVSgsLkVuQSGKSitQUVmL9tvtuNd2D/X1zWi5dRv32jvx4NFjwbKismZ+pLGpSTyb9MzW1rauJGUjqqvrBAuGCW72DetPS5d16AZk5hdZWlqa0dhUj8qKSnE/+/fx42d49vQVWlvvimQlvUcCDttJI4CECyow/t5667boB8oe30VyB99Bo4NGSNutVrTebBVJVD6D9zQ1sx/ui7Y8efZCMH8IQlXVEo+dLCA+t/VmmzBEmBOgEcFnk3HFfm1rbRPPp4FVU1WFWy0t4u8kePA5ZRWVqK5vFO96+OgZOh88wa1bd8XzGGtnDqSJrKFm5jZuorKqWhR6Ry03W/Ho0XN0tj9Bc3Or+D2/sAj11Y2iX8tqK1BYUYTC0mIUFpcIrykjPRuxkfHIyaLh04zamjoR4qTHSU+Rssa50d5+F7dutaAgn6HBUhH+prHZ1ESSTj0qypnTKRMhTcrzvbuU/fuivxkqr2DpIvLQ4GI7+DvvIeDQMBXzo70T9GBotTOnWVlVKeSlsalZ5FjKSstFuLyyshYdQh+QMNIpAKu0pFQYjDQa6xtIwmlGdRUJRFXIzS0S0ZU7d9px91678ESYDKfnU1DE/ihGXQMT3TWorqxASQlzKbmorK5G880W3CaB5959VNfUgQnwvOx85Ofko7GuXiTIK8urUFBQhLTUDJSUVAi5oa56+PgRioqLRXg2NS1d9DmBmX3G3HZhUTFS0lJRQnmoqxf1Yv1owNBQEsZ9eoZoF8GExi1BhoYpP1kYSuZYMRJAo4wyxz6mjBQXFyE9NRVF+fmorqzEzdbbaO24i4r2ElS0FiKNxnJqFmLC45EUfx0pKdeRnpmG3IJc3Gy7iY6HHWLcGxvrkJmZjry8HJSWFou5Isa3uRk11dUoKy0VocWs7AykZ6fhelYiErPScCMjD5np+ci6kYWMtAykZKXiek4KEnKTkZqZg/SMPKSlZyM9PRsZmTlISryBoKDLwugjseBf//mvvzweWumMO8+fry62A2FehwvmyFijRWltYwdLK2uYm1vB1u4knJxdsHPXbmgs1MLEiVMwdswEeHr64MaNDLHWhfx8MsMePnyAL18/49dfvwi0o+KhwmTYjIUW/NMnT8WakM+fPuEtabKvXuDDu9f48uUTfvvtd3R2PpB4WOSc37mL+/faBTB8+fQFX798w7cvv+IT1328fYdfv/2K375/F3x9Kvpbra241domBJPA8vnzF3wk/fj9W7x+9RJvX7/CF0Hp/iw8Fj67kYqUyeZmemZPRSz/7Zu3gorZTnbOvfv47dt3cboeBfHO7Tto4vUttLRbhTL69PED3pO+/PIFOu+T2XUPH7n+4OMHAYYEjqbGZqGk2++3CxovKeCC8vvyOTra7+PRwwf4SEr6+w9CYRM4qPCopAnokjUOXwTl/fnzF+K3jo5O/PHHn4KS/fzZM8HmYbKY19+/f0/QqD9/+YQvX0kJ/4TmljbUN9xCdWUdOtva8eHFO8GEunNXMpk7Ox7jO9f5fP6OL5+/4dXrNxKQu9uO23fu49HjJyBtmXRyjtfde22CYPDs+WNBrSblm7RZvpt1IFBSBughkjb+/v07CVuq/S6ePHmIN29fieQjadgE01u3bguvlKyy16/e4dvX7/j44TM67hOkO/Dk0VO8efUWv379VaxredD5QIxHW2srOFZPHj0StP7XL1+h4/59POp8gKePn+LDu/f4+vWbWNtCo+QOgfvuPdG+129Yt6948+oNOmkU3WvHg44HePf2Lb59/SLGlwYI8zsspKaSnv7nH38IGbzXZWjQePj06Qu+ff8NBLWOB/Q876Dtzj1hyDA8++kT16M8RWfHfcEUZJtI2ydVn1RvGiWkud5tI5vwIV4+e4mPHz7hBenRfF5VE5pKatBW24zbzW1ibrS13kNddTNaGtsEe1HU+9sXvH/3Vtx39+49IUesu6SOXwXl/cnjx7h7h0Bej472drx4/kJCuX/9Brdb6e2TVXlX0K0/f/qKt2/eCSOota1VsDmfPn0kWa/04qWgf1PuOB8orzQE3r57g5dvXuLZy6doaK5HfVOdYKWRIv2R8+L5C9y8dVMoV84/Glikwb/jmp1XrwQBpa6hAffu3RfPf/v2vaCf37t7H200eNpuC+ORc4GyT93T3NSApoZ6POi4j6ePH+HNq1cCdO+330fr7dtoa70t5jVp8s/INHzwCPW1tWhqaMTttttirCmnNGA55jQMSBB5/uwJXrx4hndv3+DRw07U1dagob4OrTdb8PBBp6g3Iw3UQW23JYYV5YR0brbzQUcHaqqrUFpSjIyMdAHKNAy62W0kctBYIthwnPjubsOc6/H++P073r1+jeePn+LZE1LHH+Je+020372Fm/c60HKHuk8y5x8+lDD/2jva8fiJhOLPvnn85BH+/Mfv+PbrZ7x69ULov0ePnwqWKanbLdSDNbVoqqpCMz3XkkrUl9ahprwRNRUNqKuoR21lLWqqJAZIWUU5aqoJvvWorKpDRVU1GOKnwcF8FY1AEtnIKfgRauMfyXDQ1V0FdfWF8PTwFuhMtE9OTkVUzDVERseKEhoeiZCroSKGqawyQ2woOHToMLi4nEVMdLwQTlo/3B3g2rUYFJcUIinpugh5MCn486663G2XSUAydSLDw1FTVYHG+ho0N9UgNy8dsdeioKu7ErNm/byj9RysXKkH+xMnEejvj8b6ejQ3NuBmcyNSbyQh7GoItm7eLHaxFrvszlITydOVK1fg1KkTuBYbjtqacjQ2MAxQhaysVAQG+WL1mpWYO3cW1Gb9dVoik8jMFcTFRqMgLxfFhQWoKC1FY30dGusbsIBbTHTt3stdrdVmqWH9+rU4YWeF+GvRqKupRG11OWqqypGVk4mAIH/s2qWPZcuXiHfNmj1L7GTMmC8ZagUFWaitKUZdTTmqK8tRmJ+LqyHBIk/BpKhkx2rJVvPMGTF3lZ6eKthDtCarayrQdrsJ1xOvYfv2bVi2ZClmd/XdwoUaMDywX+Rr7t27KRYQFhblIys1HVFXw3CzoRF//P47auurERcXhbhr4UhKiEXnvdu4c6sZwQEXcfz4UWhoqGP2LJ71Ml/E88n6Cw29gqysDNTUVaCuvgItN+uRm5uFgEA/HDU5Ai1tTZFY5m7LJAFs27YVmZkZqKhgeLMctXW0gskKKhIJbuZRZs/m1h2zoDZTDcuWLcf+/QdEGJUsJVqxLPU1tchnzismFgf27YeO9iIsmDtPjMsavVU4bHgQyYkJyM5MQ0tTHW61NKDtVhMyUpMRHBKEI8aHsWLFsq7ziOZiw/p12H9gN3JzM1FZznGuRZNYo1CPogKGUKOwZ48BtBdpiX5gXyxbshh2NjZCNigXVHYkwlRWVAgGYEZaOnZs18cqXT0s0tIWY7J140ZYHTfD9WvRKM7PQVtzI9pamkXJychAZGgojh87ii2bNkBroTp0Fmlj9Wpdwf66kX4DtU3laGutR/r1NCRFp6C2gl7sXXQ+foyGxhZc9PZFUkISaqurcP8eKbg3BfngwIE9WLFyGRZqqkN7kabIJXHXDzLFmhtrUF1VhIK8DBTm5yArIwOXfLxx/qwrlizSwdLFS7B06XJBciFBKCYqBuWlpSgsyEVeXhbKygtQWpaPc+fOilwgc0okdXB3e+4ucPHSRSQmMT+Yh8zsNGRmp6KsrASZWenw9HKHybEjWKg5XxQtbXUYHtoHJ+dTyMnLRmV1OTKy0pCSmozs7Eykpd+At7cnrKwtsHTZEixftkyQMsyPmeL8mbNIjo9HYW4OUpOTcCMxEQU52UiKu4ZLHp4wMzbB+rXrxFY1q3X1YGZqKghPyUnXkZqShIRr18DvudmZuBYTAV8fD1iYGWPTulVYo7scest1YH3cGKftrUVfZWelICI8BJERVxEfG4WYyFBcDQ7EcZMj2LZpPTavX4OtG9fB3OQIvNzPITczHVnpaQi7egWXgwLg7i7Jf9C7IVDRKO0OrRGMGLYlG4xeJ9MDL168xOdPX3Dv9n20NNzEq6ev8Ob5K9RWVKOitAK3hBw8xfvPX3Gn/T6qamuQX1SIwuIiPHn6VKytpBdFAP3+/StevX4GEj3oZTISRYASHlazxHPn+rOnTx+js6MTHXfvo4PRmPYO3LnfidtchHr/Nu6Tek4KOenlXJLQ8UhERrjUoqWlSXjNbBfDbNxo4AfwsIFkQJExRpYX1+2Ul1WK3AP54KnpmaKQBRJPNlhUjAAeRSVlsVEeGUJOTi6IiIhCfQOVTjbc3c7icqAv0lOTEBzkD1OzY2L7dylpKYgiJQUpKSmMVlDAju3b4eZ6DkUFeagoK0RlRQHi48Ph4+0uNurkdQ/73JIAACAASURBVD8X7h6tv20r7E9Yo6KsCDWVpWisrURIcACcHe0xTXEKpGX+/h4FhRHQ19+ESxfPo7goE5WVhSgvy0PctVA4OdphzNhRkJGVgrQ0i7Qoc+bOxkHD/Qjw8xHtyM5KQ0FuJorzc1FUUICecrKQ/qlu/D554gRs2bxB3FNRQqAqRFlJAWLiInHK6STUZqtg6DB59OghI+ooJycrtp3fsGE9kpOvoawkC9VVxSgqpJuaANczLlCdroSxY36R9Bv7T0oKurorcOTIYURGhqIgPxvFhbniPXX1ZQgMughVlekYNmQIZKWlISMlhb59+kBTYz6OHjEUSvjJw3bkZaUiJT4GQYJuXId//K9/oqy6DEGXfRHs74Xw4ItovVmDhtoynLa3wupVy9CnT29IS8lBWloO3DBzpe4KnDvnKrbNqawoRlVlEerqKpBw/Zpg7JEFNmjQQHFAFI/G5Sak06crISYmAlk5aSgtzUdVdTGqa5j8T8P58+ewZs3qv9oqLYWRI4dj4UJ1BPr7oiAvB3U1ZaipLhWKLzHhOny8vLFwgToG9u+LnnIy6NOrJyaMGwsd7YUIuRwoFEhjbRWa6quEgo0MD4GjkwOWLtPBKIXh6N2npxiP8RNGQ11jDuLjI5Cfm47ayhLU03CoLENKUjy8vd0xb95sDBzEjRZ7o1//Phg2ZDC2bdmE5KR40f+N9dWoqigRQBV/LRbRkeGYqTodYxVGYejAARg9fDimT52MzetWI8jXG+nJ8bjVUIObotQiLjoCbmdcsHrlUihNm4gB/XtCfnB/jBs/Grv3G+BKeDAqahk2qURcdAzCr0SioqIGrffu4cGzJ6hraoCToyOiIsJQXlaA1lu1aG6qgr2dBTQXzofCqOEYNKAvhg4ZhBkq02FjaYGIsCuorSlFWWk2MjMTkHojHrExUbCxtISR4SEMGzIUI4YNF5veamtp4yhzSF7eyM/JEDKUkcZ8ayKyspNw9OhhMX5kb3JHduoGEi/s7GwRejUEmekpSL2RiBsp10WYh1sumZoaY8WKJejXvycGDuqDwUP6Q2fxQuzduxNx8VEoLMhBciKZVtFISo5DZNRVmFscw8ZN6wVzUmHUCIz9RQFr9XRxzOgwwoICkZ50HdeiwhEfFYGM5OsICwqArZkZ9JYtxVQyP8coYOL4cVi3ZjXMTE0QcfUKYiJCEX7lMmIjQ5Gech3+Fz1hY3EMa1ctxbTJ4zB53GiMGzUUm9auxL7d25CSGIOkhEgE+nkgyN8TocG+8PV2w1nHk1iruxQzlKZAecoEqE6bjA2rVsDK7CgSYqNwPTYGgZcuwdPtPE452IucIcGgeycIAg9zP3QIGGakx0hPj6FQpgI+f/6Km02tqK9pwOtnr/D+5TtUFlWhKKcEd27dFp7g7//8D9xuv4+SCtLms5CZky12w/j1199QVVmNmto6fPv1q/BSCUKMPnGHDoZiBTDdasHN2214/u4Nnr99jYfPn+DB0wd4+OQB2h914P7jR7hHT+tRp4jOPOFOEFzz9eQxHj15jodczPz4iYhwMdzN8O5//9d//wU8zPOwoUzg0RuRle0pdqwl/ZI73nLn2hGjFDBipAKGjRglyshRo8VvgwYPQa9efTBkyDCcPXNOMIaaW5pRXFQgLCyL48bQ012CaYqThELvBp1u5U4FSmUtKyUtBHvBvDnYsX0j3N0csWyJNuRkZP8GON3gQ1CRlZbCYPkBmKGqiH179OF21hGKUyZAVkbyTHFtl5LmdxlpGfSQ6wEV5anQ09WB/vZ1MNi5BcpKk9CvTw/IykqLd3WDTvf9MrLSUJwyEborl8LC/CjOupzEdMVJGDpYXtT934FHTkYGvXr0xKQJE6A+dw78LnoiKPAiFH4Zjp695X6Abvd7+MltxOXkemLF8qXYumkNbKyOwdjoADQWzMHYMaMlfSAAsQtMpdkeKfTu3QMqKopYv04PF9xc4OLsANUZKhg3dozoH/azjJQEeHh9DxkZ9O/dG5PHj8e8WTMRHxWK0OBAuLu5obq2Dv/4179QXF4MH+/zsLc5BjPjvTDYvkFYej1k5SAjzfHoLnKQkpKGrJwM5AcPwqiRI+B70QMe7mdgdHg/Fulooe+AvgLAu8ft589hw+ShNksZnp4u8PRywZ69+tDU1BDPE2PRbaCwDTJS6N1LDgqjhok+sbE+Bjtbc1iam2LxIh2wzzkOfxsLGWnI9ZDFoAEDMGXSJAHgp06egLWlBWaqqqJHD4KnzN/kS0ZGGj16yGLEiCFivN1cnWBvY44De/Qxc4aSACfWpVt+xRgS1Hv3wvBhg7FIawFsrM1gb2+F0w42UFFREiD1s6EluVcKcrJS6Nu3B7S05sPS0gS2tsdx8qQVJk0ahz69e0qMn642sV00Hvr06QV5+f7YvGkNLI4dhpOdJS55nEdRYQFaWtuEEqiorYC5+TG4ujogJNgLJkZ7obtsMcYqKAgjhGMm5oOMLGSlJWXu7LkwNjKCx4UziAgPwNGjB7BQYx4GDRwIGgtsZ/fY0ZDp07MX5s1Sg6WpMVxO2cLbwxkHDmzD9h1r0X9Ab8jKyoj7JO+RgayMLHr37IF5c2YJLy4y/CrirkXByuK48OTk5QeKe7rfIe6TlRGG3datm2FtaYbYiCuICg2G4cE90NVdDjk51ktihFEfCJ0gK41BA/tjzaoVsDQ/hkD/i7h62R9W5sewcd1qDJUfiB40FrvmEvtUjvcM6I9NG9Zhn8EOJCfEICwkAE6n7bF4sbZEn/D6bl0lLdE9A/r3g+GBvfC6cA75OamIDg+CuamRkBuCe5/evX7cI8ZPWgoTxo/Dvj0GOGFtBS+3c/DgnnVnzwiyD0GGoWiGpMig49o0shtZyJrkchOy/HbvNsDx42Zi41B1jQU4eHAfjI8cgYa6BpYsWioWgRfmF+Hl69dITUsT5Awu8eASFDImSQyZMGESpk6dBgtLcxgY7BQev57eKkEFJ2uO7ySxIjAoCLfaWtFys0XknIpLy1BWVYWy8nKUlJSiuKswT0diTFk5S6XIa/KztLwCeXmFSExMEmDGrb5+hNoIPEQkMnMYCpGV7SG48KQrzpihJorStOlQmqYKZaUZosLcnp5rSIYOHY7evftCXn4IXJzPChZa881bIrwW6O+N4yaGWL5EExMnjBETR1pK4kn8rHT5G4Fn8KBBmK6siK0bV8H93Cks1tYQSrN70nXf0y2c/L1/3z6YPHEM9LdtEp7OhInjfkwQXvfjHiGgVE6ymDxxIhbrLMTGDXpiArNuPeWkIdM1ubrv+flz9KgRWDB/Do4aH4TTaVtMnjgWAwb0/9u7uuslJo2MjDhaYtrUyfD2PAd/Xw8MGTYY0l3g1l23nyc136exYL5w5Y8d3oe9O7cJT4fnAIlnd4GNmGxdyo9KcuxYBSxZpIGzjnawP2mJcRPGYMiwIX/V7SelwT6jlzZy+HAoTZ6I+MhQhAUHigWLXE/zj//8D7FK+ZKPO+ytTXDUcBf0li+BluYCSAsjQAI60lJU2N0KTBp9+vYSE/78GSc42tuITQrnzZuLXr17/1WPnzxDKq+B/foL0L9w4TRcXGyFN6WkPK1rzCSKhGBJA4OlVw8ZDBk8AKrTp+GI0QGYHjsMo0NUkOp/vaMbrLrGnv1LJT7mFwXYWlvC/NgxGBkaYtrUqX/dI2TyLwCSlZXFgIH9sVhHC86n7HDUcC/WrFyGSRPHCeXWreR+Hm8efDVgQD/MnqWK3Xu2wdh4P6zMj2DypHHo3bc3pOh9/9R+yfhLgd6u2ixVHDhogCNH98PU9AhG/TISMnIyPwyUn+/j2PXu2RMrly2F4e6dOGFuAh+3MygpLEEr85+PH6KyvgonT1jB9cwJeHs6YdvmNZirNgMjhgwV84wyIEXAFYVjKI0pU6Zh7er1sLO1gp/vBezU3wRl5ano27fP/6gHDRmOn6rSNOzZsQ3HjQ/C3tYUq/V0sHjJQvTs00Nsh8++/1GkpdFDRhbTpkyFjrYWAggIV4Kw22CHOAGXa2V+bmf3d96vs3gxdupvRYiflygb160ShyP+DOaS/pQW49O3Hz17dRjs3I6zLqfh7noWO7ZuESFLtkdWAM9fQMp7e/XqBS1NDaxauRyRVy7D080V+/ftEev4uuvy909p9O7TF2tWr8EJKwtk3khAwKUL2LJ5LebNnS10A4+A5pz++T6eubVi5XLs270Tp09Y46yjPS64nUMymbOlpSIPyjwS2Z5kUHIJA8OV/GTIkofdcS3d1q1bxAF/itOmiogDmXc8+2bu7DmIiYwRDMBXb94Ir4nraEiJ5xpChuu3b98udBP/v2XLZixbtkSsleKaKKYwuAaLywa4tCH0ylWR02bekuxiEh4Y+qOjQvIJySSMjJHpWlZZgXLme6qqJCzo8ipxDYkSZO0xP839Jf/GamMii/RWbpVND2bpkmViVwLuTGBkZIyDBw/h4AEjUbijAddhcEHkiBGjxDkNPJeC/H5SLRmHLC0pwmU/L5ga7YO2+hyMHzMKsl0Ww/8QmC5rjlbjiGHyWLlUE+6uDlispS4mCu+j4vl5APkMTqA+vXpg2JCBWLeGOR9bjJ8w9m/XCfAQioXXU7nI4heF0Zg9SwU6i9ShraWOkcOH/vAO/l1Q+E7+1kNWBkOHDIb+9k04YXccI0cMBRXU3+rU1T7Wi/fw7wz5nHGxh6fHWeEV/Nx2XsOJxU/xXVoakydMwCyVadi6ZiV0dbQwQl4ePeXoWUg8HSo9ocS6P+nFyMliysRxsDx2BMZG+9Czl+wPa1O87yfhZ92oNOTYnkEDEBd5BREhgbjo5SWSmf/8179QU1uFK8F+sLcywb6dG6E4mYf7jRQKSBgO7M8u0JH0Dz0SPlMapkcOwXDfLixUn4fx48ZDrkdPSP30/u7+Yj3kpGUxdowCnBytYWJ8AKNGDEPPnj26+qMLeLpkoxt8eshKi/FavnSRsGo57qrTlX94On/1jzSkZCSFdRs8WB7627Zg0/q10F2xXMhAd10kbeAY/CVjtNjnzVWDxTEj6OpoYoT8QPTpTYXa7e38dS3v5zvo+Q0bPhiqMxSxbOlC6G9ZixHDhvwwaH5+n5QUx53jJItffhkNjYVzsWbtMmzcuEbIyc91+fm+blmZqTIdSzXVYbR3B9zOnBZrl8g2fPjsCRpvNgrP0+mUDUxNDDFTZZoAq54Egi45En3Dcelqc+9efTGo/2DoraBXbyza3oNjIUOAkoBTdz04djTSGH5jCFhLYy5WLtUWc7d3n16i33kOyw/Q4Xs5H6SlRT369e4NG6vjcLC3xaSJ49GbnsH/RUb4Pv7Ohdo0HE7bHIfLCStMHDcGvXr3/DEnxHVCTiTAQy+X/a44dRLWr9XDlvXroTBsKAb16ycZC8rFv72Pde3bpzeGDhoEJ3tb7NLfhpEjRghA6n6+mNddc7x7/HjGzRItTYT4ecPEaB/69+uDXr17/W1ed/cbP6kTeObNpPFjsX3jGhw3PgS/i17IysoUyzLItiWJoKS0ROx6oaY2EwoKo8QiVp5/07NnL3FWDhe1EywJbuL8nf79QeOH53pRydfV14n9IQliXKbCoxn4bl7LM334XU5OTizC7devr3gOn8dzd/geniNG4OGyAZJgyN5k+I1sVOZ/JIzUFsFw5FIWbqHD/dwampvQwL9zeUtDk9gyp3vHC5KjuFMOWdQ/cjx8GFeBE/V69OglzmvftGmLOMeCZ1twoZb+dgNRuNiKLh+PiuWJhjwwiMBz8qS9ZC1Hyy2UlRQh2M8b5kcOQEdjLiaNGy2AhxYsJy9DKVSYLFSC/L1nD1n079sLi7Xnw8PdEUsXaaKntCx6UvHL0V3vtqCo1Kn8pNC7pxwGD+qHVborYGNlCR6o9fNAC4XOUJMAKonHozByFGaoTMMi7QVYpK0hFB4Vm8T9/mvCdD+HzyD4DezXT1jyDKGMHD7sR5jmZ2UsCWv9pZjlZKRx1tke3p6uGDx44P+s20/Aw4k5fswvUFWcjE2rV2C59kIMHthfKLVuBSHa0QW6bD+tVQLqhDFjYG1mAhOj/V1t/SnsRGDrAgthrYrvUhg8oD+uRYQgPDgA3h4XBPD857/+S+w1FxYSCHvrY9i/c5PwKMf8MlyEu9gPcgI0JOGvnxUkldpRwwPYb7BdWNgEeLkeEkXE+kv6V1IvXst684RN9qfRoX0YPOivsA4VuQhpdQNP1yfvGzZEXoRhdVcswWq95VCepviTNy15j+gXKpf/0/9UgvLyg7B543qsWaWLpYt1oDBKEr5kv7BPuvtH8n9JHefOloSSlmqpQ75/H/TsKSsBX9GWLuXFd3R7WdJSGDZcHqqqU7FksQa2bFiFYUMH/23Mu2VK4m3ICi+SW8fPnKOK5SsXQW/1CjDs9P+liPkMFSUlLNXUwEGDbTjreEIkb+/e7xB7rrW0NCLQxwuOJ7mQdD8Up04RdWDfsQhPVdRbArYCSKRkISfTEyuX6MDK4ihmz5ohqbcAHhpsnDvsJ0nfsH5DBlO5T4b6PDUs01mIQf37SRS66HPmL38qNLK6CuXguNlR2FpbgLmZH30iQPGvfuU7RJGhpzsIDlamcLK1wOgRwyVGwg+ZkowhoyZCt8hJrp8yZSLWrdXDpnVrMZAKtUdXPlaMV9ezu9/BuklJo2+vXnC0t8W2LRtBhdxdBz775yIjRRCX9InmvLkIC7wEY8O9Qk/83J7u+/nJ39knNFDG/aIAfQLPkYPw8XBHVmamWNsklnQ8eiS2+brk64PpKkoYOnRwlzzwGV1j0fU88cyfvjMKRXo2vQtSlxm6Y66IwNNdr+66dN/773UkgPE5XPvFe7uBh6DTvQyCwENqOwsBpoHA09iAhqZGydKKrrWVXItID4lLDUguIOjwnwAesgzID+dWLNxWhqE2nrCposKz2nkW/HxoLVoMbZ1l0NDUwZx5C6A6YwbGT5yA4SNGoXevPhg0QF7sJuDlfVHQkCtKi3HF3wfWxw5Bb6kmFCeMQQ8CjgwtdGn06y0H+X59ROnXp6dQllTSvXvIQGvhXFzyOotlOlpiovSSlUZvOeZN5NCrp5yInTLcwEnUq0cPEZ8l8FhbWWHSxMkSa0NYNRLlyOdKigxkpeTE0c6q06diqY4GVizTAcNoEiUuseTEe3pwIkq8g+7JxlzB3j27cMb5NEaNGCHyHfzbD2XcrZTFpzTkpGXQp4cc3M+chq/XeQyhQhETX6IABAh05apYP1kZaYwbrQClyROwee0qLNfRhvzA/pLJ3CVcVPo9ut7D91J5szBJesLGHJZmJj+UA/8uLE22X1oaPfkpJSPi+uw7glpcZAjCLvvC47wramtq8b/+679QV1eLsJBgONiY4dDe7VBWnIBJExVEf3AMe8tKoY+sFHrJSvJMbFO3Ujt6+CD2G+hjlooyFEaOhKxcD6GYhWHRdW8vaQl4yUrJiqOtHRxsceTIQWGl0rNkvbv7lG39ub18z6jhw7BqxXJsWL0K61bpQWW6kpAfcW3Xs3mdGJuuMN2QQQOxdcN6rNHTxWKdRSKHyYlHZSKAtGvMekpJo5e0pA7z58zCCRszrFyujWHDBgmLmM8UhQpLRiJfsrISueY7FUYOg/q8WVi9Ygl2bF6P4Qx5dnkVop+6w6WUAxlZSMvKYeTokZg9dyZWrNTBKgLPoAE/5ESiLLqUVve7paTFljp6y5bAcI8+XE7boaiwCG1374nFwjebGhDgcQGOdlY4cmg/pk6e/Le+6PYeRX1+PFMGcjJyWKu7HM4O1lCfN1uiqLrqzrZJFK9krKmshg0fhhkqylikOV8QIShPor68p9sj78q9CKOjS/Z5zXHTo7CxMhfAw3pI2tnl1XeBgQAqAXYyGDp4MM7Y2+C8o704op3Xi3H426ekn2jN86h6Elh2bN+MHVu2YFDfPuhDD47v6mpTt8FAw0QoX+bqevXCOZdTIrTHHE63HP1oP41glq68KeuhrbEA8eHBMD96WMiSpC1/AajwrrpCmzJysujVpwcmjR+NvTs2w8zYEGecTiP1Rirq6hrFekOuNeRaHW8fT6iqTscwes3UZyLK0A08/JT0289AwpONGQ4jA45HrnCD5NTUGyCj9+frfwabf//OsCe3meICYobUuKSEXhhBh8w7ftL7+bnU0xv66TcCE7d6YgqHz2AYkcy8vwEP/0OuPbdj0NTUFEluHj88by5PsdOEpqb2D+DR1F6ChVo6WKCxENNnqGLCpCni7HECz9Gjx+B63h1tt26jprICYUG+OOtgDaP9O7FebxnmzpqJBXPmYJHGAixfpIk1ixdjzZLFWLlIC5rz50F99iyoz1ITAxIefAkG+ltFgl5z/lws1VqAJZrq0Fm4AEu0FkJHQx3zZ87EgllqUJ+jhkP798DN9QwWa+lAeaoiZs1Qxfw5atCYPxua8+dAe8E8aMyZDTVlVSzW1MR6vaU4uHsbDu7dgWXaC6E2XQlzZqhCY/ZsLFKfL96jrc46zcbsGTOgMm0a5s+eBTvL4wi85InZqqoYrzAaM5SUMEd1OjRmzcTC2WrQmK0G9VkzMX+mKmZMU4Ty5IkI9DqH8ABvzJquiMnjxorfqZjnzFDB3JmSMnP6NCgrTobmgrlYtkgTR/bvxV79bZijpgqlaVOgpKQItenKUJ+pCs2ZM7BQVRVzlJWgqjgVylOnYKkOw5NOcLI/gdEKozBx3FioTJmMuSrK0FBTheZsFWjOUsU8VVVMV1TELwqjME1xApLiwhAR4ofzZ5xRVV6J//jPf6GKGycGXcZpOwscObgTK5dqYfHiBZgwfjQUJ4/HAjVVLJw9AwvnzsTsGcpQUZyCSWN/wbiRw3HS0gwWRw2ht1gbc9VmYtL48Zg2ZQLmq06DpqoyFs1QhpaKMhYoK2P0kGFQ+T/eiquLA2ytTTF/liqmTRqPqWS9TZqI2dOVMFdZGfOmq2C+qirUlJUx7pfRmKGshL079LF/pz727diGpdoLMW7kCKhOnYx57FcVZcxWVoKakiKmT52C8aNHYYbiFBgf2Iu9u/SxedN6zJk1C2MUFDB98iTMVZ6GBdMVsYCfytMwR3EKxgwbDN2li4QS1t+6DjNnKIuw0DiF0aK/Z0xXgpqyEuYoT8NclWlQmTge44cNxTzladiitwIHt27B0d27MH3KRIwaPhRKkydh5tQpUFOcDDXFKZipOBXTecT3L79g3kxVrCVQbVqL3ds2Y/qUSRg7aiSmTZoAFcWpUFGcBhVFRahMm4op48bjl+GjsGb5SuzZvhVmR/bhnIuDiOm38jyYjg7U11TD66wLnOysYGFihDkzVSE/oH+XUTMRylMmQmnSeCGL40aPwogh8hg5YjjGjB4twNLVwQbLFy3EoEEDMGr0SBEKpDxRdieOHQOFkcMxWH6g2BNQR0sd6/SWQn/jakzl30YMg8KoofhFYTjGjh6F8WNGizJGYSQUhg3BqCFDMHLIEFibHcUJSzMoThyH4SSmDB8q7h0zajjGKIwSDMBRw4ZimLw8BsvLY9K4MXCxs8QZki/GjQH3NRwyWB4jhg0VEQuGaRle428Ee2XFKdDSmI/9Bjtw0GAnJiqMxNgRwzFUfpAgBQ0bOgTD+XzeM1Qeg4fw94EYM2oozp1xEGSl0aOGCy98sPwgsHCvwqGDB2G4vLwIvRJoGXFZojkP0Vf8YH7UUBh3DCXKDxwIeR6X3V0GDsLAgQPEexRGD8W82cowPrgTtsdN4OrsJPbJbKhvEQtouS4pJycb58+7Ytq0qRIP+EeOUAI8Es9HEorsBhR+Eni4Fojrfr5//1XssM/NaUk5//k6fu8GnJ9/528EHhIRmBtimEyy2LhdgE438HR7P/+3z25A4rUEHQIhWdP/A3jo8XBRJ+N5TGQx1EZPR093NfT0VkN35SosW6GLpct0sWSZLlbo6mH12jXQ0lmEWXPmYcTwkRjYfyD2HzCEwylHdNzrQH1VJcIv+8Hf0xU+553h6ngCDrZWcHU+DW93V/h5nEew1wWEcFdjDzecdzoNJzsbOFha4KK7C9KuR8P51Els37IFro4O8L1wFt7nnOB9zhk+511wwfk07C3NYGt2FFZHD8HrvBOirgbC5vgxHNprgJNWZnCytxIJdzenk3B3OgmXE7YwNzLGSXMzuJywgI/rKVxyP4OTFiYwNzoIewvGkG1x7vRJuDs7wN3JAadtrGB7/BhMDxvC3Pgwrvh5Izn2KvZu24S1yxfDyuQwHCyO4uxJC7jaW8LtlC3O2Fnh5HETHNmzE3u2bEBiWADSokOwe8ta6G9YhSP7dsL8yH6RQ3GwMsFJq6MwO7JXALTZkf0wP2YINxd7nD1tC6ODBjiwXx9GhgawMDmI01YmcLE6BhfLY7A4tB9H9u3CAYNtQugjgv0R7Ostch9bN66B4a7tsCYZwuYYnG2OwtnGBLamh2G03wArly/CmtVLkJUeh5iIIJx1dEBZSSn+/POfYkV6sH8gnO1tYG12GJbHjXDc5CA2rF2Bvbs2w87cWIQ9TlubwurYIdGezatXQFdnIS6ed4KH8wkcP7gHB3duh/6mDSIcZG28H/ZHD+K0iSHsjQ7CzugQdObOw+qlixFw0Q0+7s44sHMztq/Xg/46PRzauRVWRw7C5sgh2B01wknTozh++ADW6S7FljW6cLQ2h4utBZxszGFosBXLNefh0K6tOGF6BNbGhjA/tB/HDuyGocE2rF+5GPrrdOF2yg5OtuawMTuCPfpbsUF3OQx3bIaF4S7YHdmDk8b7cMJ4H8z26GPZAjUcMtgGf8+zOGllAoNtm7BxlS7WL1+Gw3t2wczoACwO74eV0QHYHT2EQ9s3Y+XC+dBfrQtbo0NwNDPBORsLbFi5GFoL1GC8bwdMDxjg2F59mO7Rh9keAxhu24YtK5Zj/7YNsDTaB+sjB2BncghbVy3HZTv26AAAIABJREFUxpVLcGDHVhzZZwDjfXtgvH8PDu/Rx5bVeli6cCFMjQzheMICjidM4enmjNKSEty6cxe37t5BSVkxTtvZwMXeRsjQWr1lUFWeirUrl2LPto3YvXUDDLash/6G1diguwQLZ6tCS30eli1ZBOujhvBzPYUd61dhpooilq/QwdrVK7B13Wrx7g16K7BEWwNqM5SxZIkW9uzcAqN9+jA9aICVCxdAc44almrPh95SLaxduRgbVy/HlnV6WLVUG5pzZkJrjhq05syCo60FnE9YYrnWfMybqQxt9dlYpq2OFYsWYrmOFlYu0RZ1WjB3NmarzYTOwnk452Al5tksVUVMmjQWmupzoa0xD4sWzoe2Bss8zJ6pjDlqyiL0t3X9GlgePQKLw4egPUsNC9VUMX+GMtTnzICW+hxRNOarQW2mElRUpmLG9KlYMEsJHufsYXp0HxbMUcFMVUXMnKEINVUas9Mwb5aKuF9NaRJUFCdg5NABWLVUA1HB3rA0OYAhg/qIfPYsVWWoqSiJMmfGdGFkTlecjBnKDE1Ox3o9LdiYGsLR1hJuZ88iOysPTY1cAPxA7E/IdVWnTp/ApMnjMHBgX5BZKysjhx5yDPn2Rc9evcEcXI+ePUW+hl4eQUMAT2WlWGjP88HoOQVdDoS2ttYPoGE+i/kd5oeYM+Inw2t8BgtzQAQebv/EMBm9Jy7+pvfCQj7A/18hIHWH2OjtcEPf/wE89Hi4cImb0ZHNQOAho40b7XEHXZZ1GzZh/YYtWL9xKzZu3oot27djue5KqGtoYuRIBXAnZJ6Xzt0PeGZIQ3UVQoN8ER0SgPTrMcjPSEFZcR64zqOmqhT1XHdTWYqmylLUV5SgoigPxblZyM9KR2lhFloauH19OuISrqG0KA915QWoKc3vKgWoKs5FUXYq8jOSkJ0Wh9LCNNRVFyA7M0msQSjI43MyUV6UiariLFQVZ6OiMBc5qTeQn3kDxTkpqCjKQHlhJgqykpGbnoji7DSU5WehsigHVSV5qCzNQ0lhFgpz05GVlojM1OuoKs9BU10hkuJCERcTgoKcZJTm30BlURoqi9JRzfVBBRkoyU1FRlIskmNCxXk3rbVFSIoNRWJsKLJvXENeRjxK8lJEKc5LRk56HNJTYpCRGovM1BgU5SYiPysBqUlRSLsRi9ysRBTlJKMs7wZKc1NQkp2CnPTrSEuJQ2J8JDKS49BQVoCaklzERHIhWxjSEq8hLzMJJQU3UJKXhOLcZBRmJQsGTsTVy4gIC0JVaTZSEiJwxslebJX++5//FBshEng8XJ1x4awD0m/EITM1HlFhgUi8ForctAQUpF9HQcZ1ZKfEIjUhArFhgQi/7IOSrEQUZsQhJfYq4qOuIDoyBNfjwpCZHI2cpCjkJUchJzEKWYmxCPD2QGigH0pzb6AoMxFx4YGIvuKLuLAAJMdcRWZitLguJykG2UkxSI0PR/jli4gMuST5W1K0+IyPvIyr/h7CIMhKjkFGYjQyrkeJ6xNjghEZ7I3oKxeRn3YNuUmRyIi7ioSIIERevojkqGBkJkQg6zrrxPfFIDUmFMEXzyMxKhhl2UnIvB6BuNAgRAX5IyrAD8nRYUhNiEJaXDjSeW9iNBIiQxDs54HIED8kx4YiPT4S2YnRuBLoAd9LrrgedwUpCaFIuRaCGzEhSI0ORUJYMCKDLiE2NACJ0SFIir6KlJhQhAd6IyzAC/GRwT9khnKTFHMFkZf9EOB5Adejw5B2PQJ+ni7w83ETMfSbPMHy7m0UlRXB3tYSQRcv4EZCJHwvusPFxR5Bfl6IvuKP2BB/xIT4IeryJYT5e+DSBRd4erjC0+s84iIvIz85BiGXLsD1jAP8/b0QEnQRVwN9EOrvg6v+PvD1Pg/Xsw7w9j6HK0EcD1/EXvWHr9tZeJ5xgq/HWQT4nEfwJQ9c8fPCVX9vBHifx4Uzp3DB5RQ8XE7helQIEmOu4MLZU3B1soO3xxn4eZ2Dr6crLnmdg78PN5l0wflzTjjteFIsYUiOCUFyzBU4n7KF/UkruLs6CtD1cnOG13lneJ53gvNpGzifsob7GQdcunAW4UGXEO5/CS62BC0r4TGdc7KD+1kHuJ21h6vLCTjYW8LOzgwnrE3heMIccdGBuBxwAQ52ZjhpawaHE+Y4dcIcjicthQd85pQNaHSdsDTB4QM7cdbBErkpUbji745DB3bCjMaVrRlO2ZqLqIGjnSVO21rgpOUxnLAwgYP1MZw5cRxeZ07C65wLPN3ckJudj5bm27hzu10k5Lnw/qS9LdRmqYj1hYPkBwriwOw587Bk6XLorVmD+eoamK46A4rTpmHixElip2wlJWVU1tah9W47Xr/7iPTMTLi5u0F7kQ769x8kcvFc7M/F2QsWaGD5cglbjgvTGV4jOYG7gTOHzw2L6bEwT8TdEwgkLPRkWH4Gn+7fuj/5N15L0KG38/8KPIzhkUdO2h2BZ8F8DXEeDxlsJBds3a6P7foG2LFrLwz27MXuvXuwZv06EYJjopbsDhIQzI6bo/NeJxprahAaeAmp16LQXFWGF4868B//+BV//OMbfv/jM/78/hl/fvuM3799wG9f3+PXz5Ly+QNPt3yG168e4O375/jw5QO+ffuE3769x+8sXz/g968fRfn++T2+fnyJT++f4v27x3j/7gk+fnyBT59e49dvH/D794/4/df3+OPbO/z57Z1417ePH/D5/St8fMdtUx7j0/vn+PbpFb5/foPfvrzDb18+4I+vH/Hbt4/4/v0Dvn//iN9+/Yhvn9/i43tusfMQb9904svnl/j26xv88fsH/PEb3/UOf3x/j3+I8gH/+P4BX96/xIdXj/Hp9QN8fPMQ798+wacPL/D7r6zLW/z29Y0ov399g+9fXuHb51eiLR9ed+Ldy/t4/6oTn98+Fb//55+f8c/f2O53+O3TG/z6+Q1+/cqTS3kC7At8eP0Un14+xMdXj/Dxwyt8/vgGv4q+e4/vv77F188v8eXTS9EHv3/7jA9vX+PVi8e42VCBrNR4ODueRFFxIb7/8Yfg418Jugw/T3eEBHjj3evH+PLhBV6/eCDa8/ntM3SXT2+e4MPrR3j36hHevOjE68e38fLRLTx/1IbnT+/j1avHeP36Ed6+fID3Lzrx4UUHPrxk+x7j2aNOPH1wD886W/Gs4yYe32/BswdtePusE+9eSMp73veyE29ftOPN83a8eHJXXPO4vQWP7reAn88e3MaLx3fx5nmneA/f9Zb3vOzAmxf38fLJbTx9eAvPH7TgZUczXne04GXnTbx82Ip3z9vxQdTtAd69eIj3Lx7hzbN2PHnYhmcPWvHywU286LyJ5+2teNl+B28etOPN4w68ftqBV0/u4/VT1qsTL/43Ye8BFlW2rA07jjlizlkx5zAmRFBUUDGnMeccUVFEMSMqiCTJOWe6gU5Ak0FyzjmLGEdnnHPuOe93q5p2nHvP/X+eZz27u9lh7bX3qreqVtVbVUUoL8tFZVkeygvpXjJRWZiJ8pJMlNNY1BSgobYQDbStykd9RT5qy/NQU5aDipJMlBSmo6Tgr1ZenIHailzUVuahuiIX1RU5aKjOR1VxLkpyMlGS+xoluUlwdzCHzcvnkMfIkZmTi4zcbEiiJdDXu8CBI9lpccjMSERKWjwK8mi8slFVmIWqwkxuFQXpKM4lTrgkJKXEgfYvzkxEZgoxe8ShoDALxUVZKM55jZKcNJTkpSM/+zXSX8cj7XU8MlJikZUiR05KLDKT4pGeGI/s1HjkpSWgKCuVjynOTkVuWiJSE0jhlOF1nAwZSTHITJYjPjoSibFi5GQmITcjCVmpcdxy0xORkRqL1JQYRJECKBUgPV6MjEQp4mPEiIuNQmpiNNJTYpCREoP05GhucTHhkEcJECsTIC4qHAlREUiQRiBaGIxYURh/T44VISVewopqQpwIUVECSMUhCoU0MghyWRAra8IgL0QK/BElCYM0Iggx4jBu0ZFhkAmCERHqBy83Uqo8kBoTzkqkv7czQgI8IA4PgCwiGFGkAEeEQCYMhEwYAHGIH4T+Hghws4OLtSlemT+HqclTEHEtAQ9xEpLwdnFxxI0bV0EMDtNnTMHIkcOxcOEC7N23F1f19fHA+DGOHDuGTVu2YJ2ODpexmTRhEn5ZvARJaRnIzCtBVU0zvH39YHjbECs1VmPYsFEYM2Y8Jk+egn379jEjP6XAXDh/ETt37ORI5fnz53M4NZWDoHIX5CYj2h5qBELkeiOr5/8Cnh+tImU0G/HREfgQxvyvNR4Kl6PIA0o0oiTBQYOGcL7OkiXLsEpTC2vW6WDN2vVQU1/F7rWJqqoYM34cRo4ag969+nCI39ZtO3Di1BkUFxLwJMHByhyOL1/AzdYKTrZUwfQFrG3MYWvzEk42VnCzewVXOxs421nDztoSdpYW3DiTOy0eAX4eMDV9CrtXVnBxtGFKCqKlcHa0h7OjA1wd7OFsbwVHu5cQhPoiMU4Kfx8PuDrZw8XZAW6UtezhDC93ao6cve7q5AQvN2f4eTpBLAyALDIEoYFebDV4ujrC29UJfq4u8HN3hY+HM7ypubvA09kBXq5OiIuKZGvM080eDnYW8PV2gp+vC/x9XRDk787nCiJLx9sV3h5O8HCxQ2qCBOnJUfD1doWXpxP8fVwQ0N4CfV35RfX3doG3uyOC/D0gCPRkayxGEoKIUF+EBnoj2NcNYYFeEIb4ITzID8IAHwgCfRAS7IPgIE++l8yUaCQnyeAb6IXAYF8IQgMQFuYPQZgPwsP9EB4egAhBMAQhQfDy9ICXpztSEqIR6OeOWwbXIZaK8f7zb5DL42FvbQNT44cwNb6LeLkICbFiBPp5cF9EwiCII4IgDg8BfY4QBIJoQ4ShvkhLkCJFHskTNUIYhFBBIFMSiQRBkAiCIBUEQSwMQqQgGD5eZOX5IDlOghS5CLKIQLbQwkN8ESkMgCSCiBCDIIkIhCg8EJHCQAj5f/6IjwlHQnQ4YmRC7ktokBdEwgBIRcGQRCqOoT7ycQJ/iML9kBwbgUQSSKIQiAV+EAR78f+lohBIIkMhFoVCKg6FKDIY/oHuiIwIQEqCmK1cmSgMEmEIpIIQSCMEkIgEkEWGIYqaSIDI8BCEhPhDHBGChGgRkuRiJMWIIBIGQiAMgCgyBFJJKGSSEESJQyGja4lC+J6jxMGIkYUhNlqI2Ohwvm5EuB+kkhBIJKH8PTLCDzJJICLCAhAa4AdZZBBiJIF4ZfEE1ubP2T2alZ0LyqETR4lx49oluDlYISlWwjRMwshQREeJkCiXIkkuQUqMFMmxUUiOJdYPKeLioxEXF42M5FjkvY5FchwJi0jEyKWIp+qTsRKkxEmRGEvEnJRNHwl5tAjJBCQJUmQkRiNJHoUEuQIQ0hKikUqsD9xkSIqTIV4u4ZYcK2PQeJ0UA7ksAvKoCKQkUmXLGKQmyPA6MQrpSTFIjpciIU6CmBgRYqMikE7zKF6CaEk4omUipCRE4XWiDGmJdE0pUhKlPIYxslAQACXIRQxqiXS8VIj4qAjQ56Q4OlaC5EQxEhMliI8TIZaeF92nXISkGCESYyKQECNGfIyiz8TckZGagMzXCchMTUB6UhxSEmSQkycmToKs5CikJUrZS0JzKjsjATkZycjNTEZeWjJy0+OQkx6PnNeJyEyKYxB0t7WArcULmD59zgz5mZnE6ZbLhRSj5WJm9XBzdeTCalQqgWoRlZQUMtddY0sjikoKkZ6eyuwPnu5uMH5wDyYmjxGbnIi0HCJnrkV8XByCA33h7eUJNxd3+PmQXAhBWXkJqqsq0dDOXUdr/FQokiwte3tbWFtbsQeM1osoUIDWbegzNQKUHxsB0o9NCU60LxkzFM79H4MLKLyNQubINCJ+JcrmpvDoEcNHcUSb+goNaKxaA3UNLSxZpg7VKdMwdPgwDB46BIOGUDh1T26btmzFsRMnmTWagMfJ2hKvnj/FK7NnMDN5iLt3Dbg9uGsIk/v3YPboMQu3Z4/u49E9IzwyMsJjIyN4OrxCemI0nB1scPP6VRjfv4/nJo/x/Klxe3uC509NYGZigufGD/HM+D58PJwQLRYy3cWL5yYwJVp/0+ewfGnOzeKlGV6+MIXZs+ewfmnGkVxBvm7soqKQYjtLM1i+eAZLM1O8emEOu5cvYfvSDDbmikbhqdYvTCERBCMlTgLrF09h8vguXlmZwfaVOexfvYSTvRVcHV/B0dYSdtbmsKZzmj9FrEyIRHkk7G0tYG31AnY2L+HwStEcbS3g6mgDe5uX3C8XB1t4uzpAFOaHiBAf+Ho4w4VpPCzg5vgKXq4O8HGxh4+TLbycbOHh/AoeLtYI9HVGYhyx/0bA3sUWTi6O8HR3hoeHAzw87EHA5u/lAl8PN3i4OsPK2gq2r2wQFy1m0DW4eR0iiQhtHz8xs7CjrS1MHtzFk/u3IIkIhjQyhMHfw9UeAb4eCPLzQqCfFwJ8PeHn7QFfb3f4erryxI6ThEEQ5M0UM+Qq9fb2RICPF4J9vBDi640gX28E+HjDwdYOni5OLFRIQxUGeyHIzw2+ns4I8HVHSIAnA3lIgBcC/T1ZEfHxcmNwjhaHIVpE9EVBDIakWAT5ebBLkPYPbm9B/l4I9PVEsL8XPwfSQCPCAkG/e3u5wJ/OHeyDwGBvBIX4IDTEB0GB3nBxs0VgkAfkMRGQSgUIEQQyD2Cwvw9TJ4UE+0MQFABhUCA3+t3H05WVgWiRgN26ckk4ggN84EfXD/RFGCkC7U0QEoCwIH+EBfkiPMyP70MqCoVMLEBIkC8C/b1435DQAFDtlIBAL4SG+iDA15u5xEjREgt9Yf3CGFYvniNeHo/snHxQFVWJVIzb+lfhZmeJOFkEwoXBCAkLhDhSCLmUhHB7k0lAlE7yaOJYkzJDcXqSHNnJcgZPkVgICVkL7HZWCOHYaKqYGQGi1ZdKyR0tQlKsGK+JvkgqQnSUGInkTifqJBLaRH8VI1Fcg6ijoqVIiJUiOSEKKYnRiJZFIIpc27ES/j0xVsIgR8oIKTzk7o5lABAjI16KtDgpZJFCSCURSI4nOiMS+HQuWTvwCBAtC0ViXCSSE+g6MqTEyxSAIxczmCXHi5FMwJNM1E4yJCdFMQXT60Q5CDBfx0uQGk8M4NFIJU7HpFikp8YjJyMFuVmpyMlIRVZaMtJS4pCYHIfUlDjkpsUjKzUWyfHRDE4FuWkoystEUV4GinMyUJSbiqKcVBRmpyEvIxWJ0WJ42FnBzvIlTJ89h1giZULVvLxs5lokvsPYOBlTYUVJJRxJRuW9v379iD///Ip//esPfP6tDS3NNcjLfo0YSThcbC3h7GDJlFeviay0rBxpSfGIEoVBLhMjNiaGuQfzcjPxx7fP+K//+gP//K8/mSi0ra0VeXk5zJVI3I9eXp4MGAQelGpDwEPWD31XWj4EMD8Czo+fyfKhfQl0KCSbjiXaH+Ufh1PTF6J4p5MTrxYltg0cOJgZC/bvP8hloal63onjZziPhwqJUXbrjBkzMHLEaK4ESrk8G3U34fDRY8jPLUJyfAKcX1nhwa2bOHloH9SXL2J+sv4DFZEhA/upcHQJRYkoo0WIgmZwv37YrLMGPu4O2LljEyf+0e+0H20H9uvH3FiUzEmfKYqGQhO3bV6PG9euYPb0aRjUrx8GUdQKtwEYNICa4rfBAwZi4tjRmDNTlalgzhw7zFFkUyj6aPBAPmb4wIEYMXgw5wsMGzwAwwYNwJAB/TF+zGjcunYZni62vGg4oL8Khg3tj5HDBmIUt0GKCJ6hQzB0CEX2DMH4MSNhZnIPNuYmUJ04BoMG9cfQwQNAETNjRg/H2DHDuI0YOhhDBwzE/FlzsPyXRTh6YA+OHtjF0WoUoUdhuqOGD8KEUUOhOmoEVEePwsRRIzFh5EiMHj4YixfNYT/5owe3MWHSWEycOIFzeyaOG4upxBc1YSymjxuHKePGYfzo0Zy5TMl7If7ecLazZItHJBHj7YePDDxOdnYwvmuI6xdO4OjBndi1YzOGD1PwYU2dPIkZJqZOnoCpkycyLx5RgVAE071beuzb3rNtCzRWrMCkiZPYd0y5NhydNUkVMydPwYyp0zFsyHDMnDYVD+7chKH+RaxdtQyLF86E6qQxmKo6DjOmjOd8q5nTp2D6NFVMmzqJr0eLykf37cDZY/tx/vQxbNReg7Gjh4P6QwvBRKFEeVqzZiiOUx0/DvNnzsCVMxTEcQwnjhzG0mVLmOFhkuo4TJuuimnTJ2Pa9EmgMPtp0yZg2MiBWK+zGo8f3MbRw79i6fJFmDN3JqZOmcQhxLNmTMec6TMwZ/pMzJs+C7OnTsPUSeOhqbYYh/fswMmDv+Lc8cOYP3cO55bNnj0Dc2fPbG+zsHD2HMyZPp2z/7U01Tjp9vjh/Th17AjTLE2brIrZM2dg3pzZmE+RlXNnYeasqZikOhFjxo7B7l26uHbxOAyvXoCZ8UPERxNpqAJ4oqOjYGb8GI+MaFwvYc0qdabuWTBvNpYuWsDvFy3Gq1EwwBKKXJ2Plepq2KCjg5tXLsLy+UP8unMzZs+ajiXLFmHFiqXM4rByxVKsXLGEj1mwYDY26KzB6eOHcfbkYVw4dRRaGuqc/b986SKsWLoIK9WWQkNdjYMQ1Fcuw3K1JdDR1sLOrZs4d8vQ4CqP8fLlv0BDQw2aGsuwaqWyLYWG2mKoqy3GihXLsEF7DUzuGnCQ0Eq1JcwOoKG+DFoaasz0sVZLHWu1VmKV+mKs1liKfXu24PSJg7xuc/XSKaxZtRzrtFZg/bqV0F63EjraGtDR1uTrr9ZaCcoJO/jrHg7kePrAAHTMlk062Ki9Ghu1VynygXR1sGmjNlPvbFq/Dusp5WG1Jk4fP4JAD0cY373BQQ3r1mpi6yYd7Nyqi93bN2PHlg2gYB9iXKB7P35wH/TOnlQESz16CNNnphBLo5CTm8vCn4DMzdUWxo+NcOrEUaYyOnf6DM6fpXYaF86cxPlTx3D61GGcOnUAJ47sxdG9O7FLdxX279GFh7c7lzipr6uFMMgHJvdu4NKZkzhy8AAunDvLDB5XLp1nuqnzZ0/i7OnjOHPqGE4cO8IkwsePH8W5c2dgZW0BH18vJhAlVxuBB3nFaKv8TJYMtR9/V/6fXGwUN0DAQyBE0XHKv+/AQ3T8lMtDlAodO3biPB5afKLql5cv6ynYCw4dx66de7F58zZoa+twWWbi/OnTR4WTSHXWb8T+g4eQm1OAxLgEdqcZ6V/jkFeKCOHYfkr6+iHv48dQPvpM+Rur1ZfD3dkW63XI+vorxv5v8f7t56BwRpXe3aC1agUunDuF0SOHKxIof8wF4MQ1Rc4J5QYQQeKIof2gvXYl9u7ewSHLgwf1Z44uul6nnzuhS6fO7QmuHdGJsnwp+71vX1y+cJY1f+V1KCeJsumJcoca5RlRsivt36VzJ/Tu0Q2PaKHT5D4zLFBSJOVRUL4KsS706K5oRGxJmeVjho/E5AnjsX3TemzduA6zZ0zlSBWKaunc+Sf07NoJvbt1Qe+u3dGzSzf06NIV3Tp1YnaB+0Y3cPumHlRUeqNPr978/149eqKvSl+o9OyJ/vS5Rw/06NaNrVqV3r3h5+EKe2tzGBrcgFgiwdt3H7neiYuDAx7evolLpw5h83pNrCLevPak3z69e0GFQkP79uKcE6KKIV4qyqm6fP44zhw7hDUr1TF96jQOtacsa0oOHdBHhdtAlX4YoDIAnTp25pwM/auXcP7MUcyaPgFjRg2GSp+efG6ix6EETAp97d+/LyfgUnIl0RVtXa+Fvdt1cWDvTixZtBA9unZBv760fx8eZ0oypda/Xx/07dkDo4YMxuHde/Dr9u3YtlkXEyeNR7ceXdtDXFXQv79CuaHQ3gF9e6FLl5+wfMkCjuzbukmbo6iGDhvIfSAlhsJ4iTSTiTMHDsKgfv05L2qa6jhOHdihq41d2zZh5PARnAlOpdCJpoiy4akNGzwUgwcOZOWJQFJnnSYLuh1bt2DMiOHo16c3K1iUqDx00GAQ1QolElIZbQp3XaulhmMHd+DquRO8QB0fEwWqhZSWkYmomGhYmj6H0c2rOHv8IL/fFGY8fMhgjB4+HGNGjMTYESNYMSHi2REjhmLC+PGYNX0Gjh/YxwJxraYaSLEaOWoEiIZq3LgxHE4+YdxojB41AsOGDcG8ObOwg4TrNl3s2bYJ06ZMwshRIzFm1AiMGzUC48eOxsTxYzF+/FiMGz8GY8eOxuxZMzjv5cyJw6BG0XFjRo/gfSZSKP34sYo2biwmjB3D5xhLbB6zZnIk5Y1LZzBFlei6BjMdEZF9Tp44HlMmTcQU1Ymg/hHThvryJdiiq4ND+39lehr6jZRLOpZ4I6dMntCepjAJEyeOx+SJE7BaTR0bVq2C/qXT2L9nG+bNmYEZU1UxfdokTCdFZuZUzJwxlRUPUoYoT2jipInYvmkjvBytYXDlLCaOHYkpFDI/g6LrZnAKydxZ0zF7xnRm2CBFRFNtGfZu38w5SUTn8/yZKSTSKOTm5YFKxxPwWFuZ4uqVc1i/bi3WaK7G2tVroLVqFVZpqGPVCjVoMq3NUqYoImVAY9liaC6fC90NGnD1dEdUXBxa3rawB+HO9XP8jDRXrID2mjV8Tu21WlizWhOrNFZwNCPRQ61QW4aVK9QYUPfv/xWmZs8YeKh2FyWkErgoQUb5+Ufgod9+bESVQ4XuqL4QedMoH0j59525gOqjEKoR8Pz8cyeoqk7hiIcjh49x2eXVq9ZgjZYOtNdtxJbN27F7168gF9y0aTMxcMBQ9OjZl0Out27fyTVUyPS3t7aE4dUrHLpKL9j3hK3/D+AhcNFUVwO5dNbrrFUkibVnKP9vkFJQ2fTo9jM0Vi7D2TMnMGLEsL/Fq38HLj6HIsuf+N0GDewDrdUrsGfPdsyaNY1j+X/urMhMV9CjB2rxAAAgAElEQVRhKAgIvx9PCZcqKrh+9Qq8PV14cnGCpjKBjc5PyXLEbk2tPWOeQOjubX08Nb6L/iq9uW+UjMYJaZTc2J5Uy0l9HX5C/z59QbkMxEysvVqdJ6FKP5V2+hfF/pxs+pOChoST7H76iSc45R/cuXWNyROJXJUoaToSK0TnTsz6QAmtxI5AfaN7VOndh5mQX1mYwdDgJiRiKdrefeLCYW7OzrhveAPnTxyExvIFnBRJSaD0DCnkkggaiVZGSQZJIZqUAHvm5CEc3b8HSxbMw9jRY9ClSzcFAerPHdH555/RhVqnTuj0c2deSxw2dAiuX72EE8f2YcTwfujTuyuDMrFZEI8ZhX1SU4R6KrK+ieJozcpl2KStie1bNrJQomvzMXQcN2LE+JnPxXRHfftg56bN2KSzjmlhRo4cxkoN3wvv1xldfqZGSoaCNfyXBfNw89olaGkuY7ZkYrCmcysYNxT9or515vuhUNSOGDZsEJYvmY81Gsuxft0qDBhAyX/Uf9qfwlYVoatEVsutcyeMHj0MS5bMw2otdaxbtwbkDaA+03jRtWi8KNyVxoP6S89UbflC7NyyDmeO7mfLhhjdc/NykZyWDml0FLPBX798Hru2bmThTX3sqmydO6Nb5y5MZNuVQ2pJ+ekJlV59sUN3A0efqS/9RXGfFLLblcJuu6Br1y7g/Tt3ZqVq/Ngx0Fq1Ems0VnAINHkuKMSXaI+IELRb186KY9qpXej4wYPIQzESe3Zs4kYsBF27KPbrTpQt3Lqhe1dF69aFaGK6YcjAgTh37BDniFHCNxG80vm6de2KHl27oWe37ujZrQf/1qtnTyaFXTh/PnTWrYX22nW8D52b9idqGKLpIWoYavS9Z/cemDp+Iud/HdyzHavUl7FyRaSsxMbOrUf7tns3Zibv3qM7H6u+bAlcbMyZpYUUoJ7du6Jnz27o2aM7c90RKzxR0XTv1h19+/RlBYByCw30LuHendt4bmrGxRepThPVCaLyHc+fPsTeX3cwsWu/3iro27sv+vTuA1L6+vbqzZ+JK7JXX6LA6YVB/VUwY8oYqKktgpuPD2JT0jhQyM/HBRdPH8T8OTPQt1cvkLLJOUZ9+qBvHzpPLz6e8qKoUe7WjBlToKu7HmZmzxAUHMBWGAGPMjpNCT5K0FFu/ycY0foO0fcQ8FAwAtXhUv59Bx4q3Eax2lRjnSbIxAmqWLZMDVu3bOeoNkokXbZsBVavWsth1jt37uagg9mz5mPI4BHo3qMPlqtpYP36jZyMSmWGnR1scf+2AY4fPsAx9917dGOCPiXNC2XcKxKh/srKJeAhNgEvTxds2PgjzUN7xnG78CMQon07EQtCz85YtWo5iAl79OgR+LkTWUk/ZEMzL5bCcqLjevXsxsCjo70Khw7uxYIFc5iNuFM7Jcr/BDjld6JduXbtCry93DB29EjO5FaCCO9D1/yesa2gUqG+3LmjDxPju98pc348hu6BmpLKpk+v7hg2qB+zQWtraWLC2NH8giiynxVjoKCeoTFrz1zu0EEBPPduwdBA7zuLAJ33e7+Un2nLY/MT+vTuDXcXR16Lun3LAOJICVpb33MlRXdXFzy4cwvnTh6G+vL5WDRvFluSymsqz0t94fthLq4OOHFkHw7s3o4Fs2Zh5LDhLHBpX8U9Kq+t6BcdN3zoEFzTu4jjR/ZixLD+YBYL3v+v+/vbNTt2YCuI8j02rlHHlo3rWAP9fq8/jInyNwJ1mnDbNupCm0gXly9hjVl5XkXflJQoxASh6N/8eXNY6yT6mz4qCsoc+p+yKY5XvruKY4YMHYTFi+dBQ30JtLTUFfx838ee9m3PPG/nuiPFhsBq/rwZTN9EtX369e79/Rn+7V1pH2u6/tLF87Bt01p2dT28awi5XIas3GzEJSWBXKZWlsTIfBq6OlqcOPojFZCy/9+37coEEZBu3aiNe//NhEBJ2/R/hbKovMd2eqD2+xk9ciQ01FZAfflSLF/8C3r37MH70ztBStn349v3p9+JNmrMiKGc27Nlw1oMJFZq5b7K/ToQtY1inBTUND8xCJA1dvroIQwmMP/hOfxId0TPhAB99Ahyp8+BpromNFZo8PxSHvPXc1fQ5FA/CeQnjhnHCdn0Ti2aP5sBUbnvf9rSsyPFb9nC+bA3f4aTB/fyvfB1/iZ/2uchyavOnZm+acHcmTC8fgUPjO7gxQtzSGQxyMrJ55yZjPQUBp7dO7fyfRPDh+K9UZyHx5XeH7oGN0r67I55c6dg9aqV8AsWIDktG5+//I4AX1dcPncIZKHRcYpj/+c7rDxPB/b6kCK+d99urldFNbZycrLYG0auM7JiKDT6x/Yj8Ch/p99ofYfKzxPwUHg1Ac/fo9r+9W+8ffuWw910dXXRuVNXDBs2ElOmTOPggoULfmH6HMrt0Vq9FsTVRrk9ZAUtXLgEw4aOYovnlyVqWLVqNSMkFcLy9fHAi+fGHNpJfngyj3sSnxPRYPykIEmk9SQFFYQCLOjl1FylxjU4Nurq/CVcldQbJNjbB5z27dylI/qq9ICOzipc178E1cnjv9Oy//WyKAFOMeC9e3XD0CH9sGWTNk6fOsYTftTIoejatZ2Ms30C/HW84oH37dsXV65cgqubI0aOHMEv2f+cNNy39r4SCBHw3L5zHSb/naeg0s7V9rcJ8J1niQTfz1xPZnD/vti8fj02rd+ASeMnoL+KCk8cZX/ovumlV36n85FL4+F9Q9wy0GNX3v/q13+4J9J23NzsYWVlBgKeCGEEmhveIDEhGZ6eHnh4/zbOnz0KTfVFWLxgLls0ymvSVtEPpfVGtDwdOHmXki2JCYJcO8QETPtSH5UW04/nIItH7/I5nDi6D+PGDoVKn+7tQuWv+/txfxpfcr+tXrEEumvUsXXjGibBVE4o5UT88Ri6NoEsFV9bu1qL6/ZQ1rpyHzr2Rx4u5QSdN282zp07iRUrlqBfv96swfN9tN+P4ngFmJCgJAFI2f9qS3+BpvpyrFmlwWuTyusot8rz03tPEaTDhw7Fwrm0/jIf6ssWfwceeoZsCbdb/DTeyue6ZPFcbNu0HudOHcfjRw8QTUXrsjK43LJQIMBLM1OcOXUUmhrLMXTwIL5X5Rjxu0Pvj9KNTQKU3MWdO0BnrTqv0S2cM+u7kKJ+c/mI72zWivkweuQIaKgtx4rlS5kNmoGnfX5+B4P26yjO0QGDBqpg0vgR0NFSh47Wyv8MPN9lQvu71eEnts4P79uHIwcOYDDVmGp/BjyWP8wFug5Zd2NGjsLcWbOhoa7ORez+GnOF/Pjx3aVnSpblVNVJoMTPVRrLeI2QLLHvz+yHsaLxU7QOTCO1eO4smD0ywqE9O773SymjlMcrt126dcbAQf2xeOE83DXUh/GD+3j50gJiaTSycnK5Um9aahIszJ/h4P497N5XAE87eH2/NvEQtiu6tHyg0he0trT/190IDRMjNS0X79s+QhDojdv6ZzBn1ozv98J9UYKWUi7Q944d0KlrJ6itWIJr169whJtYHMmF3CiyjSwYagRASoCh7f8f8NAaDwEPudr+F/C8a3vHiz8EPGTOU/GmESNGYPLkyRxEQIWc1NRWsLWzYf1m6OjoYu3a9dBYqYXx46agb9/BmDNvEZYtW84lrxMS4hh4bF+9hKnJQ1y5cBpbNm/AzFnT2GVFtV1oQAl4yJSmpKZJEydixcpluKJ3BhJJGG7dvMY+TfIRDxs+BJ27dGJ3Fj1UMunJ5z1JdTzWb1jDoPPK9iX27d/NBaUmT1HF4MGD2EWhALaO7C4YPHggFsybiY0btECLm2amJqAFts26OuzHJl+/8iWhLbG59u/fHzNmTIe29lpYWpojIjIMv+6lipKazJSsQuSWVO6AHh5bYZ2YUmTWzGnQWqUORycrrua5UVcbixbNZ141MndZENOD57o6ZIb3YXLJDdoauKV/BQbXr2DPrm1YuWIZM2MTUND5+aXv2JH9/bReQPQvu3ZuhYebA5wcbaCpoY55c+cwdQi5CljQtB9HLhsCUCpZoLV2JQRCX7i4vsIdw5sMPI11zUiMTYSvFxVXe8xlAS6dO86cX+PHjsPAfrQ2QxqpYvKRO4vWjMaOGs20Qib37+LB7Rs4sn833/uECWMYcOleqdGEV44TPSMi7KR6ReSK3LVzA1ZpLsWkiWPZJaN8bkptj9wjEyaOg7raMubFuqV3EfpXzoLWYMgCJdcHn7sdmEkp6d2nG/v1Fy2YA4Prl3HpwmkcO3IQixfN5wCQXj26fbcuWNDTM+/aBVMmjseurRuYRePc8f3QWb0c82ZNweiRQ9GjWxcWMErrhbTygSr9MXPKZKzTXIFTR/bhwsmjuHjqGNMAjRk1nF2TLCgIPIhPjohLe/fi6xAZLq0pHNm3A8cO7MHsaZM5oKV7l07f+8bPnQlS+0F14njs/XU7rl66ACPDW7Awf4GExHhk5WYhSh6FcGEYrCxecpmQUycOY/nixfx8evf6oYxHO3cYudCGEj3P5PFY/MscXDh7GGZP7mHjOi1ef6PMdrpPKifC4EqUKt268/oP1Yo6efQgt0MHfuV1E6JiIuuBXLpKkKa+k6uJlIwlv8zHZt01OH30AJebINoo4j2k95L2U77ftKW1LFobJCJSAmViPrl+5SKIXmoIlRihd5oaKXrtc49cZwP6D8DSxUuwdfMmHDqwD3t27WDewAH9+rMb9a/rKJ5D757deR6vW62BzRvW4uCBnVi3diXGjR3Fc1I5f5TH0Zbexd69emDSGMV6o73FMw4mIYqfnv9HiQc6j0p/FZaBmzasxdPH92D+/BlsbGwRLY9HTl4RqCw5VR42efIQu3ZsY8D9m8XzfwBP7z69sVpTjTnmIiJlSM/Iw7vWDxwhS6626VNVv48v3wcDzV8M7gomdwKen6G2Yjlu3LgON3cXhEcIkJ5OvGspbO2QFaMEINr+TwuIQEkJTBHhEfDz8+MAAwpco8hp5d93V9v79+8ZkQh4lANM/mtaFB09ejTXndikuxl7du/Ftq27sHbtBuhu3Ardjdswfdpc9Os/FJNUp3EkXEpKEmJiZHB3d4anuxOHxkaE+CM8LIiF/LzZs9Gre0/83G5OU+j2/HnzcPLEEYSF+CAhToyiggwkJcQgMiIUe/fugqbmCi6oxZoKa7C9MG/2LOzbsxPhgiAkxccgLyuNywgH+njizInjWLF8OQtnhXXVkXmTqK7MVb3z8HB3QFJCNLIyUxEfFwVvT1ds3rSBo2WU90/CddTIkZy4RVUCQ0ODkJGRirKyIsTHx0D+3+Gh5LaZNmUy+7WVApV8pzOmqeK2wTVECoOQn50CCq+kyosvzZ5h19YtHH1HE5MmDhEA0oQl/i8b6ycICXRAcnwkkuMlnF9ibvYEvyycw1aNYqIp1mlUJ6tixQo1PLx/F8GBPsjPS0dhfgYihCEcTr5k8SIMHTqI3QF0HLF7k/AhELWyfIHAAE8U5L9GZHgQbhvoIywoBDVlNUiSJyLQxx+ONtZ4ZWHKuUsiYQj27dqNxQsWoXuX7lxUj85J/mvS2Ldv2YLL588iPSmeczck4SGwePEMe/fuxKzZ0xh0FMBDrNMKivxzZ07D5PFDzhNJSoyCMMwH9rYvcOTwHvyyaEE7df1fbh6qQnr48H6YPjfm/Bm5WMihoi+eP+J6TLy+1w5spAj07t0N48YOx/Fj+3BT/xzksmDIRIEID/PH1SvnsVZLE6NHDlMAYntgCxFAjhw0iOl5rJ8/QGykH8QBzvC2ew6ja2ewY7M2hg0e1G6BkiWtELDzZk1nah2Lp0bwd7dGsI8jQv2ccfbEPmzeuBo9elB5iHbFpONP6NW1E1enPHPiAIzv34SXmw283Wzg426LYwd3g9ZYiNj0R+FNwnzB3Nk4fuQg7GwtERboDxcHe7i5OnHuB+V1yONozgjwyorC9G3h4+GCW1ev8rOjwoT8/rCAV4wruY+1Vq/E+XPHYGP5FCH+bhAJ/HDz+mVordbgqFKePww+isJ5FCRBEXJUysLH05nD3ynnbf/eXVivvQ69e/TEz7QG+YNlSCzkqzVX4preBdhav4CbAxV1s8bZ42RRr+D38q95pxhXKmY4d9YMnD5xCHcN9eDlYg0Hm+fYu0sXyxbP4fMr5oMCeEg2DBo4CDOnz8C506dh9swENpYvYPrMBGtXa2LOrOm8/kJrccprkXtx5PAhrIzeMbwKE+M7ePbMCNevnWOPyJQpk/8jOefQYYMxacIYHNy9DfcNriDY2wX3DfWZz3H0qNHt7267lULjwCUhOmPihHE8J2jtkFIqHO1t4eLqiviEZOQXFDNDADH7G97Sx3rttbyew4oeeYjYvaZQ+FgpY/DowGt+FHSyZMkCbNbdCIk0GhkZeey9sDF/jm0bV3PQBRXCVN63QkFTWL3sxic2eLJ6u3WGmtoyrhzs4uLE5exfv1aQgxLoEPM1bZVNCT60VYISgRGBD0W0ubu7s7uNQrKpuqry72/AQz44ylgli4fQmbakdZDGP3fOfMybu4Bda3NmL8Bk1RmYPWsB5s1dxG657t17YcSIMSByUYlEDH9/H9y9ewuXL53FySP7oHfxNO7e0sfOLbqYM5NegO7s3qCBIDcIvRRbN6+HkeFVPDO+A2uLpzB99ggmxvexY/tmrNZU54Uvdj107MARTOT+2aqrjaeP78L82SNYvngCU5MHMHlghH27d7L5T+dmje2njhy2TaGehw/txl0jfVi8NOG6M7Y2L7jyou7GNVzdUhGpptBMqZAXrTmdO3MCz589goO9JdzdHODoYAMHe2vQOhHVbenGFSMVQDJqxFBoqC2B3oXTXLjKw8EK1GxemODR7Rs4vHs7lsydha5k4hPDdsefmLRRffEvMHlwHTbmd9ppXl7C2dYCj4wMsG61OhNydm2PoiO31pJFC7B5ow6zE7+yeAoPFxt4ur6Ck50lnjwwwo7NGzB98gT06d4Vvbp2Rr9ePdgFtk13PSftBvt6IsDbDZYvnuLEkUNwc3RCYXY+JEIpnG0dYHj9Gq6cO4kAL2d4u9nj0tkTHF5KBJB9enXjCpoUNj539jQc2r8b16+eh5ujNdzsLeFo8wLGD27j1MkjUFdfAnJv9ujSid1xgweoYMzwITC4dhnG9xUcey52L/HqxWOYPzGC/pXTWK2+jMdGaYX0692Ty0VTfZxnxkawt3oOB2szONm+wOP7Bjhz/BBXhaVKsl3aK1cOHdAPc2dM5XLDd25cgqO1CeysTPDK8hkuXzzDViKFg1MpDi7T0bEjhhGr8aTxuHzmGJ7c0YOjxQNYmRjg6Z1LMLxyAicO7AIRayoFOPWv808dsHjedNy+dgYmd/Rg9uAGzB8bwPzxLVw6sQ/H9m9H7+5/WVY0DoP69cIvc6fj6oUjMDI4D1NjA5iaGMDs6S0cO7QDa1erg0LsKfKRrkVs7MOHDML6NathcF0PL188gwOlK9y7zSXmJZRQ+TqZBYWnmysunT2Nx/dug/LEKBH49o1rvG5B5yNriwQPCWoiBz2wbzf0r13A8yd34fDqBVwdLGBw4yJ27tqI0WOGok/vHu3rmYqAG5oT63U0ceXicdjZPIed1TNYmRvjwhmq2bWXS4aQFcyBLO0WvarqJGZ2N9DXg9mzxzB//gRmT4mW5gp2bt3CaQwUIKIcVwItqla6c5surl05BaNbF2Blfh/mz+/g3Ol92LRRE716UnAB1W9SuuQ6cOTY+nVrcP3KBTwzvoeXpo9h+vQBjh7ejTWrlqK/Snd07dJel6i9ANzcuTOwefM6PHigj6dPb+HpU0Pcu3cNVy6fwhIqgNhuQSsVWLKwVq9R52OuXjgBk7v6cLV7AZOHhiDLbyGtj30/hoCiI7p16YqZUydDd8NaZgkxeXyP5dazp8YwM3uBcKEIqSlpLLCDgwJw/54hDh/8FQvnz8Fk1QlsJSsVNzofAQ8Fm/ThYIDpnN6iuUod27ZsRmioEFJpLDJSs/Di6WPs37WJ1+EmT1JlHjYl+JCMp0bWJkWeqqpOxIoVy7FjxzZcunQBFpbmcPdw5bwwAhV/f3+2YGir/EwWjbL5+vp+/0z/J9CxsLCAq6srp+r8b1fbv/+NDx8+sMWzdetW7siP4KMoDDQUgwcPwcCBg6Ci0g+9evbBgP6DMGjgEI7WoKgd+t+QoUMQFBQAWzsbHDl6kBe7pqiOYxN7i+4GrFRbxto+RaGQxUNuCorWIGp7KsxGJX13bt+IPbu2Yu+uHdi/Zzc2rtfGak1NXpSjiCOKFKNQ2WW/LOLqmIcP7sb+vdvw654tOHZ4L44f3Q/dDdpYuGAeR2ooXDYUDq0CtWVLsXXLBhw59CuOHT3AJZovXzqDC+dOYIOOFgiYSHh160JRUR3YRNXdqI1DB/bgzOkjuHD+OC5dPM1cUYa3rnGlRqrp071H13aafCqTPR6bN2rj1NFDuKl3EdcvnsHV8ydx6+oFXCPy0AN7ob54Eag8QFeqkNn5Z8ydMQUb162Cvt5JGN08B/1LJ2Cgdw4P79zADb3z2LFJG8sXzUWvLh3RjUK3f+oAHS0NLkFw48oF3LlxGdcvncBNvVN4cu8m7hpcxdmTh7B04SwMGdAH/fv0wLBBKli3eiUunj0FT2cn+Ht58OLm5YvnsGnTRli8tEB6agYC/UJg9swMB/fuZdeDpbkxXlk9w93bV7H/1y2YPmUsBg3ozeUtJk4chdWay3Hy+EHc1L8Ig2sXcVv/EowMLuHWjUvQ0zuL9TpaGDxYBX16dmefOIXMLpozE/dv6ePJPUMY3bjCRb5u653HA4OrMLl3G5vXaaELlypQlFCgcOjF82bhht5ZGD+4xVxYN66dh5GhHm7fvIwbV89j4dzpGNinB7p36ogenTtj3PARWL5gIW7pXcWda9e4zANVytS/fo6fI1UxXTBvFrMSUy0oih5TnTABv8yfA70LJ3Hjyinc1DuJq+cO4eLJX3H9wlEmTaVCZCQgSTh2/ekn9OxMC8zTYaR/DvdunMPVMwdx5fR+XDq5D1dO7YfemcNQaafYp2N6dO+K4UMHQm3pfK7cqX/lJK5dPg79q8ehf/0kTpzYi82b1nHYOIWW0zF9evXE7BkzcGDPLjwzfgAT4wd4dO8OTp04gvPnT8PXzwsSSSR8/bxhZfEC67W1ON+DBLyTnQ3sbCywSmM5KwwUus+CsWMHXqvUu3IRtw2v4x4VLHx0hwGIivOdPL0fU6eP5Vw16gO3nzowmebhgztx8/oZPDe5DeMHN3D/jh4M9C/g2pXzHA7el60eBZCQtj939hwu92xkeBOP79/Bvds3cZc/G+HE0cMYOXwogyxdQzm22utWQ//aRRgaXMLd25fx6MF1PLx/DTdvnAVdf0D/Xuzu4oJzVO6jQ0cOBz52eD+/e08eGeIpWTBP7uD2rYvYvUMHwwb35vlNfSIBTsnvVG7+9KkjMDY2ZNB58sQAT5/egfmLx+zG70hRqj8CSccOOHfpJPT1z8Lkvj7MHhvA0vQuXjy/x7k3GzasU8iC9uADuh+q5UU5QVcunoKD7UvYvHwGA/1LuHXrBoyMjODt7Q+ZLBZ+vgFwd3XFk8f3oHflLHbv2sKltCllg4GZ+0Hrpj+zu48K5G3bugUnT57Exo062LF9O3x9/BAUEAJhSDiX1qaAn907t2ONlhbX2fk78NAY9ODCb1QZ9dLlCzh77jTOnDmNx48fw9rGGoFBgfDz9YebmxuDCAGJi4sLHB0duVIqbak5ODjwVvk7le+mc1CdN1rjIXYcIqSmv+8WD9XB/v333zl6gRaDKDQuIT6Ba7SQf45CrclcIjdaYmI8aA2HFpwo94cCCfi3xDjExsnx7t1b1NXVID0jDWKxhFEwNCQMUbIYyGTRiI6KZm4i4icSiYjSgxr5DiO5dnyUVIq4GDliZFEQiyRMWknlVQXCCISGCCEIDWcNIVoWgyipDNFRMkiltPAVCalMzGSXZOqJIsUICQlFUFAIQoLDEB4uRpQsGlKxBKLwCIgjRZBJpIiWRXGTisSQiEQQhIZBIBBCKCDNQcZlAmKiovh/0TIJoqV0jAxRMimiJIrrBAYGwz8gCEHBoYiIpExwSrZS0IFTJrlEIkJUtGIhjhbkIiIiERgYhGDqX2gIIsQiSGQUMUILdxKmrxCJ6F4UBHsSERGgCuDn4wNfHx/4eHtDFBnB15fRgl9kJKSR4YiWRCBaEgmZRMTXDAkNhl+AHwJDgiCIEEIaLUVMnBxJycmIj4/jiJPA4EA4u7sgMTkZ9Q0tyCsoQWxsIry8vJg+I0omAbVomRiR4WEI9PeFp4c7v3xEvRMU4IdwQRhE4UJECkMhEoZCHB4GqTgCUVEShIWFwtXVGY4Ojnhl8wpuLkRH5IUIgRAioQDhYaEQhoYiLIiodIRIiItDWEgoHO0dYGdrh1ev7PhYDzc3Xr+IEIYhwN8XwQH+oM+iCCFE4QJ4e3rA080FttZWsHhhzmV7PV09IKR3JkiIYL8QBPoFwt/fF2FhIRCGC+Dn5wtXF2dYvnwJczMzuDg5w9XJEb7eXgjw80VwkD/8fb3g5eUGoTAYUqkIzq6ueGlljZcWlrAwt4ClhTncXBwQFuyP4ABvZnDw9XIFNWJ5CPH3g6OdM6ytHWD2whJm5lZcMNHJ2QlBIcRM4A2/AE/4B3gggNgbgvzgH+AHNzd32Ns7wPS5KaytrFggBfr7QBQRhtBgf2aGcHKwhbuHC89Lij5KTknkefDU5AnsbW3hT1QrInp2UXB3d4WFxUtmHTY1NeVS95aWlqy9+vp6w9PTDX4+nsya4OvjDg9PJ1jb0Lg8x5NHxjB+YAzjh8awfvmSWTGIAsrXxwWe7vbwdHfgNAMfLy9mBzF5bIx7Rnfx+MFDPH/6DK+srOHl7g4/L3cE+HjA282ZQ/n9fTzh7uKMp0+e4P79+zA0NITRHdn5k3AAACAASURBVCNudra2CPDzgZenK9xc7eDl4ciUU8TIQff26NEj3DW6jxv6t2Cgfxu3bxrB0twKTg4OcHGyg6szNSKqtYW7mx3Is0EW4q2bN6F3UQ83b9zGg/vGsLK05XfZ1cURLs62cHa0Zq8GPXdrSgm5dRu3DChw5zZu3TLErVs34R9Ez8kD3q628HGxha+HA/x8XBHg7w07+1d4+Og+7hrdwR3D27h75zYDiZ+3C9NKRQoCEervBSc7K7i5OsPP3x8x0XFITsyATBoLUYQYETQvBKGIDBcgKMAflpYWbD1YWFjB0sIatH31ygburs4IFwrYzeXk5AAXZ2fIo6IRJaUmR0hQILw9nZkmi4JOCAyMjY1hYmKCp0+f4omxCVeeplpsFDpNckrJXEARaaGhoZwAGhEuQkhwKIKDg7lRfg59pnBp2tJ32pfcawKBAEKhkF1sBFL0nXjaKIDt78EF//43/0A/UtW6lpYWfPz4EX/88Qe+ffuGP//8E9/++Q/88ec3/P7tK377/TduX//4im9/fsO3b3/i69ff8enTZ3z48JHLm/7+9Rta3rShvLIGWdn5vHBWWl6Nqup6NDS+QWNzK5rfvEPL2w9obn2Lmrp6lFdWoaikHEXF5Sgrr0JhcQnyCgpRU9eAxqZW1NQ3oba+mVtdfTPqaptRWVmNwqJiFBQXobCkmI8pLCkDXau8shpVNXWoq21ob02orqpHUWEZcrILkJdXhKL8UhTmlaA4vxRlxZWorKhFbU0jGhveoLHxDerr6DpNKC4qR05OPvJyC5GfV8RZ4tlZ+aioqEFZeTVfr6yiBhVVNaisrkVFVR0Ki0qZqp5Zg3Pz+HNeUQkKSytRWlmDsqpalFfXoaKmHuXVNSirrADF8qdn5SMtMxtpWTnIyM5Ddm4hj0lBYRnTphcUloIa+YRpjKjUeGYGJXnlIDMzi6sCZmbnIq+gGHmFJSgoKUdpZS1Kq2tRUlmNorJyZObmITUjE0mpKYhJiIMoSoacwkI0tb7jPmXlFUIsi0aYMAIpr9OQ8jod6RnZyM7OQ35+MY/f69eZeJ2WyeVvqQohVRtMTkxCSlIyXqekIj0tjZltKVrndXomh2nHxSVwgmpiIgFfIhISkpCQlIr4pFTI4+jza77fjKw8pKZlIT4hCTGx8YiJTYQ8PhGJySmIT0yGNIoyqOOREJ+MlGQircxAOpfbVXBKEbhHRVFWNVF8JEEuT0aUNAlSaRznTMQlJDL9PI1Zelom5FFyyMQSpgCJiYnlTHJJlBxRsfGQRMUgQiJDfEoK0rNzmP1XKpfzeSjjXEoTPUYOeWwcpLIoRIrETIEilsgQExOH2FiqS/IaMbGpEEnjIJbKIZXJ+TgpKTQyGUSkbMgkoO+xCXSfqXyvNF5SaRSiouSIi4tHYkI8khPjucKvWBSBoMBAnuRZOTkoLC5GTl4uEpOT4OziwgItTBiO2Lh4fifk8jj2/4sk0YgUSyGMiEQEKX7SKESKKdkvlM8VERnBig8pg+RiEQrDERIYipCAMIQGhiMiTARJpBSREZEsaEJDQxAWSkIyHKJwEYRhQoQEBcHf1+97HgcJokhq4QKIIkIhCA5AaHAAIiPCIBSEsZDy8SaFxhtenj7w9PRGmCCcF6/DBCEsFIODA1nAhYSEsTIZ4BcKTw9/uDh7wcXFEx7u3ggKCkVoMClHfqw4+HgTP5kXX4sUJl9vb7i5usPezhke7r7w9QlGYICAm79fEIgTjSme/P0QIRAg0D8I7m6ecHP1gpurJ5ydXZgrkvKmqIUG+iPYzx9B/oEQhIRAJAqHMJyEsj+8vbz5WG9vhTKRQLx1SXLERkshiQhnhSYkOAgSiRQpyal4nZqJuNgkyGPiERsbz6WwszKy+L2OioqBosVCIpNDIpUhTi5HanIisjMzkZWZiQhafxGLkJSQhPi4RD4PKRwScTjS0lKRnZ3F1woODkNYqBBhYUIex8hI4qxLYuOC8nWI7obWaZRrNbx2I5IiIjySFVUyTOg3arTmQ9+Vaz/KNR86lsKoqdQOKc+0vkNeNcIYat8tHuUP//jHP/DlyxdGKEr6IRTz9w+AWCYFTdaSsnJU19ajsbkFaRlZiBTLIJPKEStPRHR0PKJkccjLKUFpSQ3evfuCT5//wIePX/Dx8+/4+OV3fPr6Db/98Q/89sef+Pz1G9o+/oa2D59AdPwUd077vv/wGz799jvef/yEN23v8PHLV973y7c/8e7TFwaghua3+Pr7n3xM2/sPaPvwHu8+fkDb+4949+ETPn6ma37Buw8f8eZNGxrqm9DU0oaPn77i48cv+PTxC9raPuLd24941/oR799+wpdPv+Pzp6942/qBgY7AjcDx3fvPnFhJyZVtbZ/Q2voBTU1v0dDUis9f/sCHT1/Q3NKGmromlJZXMlC2tLah7f17vH3/Di2tb9D0pgUtrW/R2vYOb999QOvbD3jT+h51DS2orK5HbX0jGpqa0dL6CW/efEFTywc0Nr/lPre0vsfHD1/4urW1jaisrEV5eQ0aG5rR+ob4mlrR3PSGt/RbbU09mhpb8f7dJzQ2tKCqqh5p6dlISklHRXUdmmk8mt6grqEJNTX1DJRlVVWoaWhA45u3qG1oRnVdIysNBKbUj9q6FpRV1KGktBr5hRUor6xHQ1MbGpve8DXq65tQV9eA2to6bvX19aisqOS6ILn5BJxlqKyqRX1DE+rrG/naVTUE0DUor6pBRU0DKmsbGIwpuodbbiEa6B7b3qH5TSsam9+gtr6hHdhrUFVZh5rqBpSXVbEykJ9XiKL8ItRWVaOxvh4NDfWoa2hEdW0dH1NZVccKASlDeQVFyM7NQzYBdG4BqqhvtQ2or2/g+6isqUN5VS3KKutRVdOEispG5BeVszJA7z0B6d/7VIOyikqeH2UVVaCmuE4xsnMKkJVdgJzcYlRVN6K2rpkVMFK0Ssoq+JjS8gp+d+j9oRLWOXn5yM7N5880RqSw0RhXVdagpKQMRaRoFZISVICCgiKUlFagpLQSRSVlKCwu5WNz8wuQV1jI16D+kEJUSYpOFd1bHT9jUsxIQaN5XVBYhJJixfHFJWUoL6vg69VU16G2qh41NN6Vdagqr0NVRT3KyqpQWFTGSlBRUSnKSitRUV4F2p/Wi8mnT9uKKhqLSlRUVKK8vAzlpcUoyMtBfl42CovyUVJagpq6WtTQO1OtUN7Kqb9031XVXLKFor2oFRYW8/2Xl1WinBQ9auXUqsC/lVeCKnhSmRcqhkbkl3m5eSgpLkFZaRn3oaKyChUV1aisrEFlZR2Ki6uRX1CF3JwykDKZlZmNnOwcFOQVorSkHNVVtayQVpKSWVaB0tJi1NRUoaaqCoX5JSjILUdeDimF5dyPiopyVFdXMldaSXE5qJWWlKKqqgKVFeUoLixCXk4eMtIzmBGAGCdyc/KQk53H72JuTiGzv2Rl5iAlOQ1xsYkQi8j7Q0qNDMJwEYNyjEyGpIR4ZGVksIKXm5+H3Lx8lBSW8HuRQ+9PQSGPcVo6KWRyRBOAyYiBgDwycdxIuSGwIY8WAQ+9V8XFJSgqKuZxpP7RHMnLzef5TPmef7V8Hmc6pqiwCMXFxd8b7UPnpGdBoPP1K3HM/esv4CGfGwEP/UjA89vnL4okQndPPHpojFuGd2BlYwdnVw9EyxOQnJqJ7NwiBAQJYP7yFWysneBg7w47W1e8snaBTJKAtNQ8tLV9wW9f/4EvX//JWwKfz7/9gS9f/2QAeP/hK8or6lBd28AA8vu3f+ATAVT7fgQcBCR0jOK4b0zpkl9YyhYG7U+A9fHzb/j422d8/voFHz4RaH3Fl9+/4fOXr3jzto0FCU1WEjwfPnzB50+/4+vXbwpA/PAFH9//hs8fvuLb7//A1y/f0NjYyvuSVVFb18RAyMD52x94/+kr2j5+wZu2D2h5+x6/f/sngySBA1k+ZKnQJCah9OHjJ3z67TOD4pu2tyCAfP/xM/eRqGmamt+iorKWBRMJILL62t59xoeP33jb2vaRAept20fuMwFeeWUt6P6zcgoYrBjg3r5H29v3eNv6Dm9a3jIgvWlpw5fPv6OJhFVZNWKiyK0mRnFJBVrfKs775q0SQN+goakF9Y3NDAgEhtQIWAl06N4am9pQVFKJnLxipL7ORmFxBZrfvEdLyzu8IcuVQLKpha/NINjSisqKaoU1lJbFVm9FZQ3etLbhzRs6J4EfXacJdQ3NqGtqRfPb92xtJSanQdkaGpvx+fMXvH//EW/b3vP56+obWfEhcKVGAi89nZLcspCdkc0A8u7tO7x924qW1hY0NDegrpGAshH11Bqb2bIkq4Imdnp6NqpqGvg+aPyamwmUybJuYpCob3iDpuZ3DIYxsQmIkScgOiaB31VSjppo//pG1NTWobqmDrV1CkWCQI8sEbIW4xNTkJqWgfrGFrS8eaew4OsISOpRXdXAVnZtXSMrLekZOWzxJCSlIDM7h8GTnge9L2SBV1XVoaqShGENNxK8paVVKC6tYsWgpKwKZeUEhAqrn4CFQIeAmxSO4tJKBguFhV7H90rKJIFvdTswVVeTl4CUhCY0NjazN6CslIR7Nfe3ob4VNdWknNRyI2WorraRFbxmepfq61FSUoKSklIGZLo+j2ldPapralBaVobSslJUVleitr4OLa2tqG9sQkEhCa5SFuCkyDQ1NaOavAgV1SgrrUB5eRWqq0i5oWu1oLa2gctFV1ZWMUiR0tXY0ITaGsUYEThSv2trSKGoR00teVYqUVRaijICwyoCxjpUVDagrLSagZeELgFFRWk5K3H0PtN5yEtC3pLS0nLUNzRwf3mcy+pRWlKHiopG1NfRmCmUnqKiEgaygvwyPk7xftSjuKQSRcWVKCgiz0UxCgoLWXiToCZhT0BVVFQGAqCkxNeQxyRAKomBSCRjwAkKCWW3viRShHh5LDJepyEvNxclZaUoLSNgK0FRAZ23mGVRRWU5WzzE4RcdTbQ2sZBIKAmUONaIWVoBPLR0QsBDbjFSIGnMy8sr+XmQQkIgTI2eAwGwstE+FRVVrKQQSCuVDjoPgT+Rg5InjZZylAZOu8UD/Otf/8Y//vFPfPz4CQ0NTXBxdsOFC5exafN2aK/XxfkLerimbwgLS1s4OrrD0zMAd+8+xpHDp3Di2HmcPnUJx46exbEjZ+Hp7g+xKAbNTW1oa/uMlpYPaGl+j8bmNrYgSOCRkC4qrmDwEkuiUVfXBBKwTc1taGoiLZ4mZwtPYppw9HtDYyvyC0oQGCxARKQUra3v0PKG/veG96X9Gxpa2EVG1gS5yvLzi/D6dQY/tPj4ZNTWNqGxoRXNze/4fHQt6mdLcxs+vPuMtrcf24sxZUAgECEjI4etG+5DSxvqm1tR1/SGrQKyDMgKIjcgufbi4pPh4xcAeWw8T5Cmxma8bW1jIVnb0MjHNDS/YcuHJjppJPK4BAQEhfI2Jy+PhWJzy1uQwK2rI+24EXX1TSzgKyrrkPo6E2JpDIJDw0HuNNIMa2vr0VBPL309asmKKKtAfXU93r1pQ2VpBXLSc+Dt4QO7V/ZITkxFbXUdmghUGlvZ4iGBo3APkrbZLqwqqkFAQQKlurqe7yc+PgmRkRJ4efvxC0vCjjRGck2SICStkzTymnb3Jrn/AgNC4OMTiKAgARITX/P5qL8kMMhNqrQOSKsnQMjMyYO3tx88PX3g7u7FZdRJANF5SUulSV9WXgGyllhQVtUh7XUmgoMFCA4K40aaYxVZUVWVKK8sR2lFKUrKi1FeVYaS8lIUlZSyq87bNwABAaEIE0QiPTMXpaWkkVejtKwShUUlXIZYcT1ywVZDJo2Gm4snnB3d4GDnzNYWac0kYEjIkvArL69gbbGktJQFgTAiHN6+xHbtCl9/f7aySMmga5ESUFhQhuLCcpQWV6CkmCZ5JYKCBXBx9YCzizsCg0LY+ikopvNVoqS0HMUl5ezGJcuogLRbcqkWlCA3v4QVg5zcQuTmUk5ICQNMYWEpCzK6Zk5OIT8PW3tn+PgF8fOkeyDBQe5kaqRwFRUp+kPClp6ji4s73N28+LnQInhhkcIlTvORrkPu52ISTqXlrB0nJCTC2dkVzk5u/Gxi5PEoonMXlSK/qAS5BYVsjRWXlaG4hARwEWvhpqbmsLW15zVZum5NVR0L4gJy7+YUsDDOzyvmbVpaJqSSKDjaO7JLTBwp5WuT8CspqWS3NLmF8/KL2RrMys5DjDwOnj7eMLd8yWSaYeFhSElNRV5+IVtUubk5yMzKQE5OtkLbp+J6Wdlwc/fC7Tv3YW/vDP/AYBSVkju/ki1LOi+5hslKp3chPz8P6elpPGZPjE3h5uLz//o67ycpjiyP/7dnIu5+Pd2FzmljFdIqLnalu5VBggUhQAOMYwzT9PS0926mu8cDAiQQzLSpttUGFN+Lz8uuAe1G6IcXZTIrK83LfN9nqlJ3bi+rWm1Yv9ZrJ9rdPVKl0hBbIVSqFe3uVrS7VzXNBXM+G8JVK3UDRpiTE/GUQlthLRB88N1NM/mtLC+bjzuTzqhUKqveaKhWa6hSLKtarhjfNA4OVN9vKFfIaSfmfOwIne+/JzJtSSsr6wqFwmbGJQAA4YMARPCiXaJNQwf7xxe0j4n/wJHx/lwoGTBAEzVB9MjmBBoncwP/DpY0BM87wQXSdPratj3GdPPkyTPdvLFgHf33//jP+rt/+Cf99wcf66OP/6TLV27o5k1+Eb+uzz79XP/63n/o39//QP/1n783Z917//K+Fu+umjqHyv3Tjy/myMwhox+e/Gh+FwYa2/8CttGNLZ0cP7YF7PEjJC1o5blNBiYwWsGjxz/p9NEzG+DFpXta3wjZAsc7bJFBOp+Cin4w1RsTDEiwWq0JgbO5QZBCSo8ePtPpwx/1+IfnViYa18OHLJpPDU2CpCrlmtKpvNbu3VcuW5qr2c9MC8J8cvLoiTEyyPLpsxe2WDHxo4m0bt9ZViSasMWARcwW7cfPdMzEfviDTh6DsJ6aOQSTTSQa153FJTuWqrs6NQT21Jj6iEXm5NRMJZjj0HQy2aKw0SN4coWyMTtmFlA/E/+IRWP/SKdHp3r6+KkOavsWqXb71m1dvXJN6WTGUB2L/iOE//Gx+QYOj060f3hsxILGYuYY7khHhyc62D9SdCeujfX7FoEDAmNR2m8c22IFY2Lq2m+4yQdqzWaKNuFu3bxjPEH/W/6jE0NR5McchCmOd2J6KpTKujW39X977TsVskVj8tpeQ9AeJom5CQoeAtXxp4XFxVWju3dXlMuXVeObCHiMhaNWU6W2p9r+vna53quZbwPBs3Bn2foynQHtNVRrHDkfUwV/Vs0mMm3arx8qtBnWd9du6S9Xruubr6+6ha1+qEqlYlSvszDWzXeEr40Fa3l1VTe+/15Xrl7Vze9vK5MrGGBgwy+oVNxVpVTTXqWuaoVFvqGFhSVduXJdV658q4Xbi8rmC/bzT4AGGhDkzH1lM/lh9oPyxYpyBUfFQlWlYtWERrm0ZwCKhYwxuXb1hv78+SVd/Rbfw4qNGaaUcmlX5MV3R73YmAzEjb/gi68u6dLXRC9d1doaX7NTl4bQztAYeR/l42/E38di9sXnl/TVl5e18P2iNjcf2DOYfHOlsv1TLlsqufZUeWfJfA6/++D3+tMfP9OtmwuGxA/qR1Z3/B+ZTFH5XNnexbwk4Gh5aVWf/fEzXb96Q6tLa7Z7J5pCucTPNis2f7P5ssqVmvkP1ze3dPkvV/XRJ3/QpcuXtHD3tqKxqJmEWHT5UJJAqWw2o3K1omw+p3gyoS8vfa33/u19/d+fv9T1G7dUQmDsNpTO5JXKZJRkS+h83oKtcrmsYrGovvzya/3ug4/0xeff6Pq3t2xNYXvrbKaidAoTWtZ8Ofy5OZ1OWGAI7y8WS0Ko0tZU0vlr2HIAH8u1a9d16dI3tjsozv9wKGSbADIH8FXSj6lEStl0WvlCUYVSSUU2cUsltb0TUXh7W/h0Ln112XiYaLq1exuKxdw+O/zMk4AxzJP4P8vlqhH8EFCxWFapVDFivDEJ7lZrRsxR5gFmUXYtpT3sYHp2dqbBYGBC51eCxx+N1Wp1zD5rttJT1KdnevL0uZmbnv10pmc/4mw/E2r28+fO8Q66AMHiwAfxon6hWp2egpoOTXoyMVHhqtVdc367a3fPzitVQyosKnSemzDsxlezZ5gMTMjaLkjnyDE4jF+u2USxicXkMqqpkKeTeGbPOoX7MCoTCsTHV72FYk35wp4y2YpyubKlM9AwuE2geflBZ5dKTPY9wcQ4wCEmJXmZhAUmH5MQqrAhV13FEu/ZVd4mW1XZQkXpXNEWkmy+qHyxZAtttlBUphhQSal8wRzZyWxOiWzWKMOCUqxeEGVliwQHlJXOwFhFRRM5JZIF5Yt7phmxmGZzJeXzJeXM8V62CcNmYSxmmJpgSIiJg50Xvx5MDOH8h1hIGBcLHsA8lStZfyHQU6mcUklHyQQTKS2O3Muki8pmSspm6F8WATeZ0JxwnlqgQcq9L0WwgVHG0B3pUCqeNmHJT2cTsaRwkCcwD8SS2onGTWATfJBIZRVP55TIFBRL57WTyikUTWprJ67tWFLb0aSi0ZSBD/yRUGwno1g8axTZSWs7klJ0J2n/zWLhDOO/DG0rHk0oly7as5FIQtuRhMgfT+UVS2UUjka0FX6grQdQ2Bz329sxRaJM9sSviOd3eD4SV2Q7rp1wTJEHUUehmHbCSUXCCUuLUMYO5cS1vRPT1oPtOYXtPaEw1+59BAls3A9pk6/J7TcmUUV5NhJVOOyIttFufAUAsY0NnMMh7URiFsDAvc1NojS35xRRKASFtbZxXwQqrG1sml+XtmGp2ApF9ODBjmgvebfuE6Ea1uYmUVBrWl3ZMDPRg9COHjyIaXNr2+q5cX/LjtSfIAwCKDY3QwY6iDy8t3xPoc0H1i/ra1tmfdjYdPVbXw9pYz2k0GZIayvrunt70cKH11Y2rF33N8NaW93SvdUtrd0LaX0jrM37BFA4QsO9u7Si5dU11565o5wACCKw1tY2tLHhAi+sfuFtra5tmKbDMxaUcT8s6oO14u7ykhZXFrW0uqSV1SXdW1vS6r1FLS6hUS8JMLS8vK57q0TlbujunRUDZGjbhCnfvHVDi4u3tbqKgF4XX/wT8YuGQ1QtEcZsNbC8vKJPP/1fffLJ/1hE38LCHYsKps/JT58TfUbd1zbWtbq+pnvra9rc2tLm1n37hx/7/pD+4Ycf68MP/6DL31y1OhKBiwDk9zcEAzhyGpJFHs99TPBOwB+MKeNuvB6JG18HgRHxeMLKIgABTYrdDwhY+6twamk8nqrXG+gV9upnz82u+/LVmZqtts5bHZ2dt3WOH6HpqdXy1G511Wy29fLlK5Nm5+eYbl7YC178TBTaTxZSjZPNCaJT51h8eGK73z18dCKjhw8t/ekTzDqPdXJyopMTHJuPzWmMg/PkGEIQPnF2x1NMGuR9aI5G5wjDNOKQNOj8EFsx9tJj7h+p0XA/4KMuhu4xURwcqtZomIqKehnk4ZngOedgc062w+MjNQ5A6KjV7J1Rd/ksmu7QIuvQGog0w8HLuTOHHDo7Lg7SWl0Nfn9OfYz27f2N/X1zBDb2EdY4vkHEzvnNroT1OqaAQx2gUYDAQfv7x5YX0wqRb5W9A1WqlHds5oUajmcchGbKOLLzo9OHFtXWOHQqOO2A+CU7RJtQ100bqTnVHQBBf2CvxYnIuxuNA4ds6pgFiParmyMXlBM4dOt1Vw5mGNMaGph/DrQLap9rCS5/zbQYNB+0GN6/twuC2lNtd0/1PTSCqnYrVTMh4MfZBXGWQeVVQ9mYO6zPqEed85qKlYoK5bKlg9wqcx/QXoXy9rRb3rNyeE+F9HJF5XLF0C+fEBSNiuY3qu/WVSqjWRRVKJdUAkzt7Zp5pFgumCkjm3OCHmGPBoDGUCnWVS01VCnVVS7WVC6iIaCNALBA7wUV8kUV80UVCgj4sqXRLupS4jMGqARgyc9BS17ZXF65fMGuMzki4LJKZ1NK59LKFTLCmVwqF8y2T1tA8ziz6fdcNmeLAQtCPp8zsxDpmUx2vqUx6QCMvPJ5tIC3qB6AkM3T/l0DTtSBehcLZQMoRBhahGMmr3gspWQiYygcczcmUZ7NZAE9RWUMhBWVm7c9m3G/ZUmiASSTymdzVu9kKiUolc7Yn9PTgJV01qInyRePxWxHTEDTRX2JliQ6kLzZrLK5nPUZgCuZzmgnFlc8mRJ+NEuj/9LuGXsunRX9mmN8ivjoUorGY0pl0srkXFo6WzDTHSasaCKqWGJH8UREyVRUCf5sEpvvUxNNmNZIuYAtwMA2n3AYKAhbBGFkJ6x4PKJUik9V0sqkGYOcfXiJg75cLppgQJAhcG7cuGk+GvqbvPQHEaK0l2MylTRNDVCZBkxmXb0xK5L+3XeYTW9qfZ1PZ9z21vAGfOAIfgSsF83fn83kFZDVLQN/uLFmvMkLD6AJOS3JlQWYRePhzzh/Y2oL9B/sb3zPM5vOLmxxpPHJT0BB3t86Us6bX95oOpvo9eupSTlCsgOazaZ682amX355bWlvXr+5eG+Qh+N4PDGH1HQ203Q6k++PNB77ej2bGRHqTcg30RIQ6f54pPHEt131BsOuhsOe0WDYU0C9Xlee11Gn15HX76jX99TjvNtSt9s26nOPtF7Hrj2vpeBed+CpO+i4657LY8/32mp3W2p7TbU7LXU6LXW9trwO/qNz9dot9dstO3ZbTXXOz+S1mhp0u+p7PfW7faNeZ2D/WWq+aql11lSnyTNd9Ts9Dbyuhl5fA6+vYW/g8nf76vaggZFHOb2BRkNfw8FIo8FQw8FQg+HoLY2GGvgjDek7n2CLkanC/X5fg8FIhMMTIh/0bdC/I54bkKcvzh1x7og+d9Sb3xvYuAyHg4vneBYmGGoatgAABH9JREFUZBygfr9n77Z3jH0b8/HI15i69fsadnuOej0Nun0jf+DL74006o2s73odTwPPU9/raNDraNj3jOhbr0lfn6t93pTXamtIH3YhnmmrxzgxRp2mzps/6/z8pZrNM7NLt1otNZstNc+ads/zmur1W+p1m+p2m3bswzMe5KlLRKY3tIhCoiX7nZGG3ljDrq9hd6QBwS+ME4EmnZaarVdqts/U7pwbnzl+gx/hP0/drme8avzaadsEZhL/NZEOj1Jmp3OuVvvMiHK5Dy93u615nqZoB+PU67V1Zu19pc78+XYb32zzgtrttqCu11Wv21evO7Bj1+tZtBJp2PA9rzdPI93l6RFgQ0BNp6tO21OLoI9WR80WEagu+pT+6HRoJ5FPQw1H8BdztOXa4Z2r2Tlz/dRuWhs9m1fM1Y76g676w666feZwW5ZGuufa6Xnn6th5S16XOd9Vd9Az8no9dbyuoXEQOUQ93Lg3RV/AnwGvciQP7TW+gDea9BdBMy+Nzpuv1Goxnoxf19pu7e90rDyCXsj78uXPevnyxfzorp8/B7y/sE9azoiEfUWZr3R+TpmMLWMwUL83vOh7dhZgWxuAP+d/S5SHn/hnV7/zMzeeXcafT2A8oTjwGQ1lUNa7ZXD/1atzU0oIHHnxgnc5CuobHN39F1YOIdQEGmBmQ9MJItqQHRZcEAgRBAaJCJ/ACUQa7qCAgry/dXy3nDdv3lyUSbkQgia4H1SI6yA9OBJhhwBCeL1+PdNsNtZsNtGbN6+NCIZw5PKRH6E2ez01oTeZjDWdTjS1b5HeHifjsQkwn0Vu4pugmnBEaF0Q12/vIdAmXE9+/Yw9Ny+Db5z4tmmEAPSHTlAiLEdDo8mIyLmRxqQjKEfkGWjsD+3e2PdlNBrLH/omOPyRb3lZiHl+OhpqOvIdjceaWlvGtlgTNRLQxTdY44mmc0JQBzTmHDAwmQOCydSljSeajOnP15pOXL9Op/QjfT/WdDbWZOobBffdke+9KJ9vvxxxzXgE+YLnOHJvMqFPXb+6MZpqwpjPCQA0nfiWZzoeaTr2rS2T8cTA0Ww808yfaepPNfHHmvqkQ+QduqNPvzkhhiCj/y0feY0Yj6H8MQJyoKHfN9Dixu9tfyKEHfAZ2LbBk3FfE39gNPWDcSUPYGhqgtsfTjS2us00sSN9C43dO/2hRhA8A18ZvwV85yvgSVcXeAV6W6dfnwO6AiDw9ngBxoyvB66dtJX+YQzGvoEAFnzLG/DumD5x5OYEdWbeQA7wuXN43dXJXQMYA3qbj7ZZWw0gwq9j+fTTZOb6a17GBa/QHz7zyfXPwB9qSF8Z2HH1t3ljQHMsfzq2ucw8Zf7Zu/yBRjaejCnUc+2fjOx7ROZrUPd3j++CLcoZk4++sP53/fQ2D+DMATTA1XAIABvMgbDrl7d5Aci0weUj72AA6OLIvYEG/YH6fc6Hdk2eoEy3FgDGp8ZXQbk8+9sE+HblBGXx7Lttdu8DVAbv/vU5+YM8Dpy+fSfXAb1bD0AHQo3nkAkBITv+H3Nm9aqm66SLAAAAAElFTkSuQmCC;" parent="1" vertex="1">
          <mxGeometry x="2408.73" y="1040" width="247.69" height="70" as="geometry" />
        </mxCell>
        <mxCell id="ZFgZAANVJCpxepYmrR5U-39" value="&lt;span style=&quot;color: rgb(0, 102, 204); font-family: Helvetica; font-size: 12px; font-style: normal; font-variant-ligatures: normal; font-variant-caps: normal; font-weight: 700; letter-spacing: normal; orphans: 2; text-align: center; text-indent: 0px; text-transform: none; widows: 2; word-spacing: 0px; -webkit-text-stroke-width: 0px; background-color: rgb(251, 251, 251); text-decoration-thickness: initial; text-decoration-style: initial; text-decoration-color: initial; float: none; display: inline !important;&quot;&gt;Mikrotik CCR2116-12G-4S+ - Cloud Core Router 16 núcleos RouterOS L6&amp;nbsp;&lt;/span&gt;" style="text;whiteSpace=wrap;html=1;" parent="1" vertex="1">
          <mxGeometry x="2656.42" y="950" width="223.58" height="40" as="geometry" />
        </mxCell>
        <mxCell id="ZFgZAANVJCpxepYmrR5U-45" value="" style="image;html=1;image=img/lib/clip_art/networking/Firewall_02_128x128.png" parent="1" vertex="1">
          <mxGeometry x="2310" y="930" width="80" height="80" as="geometry" />
        </mxCell>
        <mxCell id="ZFgZAANVJCpxepYmrR5U-46" value="" style="shape=mxgraph.cisco.routers.router;html=1;pointerEvents=1;dashed=0;fillColor=#036897;strokeColor=#ffffff;strokeWidth=2;verticalLabelPosition=bottom;verticalAlign=top;align=center;outlineConnect=0;" parent="1" vertex="1">
          <mxGeometry x="2200" y="943.5" width="78" height="53" as="geometry" />
        </mxCell>
      </root>
    </mxGraphModel>
  </diagram>
</mxfile>
